<?xml version="1.0" standalone="no"?>
<!DOCTYPE svg PUBLIC "-//W3C//DTD SVG 20010904//EN"
 "http://www.w3.org/TR/2001/REC-SVG-20010904/DTD/svg10.dtd">
<svg version="1.0" xmlns="http://www.w3.org/2000/svg"
 width="400.000000pt" height="400.000000pt" viewBox="0 0 400.000000 400.000000"
 preserveAspectRatio="xMidYMid meet">

<g transform="translate(0.000000,400.000000) scale(0.100000,-0.100000)"
fill="#000000" stroke="none">
<path d="M0 2000 l0 -2000 2000 0 2000 0 0 2000 0 2000 -2000 0 -2000 0 0
-2000z m2052 1233 c9 -10 282 -550 607 -1200 387 -776 591 -1193 591 -1213 0
-17 -9 -39 -20 -50 -19 -19 -33 -20 -474 -20 -250 0 -462 3 -471 6 -25 10
-480 926 -521 1050 -59 177 -75 269 -81 474 -5 159 -2 202 16 309 26 155 85
332 158 478 71 143 103 183 147 183 19 0 40 -8 48 -17z m-543 -1161 c94 -98
197 -276 251 -437 53 -157 65 -234 65 -425 -1 -183 -9 -241 -56 -364 -39 -104
7 -96 -519 -96 -447 0 -461 1 -480 20 -11 11 -20 33 -20 51 0 21 101 232 307
641 168 335 315 620 325 634 32 40 73 33 127 -24z"/>
</g>
</svg>
