<svg version="1.1" id="Layer_1" xmlns="http://www.w3.org/2000/svg" xmlns:xlink="http://www.w3.org/1999/xlink" x="0px" y="0px"
	 width="100%" viewBox="0 0 200 200" enable-background="new 0 0 200 200" xml:space="preserve">
<path fill="#FFFEFD" opacity="1.000000" stroke="none" 
	d="
M125.000000,201.000000 
	C83.359077,201.000000 42.218151,201.000000 1.038613,201.000000 
	C1.038613,134.400787 1.038613,67.801537 1.038613,1.101144 
	C67.557411,1.101144 134.115036,1.101144 200.836334,1.101144 
	C200.836334,67.666336 200.836334,134.333130 200.836334,201.000000 
	C175.801819,201.000000 150.650909,201.000000 125.000000,201.000000 
M114.065323,114.311699 
	C113.800613,114.075020 113.535904,113.838333 113.258919,113.274948 
	C113.258919,113.274948 113.079720,113.001495 113.185165,112.502701 
	C113.166588,112.333778 113.148003,112.164864 113.333931,111.771774 
	C113.333931,111.771774 113.336891,111.468361 113.792564,111.005783 
	C113.912132,110.380608 114.031708,109.755440 114.123383,109.013916 
	C114.123383,109.013916 114.107010,109.132393 114.552216,108.899483 
	C114.728889,108.621132 114.905563,108.342781 114.993126,108.048355 
	C114.993126,108.048355 115.077400,108.087746 115.993073,108.098991 
	C121.326485,107.698418 126.659889,107.297844 132.820068,106.973923 
	C134.195175,106.875847 135.570297,106.777771 137.806412,106.846901 
	C140.872009,106.566856 143.937622,106.286819 147.753296,106.100510 
	C148.885483,105.987709 150.017654,105.874916 151.149841,105.762115 
	C151.143494,105.511719 151.137146,105.261322 151.130798,105.010925 
	C149.418793,104.724419 147.706787,104.437904 145.163895,104.032379 
	C141.774475,103.881126 138.385056,103.729866 134.407227,103.192093 
	C132.551254,103.389351 130.695282,103.586617 128.001678,103.852303 
	C124.000580,103.932327 119.999474,104.012352 115.637268,103.930794 
	C115.637268,103.930794 115.243042,103.897606 115.059120,103.404053 
	C114.962517,103.257446 114.865913,103.110840 114.853600,102.264008 
	C114.000557,99.501282 112.665215,96.726204 115.021683,93.994148 
	C115.021683,93.994148 115.032425,94.060829 115.528999,93.893280 
	C115.709160,93.603058 115.889320,93.312828 116.526833,92.840195 
	C116.814774,92.637581 116.975441,92.361015 117.601959,91.715569 
	C119.418785,89.490318 121.235603,87.265060 123.009392,84.995544 
	C123.009392,84.995544 123.031334,85.052864 123.523521,84.886955 
	C123.681061,84.592407 123.838600,84.297859 124.011124,83.963554 
	C124.011124,83.963554 123.974106,83.942703 124.516808,83.697472 
	C124.767502,83.180435 125.018196,82.663399 125.147644,82.108223 
	C125.147644,82.108223 125.164284,82.234245 125.716057,82.099380 
	C125.879410,81.772118 126.042755,81.444855 126.227478,81.182907 
	C126.227478,81.182907 126.290443,81.210442 126.883209,80.904892 
	C132.219971,74.919426 137.558701,68.935692 142.892883,62.947941 
	C147.078461,58.249538 148.615616,58.110794 153.162796,62.337559 
	C154.830994,63.888222 156.253708,65.702972 157.982483,68.039719 
	C161.309784,74.354851 164.599686,80.690178 167.991547,86.970444 
	C168.805237,88.477043 169.957855,89.800583 170.933899,91.882256 
	C171.402267,93.329910 171.870636,94.777565 172.339005,96.225220 
	C172.762054,96.059364 173.185104,95.893501 173.608154,95.727646 
	C172.831451,79.026154 167.139999,64.251541 154.854248,51.542004 
	C154.691162,51.239735 154.444641,51.040936 154.143478,50.295708 
	C154.832275,49.115097 155.521072,47.934486 155.877167,47.324127 
	C153.323685,46.855000 150.704697,46.373840 148.000504,45.948982 
	C148.000504,45.948982 148.101440,45.933395 147.913101,45.446220 
	C147.606033,45.308487 147.298981,45.170750 146.724884,44.586052 
	C146.430344,44.413509 146.135818,44.240967 145.554779,43.471813 
	C142.038437,41.582676 138.522095,39.693539 134.677887,37.481297 
	C134.677887,37.481297 134.235062,37.355656 133.837753,36.866932 
	C126.874397,34.683208 119.911034,32.499485 112.301163,30.164173 
	C111.858940,30.146765 111.416718,30.129356 110.547844,29.481245 
	C108.302399,29.035456 106.056953,28.589666 103.811508,28.143877 
	C103.640182,28.789730 103.468857,29.435581 103.297531,30.081434 
	C105.122330,30.409197 106.947128,30.736961 109.040512,31.718189 
	C115.701363,34.825748 122.362221,37.933311 129.430405,41.564064 
	C134.650162,45.720432 139.869919,49.876801 144.527237,54.395008 
	C134.592148,63.215706 124.657059,72.036400 114.307579,80.990631 
	C114.307579,80.990631 113.986595,81.284782 113.577721,81.351654 
	C113.316696,81.508469 113.182938,81.739159 112.561615,82.326187 
	C111.393265,83.404564 110.224922,84.482933 108.575119,85.673088 
	C108.321068,86.076653 108.067017,86.480225 107.900627,86.924942 
	C107.900627,86.924942 107.888176,86.828911 107.361549,86.957466 
	C107.162415,87.242165 106.963280,87.526871 106.811310,87.888206 
	C106.811310,87.888206 106.862160,87.813980 106.381104,87.941940 
	C106.381104,87.941940 106.011513,88.277557 105.191025,88.232048 
	C103.838425,88.097198 102.485825,87.962341 101.050774,87.877274 
	C101.050774,87.877274 101.143387,87.903717 100.892723,87.462219 
	C100.603783,87.292213 100.314842,87.122200 100.011223,86.979149 
	C100.011223,86.979149 100.044777,86.964508 100.042053,86.051163 
	C99.699677,81.701164 99.357307,77.351158 99.120110,72.252953 
	C99.056740,71.503662 98.993378,70.754379 98.996140,69.172600 
	C98.889496,67.790756 98.782845,66.408905 98.858368,64.155373 
	C98.484375,60.490250 98.110382,56.825130 97.736397,53.160007 
	C97.001686,53.228607 96.266983,53.297207 95.532272,53.365807 
	C95.532272,57.268089 95.532272,61.170368 95.278969,65.789841 
	C95.288902,66.546875 95.298836,67.303909 95.081322,68.789505 
	C95.058640,70.854500 95.035957,72.919495 94.857376,75.754623 
	C94.661026,77.834938 94.464676,79.915245 94.037132,82.773178 
	C94.038399,83.849342 94.039665,84.925514 93.918068,86.412514 
	C93.918068,86.412514 93.926514,86.841255 93.194809,87.108269 
	C91.163979,87.368462 89.133148,87.628647 86.926018,87.413727 
	C86.634926,87.255066 86.343834,87.096405 85.843727,86.386261 
	C85.218773,85.935944 84.593811,85.485626 83.746796,84.514534 
	C83.278938,84.209564 82.811073,83.904594 82.032120,83.007248 
	C79.507790,80.699577 77.080940,78.272751 74.437714,76.110428 
	C69.732162,72.260986 64.895683,68.571579 59.796261,64.235390 
	C56.284451,61.091011 52.772640,57.946632 48.899387,54.232178 
	C46.854668,52.741249 44.809944,51.250324 42.765224,49.759396 
	C42.279850,50.232376 41.794479,50.705357 41.309109,51.178337 
	C51.167953,63.133465 61.216434,74.933960 72.114456,86.873169 
	C74.707916,89.595505 77.301376,92.317841 79.979408,95.699837 
	C79.947006,97.428459 79.914604,99.157089 79.221977,101.207184 
	C77.790680,101.575455 76.359390,101.943726 74.305283,102.219917 
	C73.895561,102.296951 73.485840,102.373978 72.220268,102.198288 
	C68.814865,102.499298 65.409462,102.800301 61.262527,103.037987 
	C60.524330,103.112221 59.786137,103.186455 58.172684,103.080162 
	C55.199924,103.400970 52.227169,103.721771 48.551018,104.132217 
	C48.251652,104.654884 47.952286,105.177551 47.652924,105.700226 
	C49.102058,105.799950 50.551193,105.899673 52.755730,106.185059 
	C54.830902,106.349991 56.906078,106.514915 59.835682,106.898071 
	C66.269035,107.450691 72.702393,108.003311 79.452972,109.022270 
	C79.654388,109.339516 79.855804,109.656761 80.001419,110.757088 
	C79.301048,112.822990 78.600670,114.888901 77.379257,117.203972 
	C76.920265,117.810471 76.461281,118.416969 75.537071,119.182480 
	C75.238945,119.388016 75.101318,119.671486 75.037590,120.040962 
	C75.037590,120.040962 75.062088,120.124435 74.528831,120.348457 
	C74.278740,120.852509 74.028648,121.356560 73.865547,121.914635 
	C73.865547,121.914635 73.858658,121.812477 73.326347,121.983841 
	C73.106133,122.278992 72.885918,122.574135 72.300331,123.033958 
	C72.072342,123.200089 71.932709,123.421844 71.392990,123.981537 
	C71.199081,124.298561 71.005165,124.615578 70.249985,125.264572 
	C68.442101,127.478271 66.634224,129.691971 64.327263,132.169968 
	C63.879276,132.758286 63.431290,133.346603 62.513229,134.138245 
	C62.352940,134.428574 62.192650,134.718887 61.571613,135.243546 
	C61.392925,135.530960 61.214241,135.818359 60.510612,136.339111 
	C60.251793,136.834778 59.992977,137.330460 59.832966,137.886765 
	C59.832966,137.886765 59.810116,137.773102 59.303123,137.956772 
	C59.142845,138.269531 58.982563,138.582275 58.913956,138.920975 
	C58.913956,138.920975 58.889225,138.828964 58.386276,139.016373 
	C58.204838,139.314117 58.023396,139.611862 57.929565,139.932571 
	C57.929565,139.932571 57.909573,139.844238 57.393402,140.029434 
	C57.199245,140.331421 57.005085,140.633408 56.397514,141.130524 
	C56.150509,141.334000 56.001278,141.593674 55.371311,142.240555 
	C53.214977,144.797760 51.058647,147.354965 48.364479,150.230469 
	C47.840965,151.081558 47.317451,151.932648 46.850651,152.952911 
	C46.850651,152.952911 46.750843,152.805008 46.131187,152.915070 
	C45.029171,154.195419 43.927151,155.475769 42.241680,157.116455 
	C39.991917,159.896545 37.742149,162.676636 35.013046,165.700790 
	C34.870544,166.049744 34.728043,166.398682 34.585548,166.747650 
	C35.109043,166.558395 35.632542,166.369156 36.774883,165.877075 
	C41.856682,161.590820 46.938480,157.304565 52.638832,152.763672 
	C55.457455,150.207611 58.276073,147.651566 61.728806,144.929977 
	C62.889954,143.695282 64.051102,142.460587 65.191193,141.094345 
	C65.191193,141.094345 65.148849,141.220657 65.734550,141.153412 
	C66.145096,140.761536 66.555641,140.369659 66.997833,140.002792 
	C66.997833,140.002792 66.985390,139.964676 67.480263,139.841858 
	C67.660217,139.564499 67.840164,139.287140 67.999596,138.998810 
	C67.999596,138.998810 68.009331,139.019760 68.511162,138.881409 
	C68.698898,138.601822 68.886635,138.322235 68.996765,138.023651 
	C68.996765,138.023651 69.055847,138.077454 69.654175,137.948669 
	C70.168007,137.361069 70.681839,136.773453 71.182121,136.081573 
	C71.182121,136.081573 71.133514,136.174820 71.677948,135.988831 
	C71.880402,135.671295 72.082855,135.353775 72.651047,134.905563 
	C72.892693,134.789597 73.081223,134.615967 73.792671,134.236786 
	C74.210411,133.831131 74.628151,133.425476 75.483582,132.845093 
	C75.765373,132.673965 75.956474,132.431396 76.684250,131.954391 
	C77.487061,130.996582 78.289871,130.038773 79.053200,129.007431 
	C79.053200,129.007431 79.041832,129.090103 79.649712,129.134918 
	C80.080795,128.743347 80.511879,128.351791 80.997345,128.000076 
	C80.997345,128.000076 80.961029,127.943336 81.442932,127.799881 
	C81.618011,127.524734 81.793091,127.249588 82.546333,126.636063 
	C84.709587,124.785858 86.872841,122.935646 89.350853,121.204216 
	C89.350853,121.204216 89.686577,121.182526 90.100853,121.759705 
	C91.018082,121.903801 91.935318,122.047905 92.974617,122.166252 
	C92.974617,122.166252 92.852089,122.142838 93.260750,122.855026 
	C93.867668,128.901978 94.474586,134.948914 94.991882,141.501617 
	C95.036369,141.666946 95.080864,141.832291 95.046196,142.788010 
	C95.165527,143.833679 95.284851,144.879349 95.183197,146.738617 
	C95.298111,148.605194 95.413017,150.471786 95.527924,152.338364 
	C96.132744,152.365601 96.737564,152.392822 97.342377,152.420059 
	C99.850288,142.841904 99.328217,132.852234 100.035210,123.028542 
	C100.035210,123.028542 100.069290,123.104431 100.535927,122.894173 
	C100.734848,122.626305 100.933769,122.358429 101.042931,122.081184 
	C101.042931,122.081184 101.080978,122.163025 101.880249,122.173447 
	C104.584465,123.120270 107.288681,124.067093 110.247269,125.552353 
	C110.868576,126.020340 111.489883,126.488335 112.335526,127.566780 
	C113.863022,128.746231 115.390526,129.925659 116.967743,131.093277 
	C116.967743,131.093277 116.943665,131.048218 117.066635,131.564804 
	C117.368805,131.727280 117.670975,131.889740 118.171364,132.503662 
	C118.386536,132.773865 118.664276,132.938553 119.208328,133.537674 
	C119.819153,133.963440 120.429985,134.389221 121.288544,135.062073 
	C121.288544,135.062073 121.625023,135.158051 121.901962,135.680969 
	C122.212440,135.919556 122.522926,136.158157 123.267128,136.898911 
	C125.593513,138.922455 127.851616,141.031799 130.261887,142.949921 
	C134.119217,146.019653 138.077469,148.962540 142.572159,152.320602 
	C148.446701,160.611481 151.004929,162.524094 154.373703,161.125946 
	C153.194107,159.580887 152.100891,157.965591 150.826324,156.508987 
	C141.909134,146.318222 132.954468,136.160233 124.000000,126.000000 
	C124.000000,126.000000 124.009743,125.990028 123.880547,125.479538 
	C123.606697,125.272682 123.332855,125.065819 122.761627,124.273415 
	C120.572479,121.824089 118.383331,119.374756 115.992638,116.421585 
	C115.698853,116.226997 115.405075,116.032410 115.148170,115.947762 
	C115.148170,115.947762 115.164047,115.832886 115.020683,115.357964 
	C114.850349,115.039001 114.585632,114.858261 114.205345,114.822617 
	C114.205345,114.822617 114.202919,114.835083 114.065323,114.311699 
z"/>
<path fill="#EF8555" opacity="1.000000" stroke="none" 
	d="
M145.841278,44.068420 
	C146.135818,44.240967 146.430344,44.413509 146.975311,45.032646 
	C147.517639,45.630627 147.809540,45.782013 148.101440,45.933395 
	C148.101440,45.933395 148.000504,45.948982 148.021240,46.306038 
	C150.066208,48.090599 152.090439,49.518101 154.114670,50.945606 
	C154.444641,51.040936 154.691162,51.239735 154.918854,52.175205 
	C155.448700,54.256119 155.861588,55.723312 156.391174,57.147087 
	C157.237427,59.422119 158.161194,61.668312 158.764877,64.177856 
	C158.247833,65.418427 158.018127,66.407845 157.788406,67.397263 
	C156.253708,65.702972 154.830994,63.888222 153.162796,62.337559 
	C148.615616,58.110794 147.078461,58.249538 142.892883,62.947941 
	C137.558701,68.935692 132.219971,74.919426 126.494156,80.640091 
	C126.068779,79.245636 126.032455,78.115982 126.142853,76.684410 
	C132.051971,70.544044 137.899399,64.785118 143.500336,58.795662 
	C144.539444,57.684464 144.585358,55.644489 145.089676,54.033173 
	C139.869919,49.876801 134.650162,45.720432 129.084900,40.977879 
	C128.490585,39.260681 128.241791,38.129673 128.367828,37.006050 
	C130.629959,36.220680 132.155090,41.240589 134.235062,37.355656 
	C134.235062,37.355656 134.677887,37.481297 134.965393,37.983124 
	C137.742889,42.317310 141.240540,44.238827 145.841278,44.068420 
M156.612289,60.795769 
	C156.215179,60.791229 155.818085,60.786690 155.420975,60.782150 
	C155.419815,60.947117 155.407379,61.255394 155.419098,61.256317 
	C155.814285,61.287373 156.211777,61.289185 156.612289,60.795769 
z"/>
<path fill="#F6804B" opacity="1.000000" stroke="none" 
	d="
M80.057220,109.974007 
	C79.855804,109.656761 79.654388,109.339516 79.270874,108.530472 
	C79.043007,107.691032 78.997246,107.343384 79.209610,106.817688 
	C79.301735,105.757065 79.135727,104.874489 78.994751,103.697571 
	C79.360962,102.966377 79.702141,102.529533 80.331619,102.366684 
	C84.668823,102.835602 89.037254,104.389351 92.106369,99.709930 
	C92.473892,98.967697 92.734955,98.480270 93.353073,97.927559 
	C94.824089,95.454338 95.871284,93.011017 97.112045,90.670288 
	C97.342209,90.236069 98.352303,90.215256 99.002899,90.414322 
	C100.004234,93.553520 101.005119,96.282036 101.967422,99.371033 
	C102.462181,100.844810 102.866707,102.826279 103.550186,102.927689 
	C107.410782,103.500488 111.338318,103.622200 115.243042,103.897606 
	C115.243042,103.897606 115.637268,103.930794 115.817764,104.246536 
	C115.998253,104.562279 115.997200,105.032227 115.724823,105.233917 
	C115.327431,106.319656 115.202415,107.203705 115.077400,108.087746 
	C115.077400,108.087746 114.993126,108.048355 114.785065,108.136200 
	C114.420334,108.526817 114.263672,108.829605 114.107010,109.132393 
	C114.107010,109.132393 114.123383,109.013916 113.860916,109.031273 
	C113.412949,109.036385 113.227448,109.024147 112.639633,109.001068 
	C108.944405,108.703651 105.109047,105.936676 102.692787,110.866554 
	C101.410080,110.349121 100.423508,109.977936 99.436935,109.606750 
	C99.207054,110.958839 98.653954,112.347824 98.803322,113.656631 
	C99.445885,119.287193 98.035446,121.415497 92.852089,122.142838 
	C92.852089,122.142838 92.974617,122.166252 92.963387,121.882545 
	C92.967590,121.399628 92.983017,121.200424 92.998322,120.750702 
	C93.000023,120.333168 93.001846,120.166161 93.392853,119.911720 
	C96.166290,114.818466 95.523506,111.273705 91.985474,109.593605 
	C90.852463,105.151535 87.601212,107.477150 85.343071,107.187447 
	C84.690193,107.103691 83.783562,108.997917 82.740257,109.992722 
	C82.318665,110.006981 82.150070,110.013870 81.660873,110.009468 
	C80.912590,109.990112 80.484909,109.982063 80.057220,109.974007 
z"/>
<path fill="#F28F63" opacity="1.000000" stroke="none" 
	d="
M71.798225,86.299591 
	C61.216434,74.933960 51.167953,63.133465 41.309109,51.178337 
	C41.794479,50.705357 42.279850,50.232376 42.765224,49.759396 
	C44.809944,51.250324 46.854668,52.741249 48.846825,54.704090 
	C51.899860,58.601364 54.979137,62.051857 58.170467,65.395393 
	C58.382710,65.617767 59.446331,65.027519 60.113964,64.815239 
	C64.895683,68.571579 69.732162,72.260986 74.437714,76.110428 
	C77.080940,78.272751 79.507790,80.699577 82.099060,83.408890 
	C82.166008,83.810532 81.986237,84.019257 81.655334,83.982895 
	C79.886475,84.288498 78.448517,84.630455 76.686737,84.839233 
	C74.841354,85.237221 73.319786,85.768410 71.798225,86.299591 
M60.599052,67.513199 
	C60.599052,67.513199 60.477089,67.588013 60.599052,67.513199 
z"/>
<path fill="#F38A5A" opacity="1.000000" stroke="none" 
	d="
M93.056419,122.498932 
	C98.035446,121.415497 99.445885,119.287193 98.803322,113.656631 
	C98.653954,112.347824 99.207054,110.958839 99.436935,109.606750 
	C100.423508,109.977936 101.410080,110.349121 102.842255,111.165054 
	C107.525185,115.408691 111.762520,119.207588 116.152710,123.315437 
	C118.441444,125.717537 120.079697,127.925285 117.736610,130.995270 
	C117.295662,131.017166 117.119667,131.032700 116.943665,131.048218 
	C116.943665,131.048218 116.967743,131.093277 116.940552,130.744598 
	C115.312637,129.249390 113.711914,128.102859 112.111183,126.956329 
	C111.489883,126.488335 110.868576,126.020340 110.089546,124.915588 
	C106.733940,118.940926 104.759102,118.468842 101.080978,122.163025 
	C101.080978,122.163025 101.042931,122.081184 100.830719,122.156372 
	C100.435440,122.522514 100.252373,122.813477 100.069290,123.104431 
	C100.069290,123.104431 100.035210,123.028542 99.763359,123.272339 
	C98.993317,127.208687 98.630096,130.925949 97.959702,134.586960 
	C97.262459,138.394623 96.268433,142.147934 95.404182,145.925018 
	C95.284851,144.879349 95.165527,143.833679 95.232590,142.294647 
	C95.306496,141.532822 95.194000,141.264343 95.081497,140.995865 
	C94.474586,134.948914 93.867668,128.901978 93.056419,122.498932 
z"/>
<path fill="#F48453" opacity="1.000000" stroke="none" 
	d="
M118.001556,130.988892 
	C120.079697,127.925285 118.441444,125.717537 116.283211,123.006622 
	C115.515030,120.255371 114.769211,118.121887 114.310631,115.964752 
	C114.786598,115.905037 114.975319,115.868965 115.164047,115.832886 
	C115.164047,115.832886 115.148170,115.947762 115.207893,116.160568 
	C115.576469,116.557388 115.885330,116.741409 116.194183,116.925423 
	C118.383331,119.374756 120.572479,121.824089 122.978661,124.820175 
	C123.467041,125.574638 123.738396,125.782333 124.009743,125.990028 
	C124.009743,125.990028 124.000000,126.000000 123.997040,126.370262 
	C127.320389,131.684814 130.559433,136.690903 134.001999,141.552872 
	C136.527405,145.119522 139.319717,148.497162 141.993073,151.959045 
	C138.077469,148.962540 134.119217,146.019653 130.261887,142.949921 
	C127.851616,141.031799 125.593513,138.922455 122.986328,136.329926 
	C122.345360,135.559982 121.985191,135.359009 121.625023,135.158051 
	C121.625023,135.158051 121.288544,135.062073 121.112694,134.634460 
	C120.292755,133.803818 119.648674,133.400787 119.004585,132.997757 
	C118.664276,132.938553 118.386536,132.773865 118.087807,132.011658 
	C118.003357,131.342758 118.002457,131.165833 118.001556,130.988892 
z"/>
<path fill="#F48D5F" opacity="1.000000" stroke="none" 
	d="
M81.981468,110.020767 
	C82.150070,110.013870 82.318665,110.006981 83.074501,109.998024 
	C84.107262,109.997681 84.552788,109.999413 84.998672,110.377739 
	C84.999794,111.507576 85.000557,112.260818 84.868996,113.293945 
	C84.489182,114.712624 84.241692,115.851402 83.999771,117.324875 
	C83.996758,118.105751 83.988174,118.551949 83.691727,119.133629 
	C82.259323,120.507347 81.114799,121.745575 79.656525,123.148621 
	C77.866882,123.934975 76.391624,124.558006 74.914978,125.177750 
	C70.947533,126.842873 70.242424,129.761993 73.047729,133.362488 
	C73.120834,133.933319 73.168732,134.158997 73.216637,134.384674 
	C73.081223,134.615967 72.892693,134.789597 72.185638,135.057068 
	C71.524666,135.530640 71.329086,135.852737 71.133514,136.174820 
	C71.133514,136.174820 71.182121,136.081573 70.843933,136.109161 
	C70.022446,136.783646 69.539146,137.430557 69.055847,138.077454 
	C69.055847,138.077454 68.996765,138.023651 68.793610,138.115448 
	C68.396744,138.478088 68.203041,138.748917 68.009331,139.019760 
	C68.009331,139.019760 67.999596,138.998810 67.779030,139.091339 
	C67.269043,139.371902 67.078018,139.632172 66.985390,139.964676 
	C66.985390,139.964676 66.997833,140.002792 66.675186,140.012115 
	C65.951309,140.421188 65.550079,140.820923 65.148849,141.220657 
	C65.148849,141.220657 65.191193,141.094345 64.785240,141.083115 
	C63.266232,141.056976 62.153172,141.042068 61.179016,140.719116 
	C63.865330,138.660767 66.412743,136.910461 68.960159,135.160156 
	C68.437668,134.538162 67.915169,133.916168 67.392677,133.294159 
	C66.537231,132.831329 65.681786,132.368500 64.826340,131.905670 
	C66.634224,129.691971 68.442101,127.478271 70.808380,124.995270 
	C71.538315,124.383728 71.709869,124.041481 71.881424,123.699234 
	C71.932709,123.421844 72.072342,123.200089 72.771782,122.894714 
	C73.448380,122.441132 73.653519,122.126808 73.858658,121.812485 
	C73.858658,121.812477 73.865547,121.914635 74.109810,121.802628 
	C74.590080,121.168549 74.826080,120.646492 75.062088,120.124435 
	C75.062088,120.124435 75.037590,120.040962 75.281265,119.921532 
	C75.773453,119.597382 75.932571,119.337837 76.002289,119.023468 
	C76.461281,118.416969 76.920265,117.810471 78.027893,117.060440 
	C82.968857,116.147301 81.878090,112.797890 81.981468,110.020767 
z"/>
<path fill="#EF9870" opacity="1.000000" stroke="none" 
	d="
M142.282623,152.139832 
	C139.319717,148.497162 136.527405,145.119522 134.001999,141.552872 
	C130.559433,136.690903 127.320389,131.684814 124.002930,126.366150 
	C132.954468,136.160233 141.909134,146.318222 150.826324,156.508987 
	C152.100891,157.965591 153.194107,159.580887 154.373703,161.125946 
	C151.004929,162.524094 148.446701,160.611481 142.282623,152.139832 
z"/>
<path fill="#F3956D" opacity="1.000000" stroke="none" 
	d="
M159.052200,63.926697 
	C158.161194,61.668312 157.237427,59.422119 156.391174,57.147087 
	C155.861588,55.723312 155.448700,54.256119 154.992188,52.406578 
	C167.139999,64.251541 172.831451,79.026154 173.608154,95.727646 
	C173.185104,95.893501 172.762054,96.059364 172.339005,96.225220 
	C171.870636,94.777565 171.402267,93.329910 170.973816,91.114738 
	C169.391129,80.469856 166.411377,71.206909 159.052200,63.926697 
z"/>
<path fill="#F29065" opacity="1.000000" stroke="none" 
	d="
M144.808456,54.214088 
	C144.585358,55.644489 144.539444,57.684464 143.500336,58.795662 
	C137.899399,64.785118 132.051971,70.544044 125.798363,76.840240 
	C121.778755,78.484352 118.250366,79.670731 114.721970,80.857101 
	C124.657059,72.036400 134.592148,63.215706 144.808456,54.214088 
z"/>
<path fill="#F2824E" opacity="1.000000" stroke="none" 
	d="
M114.514778,80.923874 
	C118.250366,79.670731 121.778755,78.484352 125.651642,77.142151 
	C126.032455,78.115982 126.068779,79.245636 126.197769,80.792870 
	C126.290443,81.210442 126.227478,81.182907 125.944061,81.226654 
	C125.495186,81.591675 125.329735,81.912964 125.164284,82.234245 
	C125.164284,82.234245 125.147644,82.108223 124.908295,82.209610 
	C124.437325,82.854904 124.205719,83.398804 123.974106,83.942703 
	C123.974106,83.942703 124.011124,83.963554 123.774857,84.086853 
	C123.369507,84.491058 123.200417,84.771957 123.031326,85.052864 
	C123.031334,85.052864 123.009392,84.995544 122.625427,84.999863 
	C121.160553,85.013771 120.079636,85.023369 118.627045,85.028954 
	C117.218346,85.787842 116.181320,86.550735 115.144295,87.313622 
	C115.764549,87.875084 116.384796,88.436546 116.997879,89.317993 
	C116.970589,90.063217 116.950455,90.488457 116.575256,90.929787 
	C113.237206,89.612099 111.073784,91.094749 108.998138,92.679001 
	C108.256050,90.820496 107.559105,89.317238 106.862160,87.813980 
	C106.862160,87.813980 106.811310,87.888206 107.060966,87.803680 
	C107.503143,87.422409 107.695663,87.125656 107.888176,86.828911 
	C107.888176,86.828911 107.900627,86.924942 108.103134,86.852089 
	C108.555962,86.373260 108.806267,85.967285 109.056572,85.561310 
	C110.224922,84.482933 111.393265,83.404564 113.042313,82.103203 
	C113.744041,81.733521 113.898575,81.535042 113.986595,81.284782 
	C113.986595,81.284782 114.307579,80.990631 114.514778,80.923874 
z"/>
<path fill="#EB7946" opacity="1.000000" stroke="none" 
	d="
M158.764877,64.177856 
	C166.411377,71.206909 169.391129,80.469856 170.984161,90.777763 
	C169.957855,89.800583 168.805237,88.477043 167.991547,86.970444 
	C164.599686,80.690178 161.309784,74.354851 157.885437,67.718491 
	C158.018127,66.407845 158.247833,65.418427 158.764877,64.177856 
z"/>
<path fill="#F57840" opacity="1.000000" stroke="none" 
	d="
M114.023392,115.988403 
	C114.769211,118.121887 115.515030,120.255371 116.130356,122.697678 
	C111.762520,119.207588 107.525185,115.408691 103.138382,111.311295 
	C105.109047,105.936676 108.944405,108.703651 112.641586,109.414474 
	C113.142860,110.381920 113.239876,110.925140 113.336891,111.468361 
	C113.336891,111.468361 113.333931,111.771774 113.041527,111.958450 
	C112.672997,112.255707 112.510773,112.436142 112.534668,112.465607 
	C112.694168,112.662224 112.893394,112.826630 113.079720,113.001495 
	C113.079720,113.001495 113.258919,113.274948 113.268936,113.735977 
	C113.586937,114.409698 113.894928,114.622391 114.202919,114.835083 
	C114.202919,114.835083 114.205345,114.822617 114.136856,115.107941 
	C114.053368,115.591652 114.038376,115.790031 114.023392,115.988403 
z"/>
<path fill="#F37139" opacity="1.000000" stroke="none" 
	d="
M91.999924,99.964745 
	C89.037254,104.389351 84.668823,102.835602 80.338760,102.058250 
	C79.999153,101.279114 79.940681,101.082413 79.882210,100.885712 
	C79.914604,99.157089 79.947006,97.428459 80.249420,95.230492 
	C81.706734,94.144592 82.894043,93.528038 84.360519,93.069473 
	C86.105576,94.451630 87.571457,95.675812 89.154747,97.189560 
	C90.181419,98.307663 91.090668,99.136200 91.999924,99.964745 
z"/>
<path fill="#F18C5F" opacity="1.000000" stroke="none" 
	d="
M94.268326,81.995560 
	C94.464676,79.915245 94.661026,77.834938 95.210358,75.119110 
	C95.478477,72.342705 95.393623,70.201828 95.308777,68.060944 
	C95.298836,67.303909 95.288902,66.546875 95.716522,65.416656 
	C96.994781,65.038002 97.835495,65.032532 98.676201,65.027061 
	C98.782845,66.408905 98.889496,67.790756 98.734283,69.786240 
	C98.653267,71.266975 98.834099,72.134064 99.014938,73.001160 
	C99.357307,77.351158 99.699677,81.701164 99.684738,86.460930 
	C97.913986,85.591011 96.500542,84.311325 94.990662,82.827972 
	C94.749626,82.350960 94.541000,82.141373 94.268326,81.995560 
z"/>
<path fill="#F59266" opacity="1.000000" stroke="none" 
	d="
M109.043289,93.034248 
	C111.073784,91.094749 113.237206,89.612099 116.601837,91.203979 
	C116.991943,91.644890 117.000389,91.827705 117.008827,92.010513 
	C116.975441,92.361015 116.814774,92.637581 116.062729,93.033646 
	C115.409897,93.504997 115.221161,93.782913 115.032425,94.060829 
	C115.032425,94.060829 115.021683,93.994148 114.665085,94.048660 
	C113.549789,94.998055 112.751846,95.863037 112.041687,96.794922 
	C110.998291,98.164101 110.017601,99.581070 108.622574,100.982147 
	C106.498192,100.326347 104.761452,99.666077 103.166092,98.710770 
	C105.219421,96.621902 107.131355,94.828072 109.043289,93.034248 
z"/>
<path fill="#F3763B" opacity="1.000000" stroke="none" 
	d="
M108.998138,92.679001 
	C107.131355,94.828072 105.219421,96.621902 102.911270,98.709274 
	C102.345367,99.005409 102.175690,99.007988 102.006004,99.010559 
	C101.005119,96.282036 100.004234,93.553520 99.304260,90.389427 
	C100.072258,89.620117 100.539345,89.286377 101.375763,88.969498 
	C102.481750,89.048019 103.218422,89.109680 104.068817,89.302254 
	C104.469681,89.349907 104.756821,89.266655 105.250168,89.083664 
	C105.727242,88.815887 105.912285,88.580437 106.011513,88.277557 
	C106.011513,88.277557 106.381104,87.941940 106.621628,87.877960 
	C107.559105,89.317238 108.256050,90.820496 108.998138,92.679001 
z"/>
<path fill="#F0966E" opacity="1.000000" stroke="none" 
	d="
M95.293686,146.331818 
	C96.268433,142.147934 97.262459,138.394623 97.959702,134.586960 
	C98.630096,130.925949 98.993317,127.208687 99.804512,123.278404 
	C99.328217,132.852234 99.850288,142.841904 97.342377,152.420059 
	C96.737564,152.392822 96.132744,152.365601 95.527924,152.338364 
	C95.413017,150.471786 95.298111,148.605194 95.293686,146.331818 
z"/>
<path fill="#F2824E" opacity="1.000000" stroke="none" 
	d="
M101.006424,88.952637 
	C100.539345,89.286377 100.072258,89.620117 99.303802,89.978752 
	C98.352303,90.215256 97.342209,90.236069 97.112045,90.670288 
	C95.871284,93.011017 94.824089,95.454338 93.346695,97.574265 
	C92.317451,96.525406 91.651642,95.764572 90.991501,94.603607 
	C91.000694,93.136932 91.004227,92.070389 91.396652,90.991180 
	C92.499207,89.599434 93.212860,88.220345 93.926514,86.841255 
	C93.926514,86.841255 93.918068,86.412514 94.235474,86.000381 
	C94.730957,84.736046 94.909027,83.883842 95.087097,83.031639 
	C96.500542,84.311325 97.913986,85.591011 99.686104,86.917603 
	C100.044777,86.964508 100.011223,86.979149 100.120407,87.208771 
	C100.534187,87.593506 100.838791,87.748611 101.143387,87.903717 
	C101.143387,87.903717 101.050774,87.877274 101.049774,88.132896 
	C101.034653,88.576561 101.020538,88.764595 101.006424,88.952637 
z"/>
<path fill="#E57F4B" opacity="1.000000" stroke="none" 
	d="
M127.992989,36.998665 
	C128.241791,38.129673 128.490585,39.260681 128.881226,40.716282 
	C122.362221,37.933311 115.701363,34.825748 109.218918,31.350971 
	C109.923042,30.693153 110.448769,30.402552 110.974495,30.111950 
	C111.416718,30.129356 111.858940,30.146765 112.724892,30.570671 
	C118.096741,32.984333 123.044868,34.991497 127.992989,36.998665 
z"/>
<path fill="#F27F49" opacity="1.000000" stroke="none" 
	d="
M84.081352,92.911491 
	C82.894043,93.528038 81.706734,94.144592 80.207130,94.900665 
	C77.301376,92.317841 74.707916,89.595505 71.956345,86.586380 
	C73.319786,85.768410 74.841354,85.237221 76.834244,85.145721 
	C79.564171,88.027435 81.822762,90.469460 84.081352,92.911491 
z"/>
<path fill="#F38656" opacity="1.000000" stroke="none" 
	d="
M73.022522,133.017349 
	C70.242424,129.761993 70.947533,126.842873 74.914978,125.177750 
	C76.391624,124.558006 77.866882,123.934975 79.694901,123.487747 
	C80.363678,124.741379 80.680321,125.820694 80.981918,127.160629 
	C80.964912,127.595284 80.962967,127.769310 80.961029,127.943336 
	C80.961029,127.943336 80.997345,128.000076 80.675049,128.009018 
	C79.915771,128.375336 79.478798,128.732712 79.041832,129.090103 
	C79.041832,129.090103 79.053200,129.007431 78.717834,129.028442 
	C77.607277,130.072098 76.832077,131.094742 76.056870,132.117386 
	C75.956474,132.431396 75.765373,132.673965 74.927353,132.917786 
	C73.921593,132.999435 73.472054,133.008392 73.022522,133.017349 
z"/>
<path fill="#EB9B79" opacity="1.000000" stroke="none" 
	d="
M52.020279,153.018295 
	C46.938480,157.304565 41.856682,161.590820 36.306274,165.841522 
	C35.837666,165.805969 35.492382,165.456726 35.492386,165.456726 
	C37.742149,162.676636 39.991917,159.896545 42.691803,157.171555 
	C44.415825,156.491577 45.689724,155.756516 47.145691,154.928467 
	C47.397980,154.719391 47.555355,154.558472 47.522820,154.495193 
	C47.403385,154.262848 47.220894,154.062927 47.012154,153.581070 
	C46.891731,153.142578 46.821289,152.973801 46.750843,152.805008 
	C46.750843,152.805008 46.850651,152.952911 47.176979,152.961136 
	C47.986069,152.987228 48.468830,153.005081 49.305153,153.011398 
	C50.352303,152.912903 51.045895,152.825928 51.809589,152.808899 
	C51.879688,152.878830 52.020275,153.018295 52.020279,153.018295 
z"/>
<path fill="#EF966D" opacity="1.000000" stroke="none" 
	d="
M128.367828,37.006050 
	C123.044868,34.991497 118.096741,32.984333 113.048149,30.646465 
	C119.911034,32.499485 126.874397,34.683208 134.036407,37.111294 
	C132.155090,41.240589 130.629959,36.220680 128.367828,37.006050 
z"/>
<path fill="#F2844F" opacity="1.000000" stroke="none" 
	d="
M115.997200,105.032227 
	C115.997200,105.032227 115.998253,104.562279 115.998314,104.327332 
	C119.999474,104.012352 124.000580,103.932327 128.779755,103.993866 
	C131.366531,104.412514 133.175232,104.689606 135.279587,105.004478 
	C136.031967,105.588074 136.488693,106.133888 136.945404,106.679695 
	C135.570297,106.777771 134.195175,106.875847 132.095764,106.673553 
	C128.304489,106.261093 125.230103,106.243591 122.173126,106.003967 
	C120.101822,105.841614 118.054985,105.367119 115.997200,105.032227 
z"/>
<path fill="#F48452" opacity="1.000000" stroke="none" 
	d="
M78.969711,103.991905 
	C79.135727,104.874489 79.301735,105.757065 78.916893,106.530235 
	C71.909729,105.990852 65.453407,105.560883 58.988083,104.818153 
	C59.002026,104.090492 59.024982,103.675591 59.047939,103.260689 
	C59.786137,103.186455 60.524330,103.112221 61.940659,103.327347 
	C66.104568,103.228142 69.590347,102.839577 73.076118,102.451012 
	C73.485840,102.373978 73.895561,102.296951 74.722733,102.590538 
	C76.416695,103.304741 77.693199,103.648323 78.969711,103.991905 
z"/>
<path fill="#F27E47" opacity="1.000000" stroke="none" 
	d="
M80.996964,126.900009 
	C80.680321,125.820694 80.363678,124.741379 80.008652,123.322937 
	C81.114799,121.745575 82.259323,120.507347 84.055206,119.137772 
	C86.149734,119.699432 87.592911,120.392441 89.036095,121.085449 
	C86.872841,122.935646 84.709587,124.785858 82.014969,126.779953 
	C81.483597,126.923836 80.996964,126.900009 80.996964,126.900009 
z"/>
<path fill="#EF8556" opacity="1.000000" stroke="none" 
	d="
M64.576797,132.037811 
	C65.681786,132.368500 66.537231,132.831329 67.392677,133.294159 
	C67.915169,133.916168 68.437668,134.538162 68.960159,135.160156 
	C66.412743,136.910461 63.865330,138.660767 61.166306,140.712891 
	C61.014702,141.014725 61.023087,141.029724 60.731636,141.151794 
	C59.293015,142.193146 58.145840,143.112411 56.881401,143.759720 
	C56.492699,142.961685 56.221260,142.435623 55.949821,141.909546 
	C56.001278,141.593674 56.150509,141.334000 56.868004,140.945770 
	C57.528854,140.455414 57.719215,140.149826 57.909573,139.844238 
	C57.909573,139.844238 57.929565,139.932571 58.145664,139.837738 
	C58.537582,139.438248 58.713406,139.133606 58.889229,138.828964 
	C58.889225,138.828964 58.913956,138.920975 59.130386,138.822784 
	C59.501255,138.407425 59.655689,138.090271 59.810120,137.773102 
	C59.810116,137.773102 59.832966,137.886765 60.077454,137.783142 
	C60.559811,137.154938 60.797684,136.630356 61.035553,136.105774 
	C61.214241,135.818359 61.392925,135.530960 62.024487,135.011475 
	C62.646008,134.497910 62.814655,134.216415 62.983307,133.934921 
	C63.431290,133.346603 63.879276,132.758286 64.576797,132.037811 
z"/>
<path fill="#E39B7A" opacity="1.000000" stroke="none" 
	d="
M98.767288,64.591217 
	C97.835495,65.032532 96.994781,65.038002 95.843170,65.058060 
	C95.532272,61.170368 95.532272,57.268089 95.532272,53.365807 
	C96.266983,53.297207 97.001686,53.228607 97.736397,53.160007 
	C98.110382,56.825130 98.484375,60.490250 98.767288,64.591217 
z"/>
<path fill="#EAA07C" opacity="1.000000" stroke="none" 
	d="
M58.997093,105.130913 
	C65.453407,105.560883 71.909729,105.990852 78.658768,106.708282 
	C78.997246,107.343384 79.043007,107.691032 79.112259,108.297302 
	C72.702393,108.003311 66.269035,107.450691 59.411110,106.530983 
	C58.990055,105.819565 58.993572,105.475243 58.997093,105.130913 
z"/>
<path fill="#F88754" opacity="1.000000" stroke="none" 
	d="
M101.967422,99.371033 
	C102.175690,99.007988 102.345367,99.005409 102.769882,99.004318 
	C104.761452,99.666077 106.498192,100.326347 108.844467,101.253517 
	C111.225761,102.001694 112.997536,102.482964 114.769310,102.964241 
	C114.865913,103.110840 114.962517,103.257446 115.151077,103.650833 
	C111.338318,103.622200 107.410782,103.500488 103.550186,102.927689 
	C102.866707,102.826279 102.462181,100.844810 101.967422,99.371033 
z"/>
<path fill="#F37139" opacity="1.000000" stroke="none" 
	d="
M89.193474,121.144836 
	C87.592911,120.392441 86.149734,119.699432 84.343079,119.002281 
	C83.988174,118.551949 83.996758,118.105751 84.294273,117.189568 
	C85.393082,115.818466 86.202950,114.917358 87.259552,114.015289 
	C87.506294,114.014328 87.999741,114.008873 88.141953,114.323418 
	C89.857338,116.425026 91.430504,118.212090 93.003662,119.999161 
	C93.001846,120.166161 93.000023,120.333168 92.583908,120.752518 
	C91.341934,121.064087 90.514259,121.123306 89.686577,121.182526 
	C89.686577,121.182526 89.350853,121.204216 89.193474,121.144836 
z"/>
<path fill="#E97F51" opacity="1.000000" stroke="none" 
	d="
M59.955112,64.525314 
	C59.446331,65.027519 58.382710,65.617767 58.170467,65.395393 
	C54.979137,62.051857 51.899860,58.601364 49.027542,54.989128 
	C52.772640,57.946632 56.284451,61.091011 59.955112,64.525314 
z"/>
<path fill="#E2946F" opacity="1.000000" stroke="none" 
	d="
M137.375916,106.763298 
	C136.488693,106.133888 136.031967,105.588074 135.297531,104.657745 
	C135.011749,104.041687 135.003693,103.810150 134.995636,103.578606 
	C138.385056,103.729866 141.774475,103.881126 145.702148,104.326401 
	C146.494659,105.082535 146.748947,105.544655 147.003220,106.006775 
	C143.937622,106.286819 140.872009,106.566856 137.375916,106.763298 
z"/>
<path fill="#E2946F" opacity="1.000000" stroke="none" 
	d="
M115.724823,105.233917 
	C118.054985,105.367119 120.101822,105.841614 122.173126,106.003967 
	C125.230103,106.243591 128.304489,106.261093 131.682373,106.635223 
	C126.659889,107.297844 121.326485,107.698418 115.535233,108.093369 
	C115.202415,107.203705 115.327431,106.319656 115.724823,105.233917 
z"/>
<path fill="#E89873" opacity="1.000000" stroke="none" 
	d="
M58.988083,104.818153 
	C58.993572,105.475243 58.990055,105.819565 58.983894,106.421867 
	C56.906078,106.514915 54.830902,106.349991 52.330555,105.760872 
	C51.021725,104.905319 50.138069,104.473946 49.254410,104.042572 
	C52.227169,103.721771 55.199924,103.400970 58.610313,103.170425 
	C59.024982,103.675591 59.002026,104.090492 58.988083,104.818153 
z"/>
<path fill="#EB9B79" opacity="1.000000" stroke="none" 
	d="
M61.094696,145.095505 
	C58.276073,147.651566 55.457455,150.207611 52.329552,152.890991 
	C52.020275,153.018295 51.879688,152.878830 51.889832,152.476807 
	C51.957638,151.386093 52.015308,150.697403 52.343124,149.874573 
	C53.421619,148.857422 54.229965,147.974380 55.249924,146.958603 
	C55.732697,146.613800 55.918003,146.342972 56.048733,145.770676 
	C56.080006,145.527954 56.173878,145.047577 56.368168,145.043121 
	C56.562458,145.038681 56.950184,145.011383 57.343033,145.010956 
	C58.769108,144.951996 59.802334,144.893463 60.900360,144.900055 
	C60.965157,144.965195 61.094696,145.095505 61.094696,145.095505 
z"/>
<path fill="#E48A67" opacity="1.000000" stroke="none" 
	d="
M55.038307,147.091324 
	C54.229965,147.974380 53.421619,148.857422 51.970345,149.867462 
	C50.590054,150.034576 49.852688,150.074707 49.062344,150.063873 
	C49.009365,150.012939 48.902321,149.912186 48.902321,149.912186 
	C51.058647,147.354965 53.214977,144.797760 55.660568,142.075043 
	C56.221260,142.435623 56.492699,142.961685 56.872314,144.004608 
	C56.980492,144.521454 56.950184,145.011383 56.950184,145.011383 
	C56.950184,145.011383 56.562458,145.038681 56.105301,145.117432 
	C55.432514,145.475174 55.216885,145.754135 55.003223,146.297913 
	C55.016232,146.738922 55.027271,146.915131 55.038307,147.091324 
z"/>
<path fill="#EF966D" opacity="1.000000" stroke="none" 
	d="
M145.698029,43.770119 
	C141.240540,44.238827 137.742889,42.317310 135.129318,38.144676 
	C138.522095,39.693539 142.038437,41.582676 145.698029,43.770119 
z"/>
<path fill="#F29065" opacity="1.000000" stroke="none" 
	d="
M114.811455,102.614120 
	C112.997536,102.482964 111.225761,102.001694 109.232094,101.249054 
	C110.017601,99.581070 110.998291,98.164101 112.041687,96.794922 
	C112.751846,95.863037 113.549789,94.998055 114.686295,94.074982 
	C112.665215,96.726204 114.000557,99.501282 114.811455,102.614120 
z"/>
<path fill="#EF966D" opacity="1.000000" stroke="none" 
	d="
M154.129074,50.620659 
	C152.090439,49.518101 150.066208,48.090599 148.063843,46.277889 
	C150.704697,46.373840 153.323685,46.855000 155.877167,47.324127 
	C155.521072,47.934486 154.832275,49.115097 154.129074,50.620659 
z"/>
<path fill="#F0966E" opacity="1.000000" stroke="none" 
	d="
M101.480614,122.168236 
	C104.759102,118.468842 106.733940,118.940926 109.962357,124.646362 
	C107.288681,124.067093 104.584465,123.120270 101.480614,122.168236 
z"/>
<path fill="#F29065" opacity="1.000000" stroke="none" 
	d="
M117.305389,91.863037 
	C117.000389,91.827705 116.991943,91.644890 116.956909,91.187897 
	C116.950455,90.488457 116.970589,90.063217 117.263123,89.129135 
	C118.023262,87.424515 118.510994,86.228737 118.998718,85.032959 
	C120.079636,85.023369 121.160553,85.013771 122.646942,85.021988 
	C121.235603,87.265060 119.418785,89.490318 117.305389,91.863037 
z"/>
<path fill="#E89873" opacity="1.000000" stroke="none" 
	d="
M72.648193,102.324646 
	C69.590347,102.839577 66.104568,103.228142 62.311428,103.359001 
	C65.409462,102.800301 68.814865,102.499298 72.648193,102.324646 
z"/>
<path fill="#EF966D" opacity="1.000000" stroke="none" 
	d="
M110.761169,29.796597 
	C110.448769,30.402552 109.923042,30.693153 109.084625,31.024240 
	C106.947128,30.736961 105.122330,30.409197 103.297531,30.081434 
	C103.468857,29.435581 103.640182,28.789730 103.811508,28.143877 
	C106.056953,28.589666 108.302399,29.035456 110.761169,29.796597 
z"/>
<path fill="#F18C5F" opacity="1.000000" stroke="none" 
	d="
M93.560654,86.974762 
	C93.212860,88.220345 92.499207,89.599434 91.199715,90.734070 
	C89.398880,89.670448 88.183884,88.851288 87.002441,87.996483 
	C87.035988,87.960838 87.102318,87.888840 87.102318,87.888840 
	C89.133148,87.628647 91.163979,87.368462 93.560654,86.974762 
z"/>
<path fill="#F29974" opacity="1.000000" stroke="none" 
	d="
M81.660873,110.009468 
	C81.878090,112.797890 82.968857,116.147301 78.288414,116.935852 
	C78.600670,114.888901 79.301048,112.822990 80.029320,110.365547 
	C80.484909,109.982063 80.912590,109.990112 81.660873,110.009468 
z"/>
<path fill="#EB9B79" opacity="1.000000" stroke="none" 
	d="
M61.027409,141.020935 
	C62.153172,141.042068 63.266232,141.056976 64.795769,141.148895 
	C64.051102,142.460587 62.889954,143.695282 61.411751,145.012741 
	C61.094696,145.095505 60.965157,144.965195 60.955971,144.525482 
	C60.972218,143.067093 60.997650,142.048401 61.023087,141.029724 
	C61.023087,141.029724 61.014702,141.014725 61.027409,141.020935 
z"/>
<path fill="#E48A67" opacity="1.000000" stroke="none" 
	d="
M46.441017,152.860046 
	C46.821289,152.973801 46.891731,153.142578 46.982212,153.874115 
	C46.989380,154.631729 46.976505,154.826584 46.963623,155.021454 
	C45.689724,155.756516 44.415825,156.491577 42.983528,156.991394 
	C43.927151,155.475769 45.029171,154.195419 46.441017,152.860046 
z"/>
<path fill="#E6A78C" opacity="1.000000" stroke="none" 
	d="
M134.701431,103.385345 
	C135.003693,103.810150 135.011749,104.041687 135.001862,104.619957 
	C133.175232,104.689606 131.366531,104.412514 129.198578,103.959648 
	C130.695282,103.586617 132.551254,103.389351 134.701431,103.385345 
z"/>
<path fill="#F0966E" opacity="1.000000" stroke="none" 
	d="
M112.223358,127.261551 
	C113.711914,128.102859 115.312637,129.249390 116.915695,130.750519 
	C115.390526,129.925659 113.863022,128.746231 112.223358,127.261551 
z"/>
<path fill="#E89873" opacity="1.000000" stroke="none" 
	d="
M78.994751,103.697571 
	C77.693199,103.648323 76.416695,103.304741 75.034134,102.636581 
	C76.359390,101.943726 77.790680,101.575455 79.552094,101.046448 
	C79.940681,101.082413 79.999153,101.279114 80.050476,101.784256 
	C79.702141,102.529533 79.360962,102.966377 78.994751,103.697571 
z"/>
<path fill="#EAA07C" opacity="1.000000" stroke="none" 
	d="
M48.902718,104.087395 
	C50.138069,104.473946 51.021725,104.905319 51.952854,105.668045 
	C50.551193,105.899673 49.102058,105.799950 47.652924,105.700226 
	C47.952286,105.177551 48.251652,104.654884 48.902718,104.087395 
z"/>
<path fill="#E39B7A" opacity="1.000000" stroke="none" 
	d="
M95.195053,68.425224 
	C95.393623,70.201828 95.478477,72.342705 95.288307,74.734039 
	C95.035957,72.919495 95.058640,70.854500 95.195053,68.425224 
z"/>
<path fill="#E6A78C" opacity="1.000000" stroke="none" 
	d="
M147.378265,106.053642 
	C146.748947,105.544655 146.494659,105.082535 146.117584,104.385910 
	C147.706787,104.437904 149.418793,104.724419 151.130798,105.010925 
	C151.137146,105.261322 151.143494,105.511719 151.149841,105.762115 
	C150.017654,105.874916 148.885483,105.987709 147.378265,106.053642 
z"/>
<path fill="#EB9B79" opacity="1.000000" stroke="none" 
	d="
M76.370560,132.035889 
	C76.832077,131.094742 77.607277,130.072098 78.737579,129.065201 
	C78.289871,130.038773 77.487061,130.996582 76.370560,132.035889 
z"/>
<path fill="#F18C5F" opacity="1.000000" stroke="none" 
	d="
M101.375755,88.969498 
	C101.020538,88.764595 101.034653,88.576561 101.090996,88.108002 
	C102.485825,87.962341 103.838425,88.097198 105.601273,88.254807 
	C105.912285,88.580437 105.727242,88.815887 104.978210,89.055367 
	C104.318390,89.141655 104.136742,89.156502 103.955086,89.171341 
	C103.218422,89.109680 102.481750,89.048019 101.375755,88.969498 
z"/>
<path fill="#E48A67" opacity="1.000000" stroke="none" 
	d="
M48.951591,153.022949 
	C48.468830,153.005081 47.986069,152.987228 47.148621,152.876556 
	C47.317451,151.932648 47.840965,151.081558 48.633400,150.071320 
	C48.902321,149.912186 49.009365,150.012939 49.020931,150.424103 
	C49.005527,151.564484 48.978561,152.293716 48.951591,153.022949 
z"/>
<path fill="#E39B7A" opacity="1.000000" stroke="none" 
	d="
M94.990662,82.827972 
	C94.909027,83.883842 94.730957,84.736046 94.296906,85.794968 
	C94.039665,84.925514 94.038399,83.849342 94.152725,82.384369 
	C94.541000,82.141373 94.749626,82.350960 94.990662,82.827972 
z"/>
<path fill="#EB9B79" opacity="1.000000" stroke="none" 
	d="
M69.355011,138.013062 
	C69.539146,137.430557 70.022446,136.783646 70.850708,136.161285 
	C70.681839,136.773453 70.168007,137.361069 69.355011,138.013062 
z"/>
<path fill="#F0966E" opacity="1.000000" stroke="none" 
	d="
M119.106461,133.267715 
	C119.648674,133.400787 120.292755,133.803818 120.988831,134.510925 
	C120.429985,134.389221 119.819153,133.963440 119.106461,133.267715 
z"/>
<path fill="#F28F63" opacity="1.000000" stroke="none" 
	d="
M83.968857,85.035309 
	C84.593811,85.485626 85.218773,85.935944 85.927498,86.693787 
	C86.011269,87.001312 85.967850,87.063568 85.655701,87.003571 
	C84.870247,86.322121 84.396950,85.700684 83.934769,85.067902 
	C83.945877,85.056557 83.968857,85.035309 83.968857,85.035309 
z"/>
<path fill="#E39B7A" opacity="1.000000" stroke="none" 
	d="
M99.067520,72.627060 
	C98.834099,72.134064 98.653267,71.266975 98.701225,70.202484 
	C98.993378,70.754379 99.056740,71.503662 99.067520,72.627060 
z"/>
<path fill="#F38A5A" opacity="1.000000" stroke="none" 
	d="
M89.893715,121.471115 
	C90.514259,121.123306 91.341934,121.064087 92.584030,121.003044 
	C92.983017,121.200424 92.967590,121.399628 92.902351,121.895416 
	C91.935318,122.047905 91.018082,121.903801 89.893715,121.471115 
z"/>
<path fill="#E48A67" opacity="1.000000" stroke="none" 
	d="
M60.773087,136.222443 
	C60.797684,136.630356 60.559811,137.154938 60.028049,137.752823 
	C59.992977,137.330460 60.251793,136.834778 60.773087,136.222443 
z"/>
<path fill="#EB9B79" opacity="1.000000" stroke="none" 
	d="
M73.047729,133.362488 
	C73.472054,133.008392 73.921593,132.999435 74.708511,133.005157 
	C74.628151,133.425476 74.210411,133.831131 73.504654,134.310730 
	C73.168732,134.158997 73.120834,133.933319 73.047729,133.362488 
z"/>
<path fill="#EB9B79" opacity="1.000000" stroke="none" 
	d="
M65.441696,141.187042 
	C65.550079,140.820923 65.951309,140.421188 66.659363,139.999619 
	C66.555641,140.369659 66.145096,140.761536 65.441696,141.187042 
z"/>
<path fill="#EB9B79" opacity="1.000000" stroke="none" 
	d="
M79.345772,129.112518 
	C79.478798,128.732712 79.915771,128.375336 80.647858,127.989090 
	C80.511879,128.351791 80.080795,128.743347 79.345772,129.112518 
z"/>
<path fill="#EB9B79" opacity="1.000000" stroke="none" 
	d="
M35.996853,165.992950 
	C35.632542,166.369156 35.109043,166.558395 34.585548,166.747650 
	C34.728043,166.398682 34.870544,166.049744 35.252716,165.578766 
	C35.492382,165.456726 35.837666,165.805969 35.996853,165.992950 
z"/>
<path fill="#F29974" opacity="1.000000" stroke="none" 
	d="
M74.795456,120.236450 
	C74.826080,120.646492 74.590080,121.168549 74.066315,121.775620 
	C74.028648,121.356560 74.278740,120.852509 74.795456,120.236450 
z"/>
<path fill="#E2946F" opacity="1.000000" stroke="none" 
	d="
M113.564728,111.237076 
	C113.239876,110.925140 113.142860,110.381920 113.043900,109.425301 
	C113.227448,109.024147 113.412949,109.036385 113.874863,109.089447 
	C114.031708,109.755440 113.912132,110.380608 113.564728,111.237076 
z"/>
<path fill="#EF8555" opacity="1.000000" stroke="none" 
	d="
M124.245461,83.820084 
	C124.205719,83.398804 124.437325,82.854904 124.968918,82.228676 
	C125.018196,82.663399 124.767502,83.180435 124.245461,83.820084 
z"/>
<path fill="#F28F63" opacity="1.000000" stroke="none" 
	d="
M82.254608,83.705078 
	C82.811073,83.904594 83.278938,84.209564 83.857826,84.774918 
	C83.968857,85.035309 83.945877,85.056557 83.647583,85.020996 
	C82.894943,84.663383 82.440590,84.341316 81.986237,84.019257 
	C81.986237,84.019257 82.166008,83.810532 82.254608,83.705078 
z"/>
<path fill="#F18C5F" opacity="1.000000" stroke="none" 
	d="
M108.815842,85.617203 
	C108.806267,85.967285 108.555962,86.373260 108.059311,86.831512 
	C108.067017,86.480225 108.321068,86.076653 108.815842,85.617203 
z"/>
<path fill="#E48A67" opacity="1.000000" stroke="none" 
	d="
M58.637753,138.922668 
	C58.713406,139.133606 58.537582,139.438248 58.101860,139.826248 
	C58.023396,139.611862 58.204838,139.314117 58.637753,138.922668 
z"/>
<path fill="#EB9B79" opacity="1.000000" stroke="none" 
	d="
M67.232826,139.903259 
	C67.078018,139.632172 67.269043,139.371902 67.789291,139.096832 
	C67.840164,139.287140 67.660217,139.564499 67.232826,139.903259 
z"/>
<path fill="#E48A67" opacity="1.000000" stroke="none" 
	d="
M57.651489,139.936829 
	C57.719215,140.149826 57.528854,140.455414 57.074707,140.848206 
	C57.005085,140.633408 57.199245,140.331421 57.651489,139.936829 
z"/>
<path fill="#E2946F" opacity="1.000000" stroke="none" 
	d="
M114.329605,109.015938 
	C114.263672,108.829605 114.420334,108.526817 114.829620,108.144234 
	C114.905563,108.342781 114.728889,108.621132 114.329605,109.015938 
z"/>
<path fill="#F29065" opacity="1.000000" stroke="none" 
	d="
M123.277420,84.969910 
	C123.200417,84.771957 123.369507,84.491058 123.767365,84.106735 
	C123.838600,84.297859 123.681061,84.592407 123.277420,84.969910 
z"/>
<path fill="#F0966E" opacity="1.000000" stroke="none" 
	d="
M95.036697,141.248749 
	C95.194000,141.264343 95.306496,141.532822 95.272171,141.899460 
	C95.080864,141.832291 95.036369,141.666946 95.036697,141.248749 
z"/>
<path fill="#EF966D" opacity="1.000000" stroke="none" 
	d="
M148.007263,45.689808 
	C147.809540,45.782013 147.517639,45.630627 147.108826,45.256126 
	C147.298981,45.170750 147.606033,45.308487 148.007263,45.689808 
z"/>
<path fill="#F18C5F" opacity="1.000000" stroke="none" 
	d="
M86.032005,86.969528 
	C86.343834,87.096405 86.634926,87.255066 87.014168,87.651283 
	C87.102318,87.888840 87.035988,87.960838 86.793564,87.882385 
	C86.289497,87.610107 86.095062,87.363319 85.967850,87.063568 
	C85.967850,87.063568 86.011269,87.001312 86.032005,86.969528 
z"/>
<path fill="#F18C5F" opacity="1.000000" stroke="none" 
	d="
M101.018051,87.682968 
	C100.838791,87.748611 100.534187,87.593506 100.127747,87.195297 
	C100.314842,87.122200 100.603783,87.292213 101.018051,87.682968 
z"/>
<path fill="#F18C5F" opacity="1.000000" stroke="none" 
	d="
M107.624863,86.893188 
	C107.695663,87.125656 107.503143,87.422409 107.037384,87.765366 
	C106.963280,87.526871 107.162415,87.242165 107.624863,86.893188 
z"/>
<path fill="#F29065" opacity="1.000000" stroke="none" 
	d="
M115.280716,93.977051 
	C115.221161,93.782913 115.409897,93.504997 115.834061,93.124847 
	C115.889320,93.312828 115.709160,93.603058 115.280716,93.977051 
z"/>
<path fill="#F29974" opacity="1.000000" stroke="none" 
	d="
M73.592506,121.898163 
	C73.653519,122.126808 73.448380,122.441132 72.954468,122.812378 
	C72.885918,122.574135 73.106133,122.278992 73.592506,121.898163 
z"/>
<path fill="#E2946F" opacity="1.000000" stroke="none" 
	d="
M114.310631,115.964752 
	C114.038376,115.790031 114.053368,115.591652 114.147461,115.104507 
	C114.585632,114.858261 114.850349,115.039001 115.092361,115.595428 
	C114.975319,115.868965 114.786598,115.905037 114.310631,115.964752 
z"/>
<path fill="#F0966E" opacity="1.000000" stroke="none" 
	d="
M100.302612,122.999306 
	C100.252373,122.813477 100.435440,122.522514 100.875603,122.161057 
	C100.933769,122.358429 100.734848,122.626305 100.302612,122.999306 
z"/>
<path fill="#F29974" opacity="1.000000" stroke="none" 
	d="
M71.637207,123.840385 
	C71.709869,124.041481 71.538315,124.383728 71.089005,124.829285 
	C71.005165,124.615578 71.199081,124.298561 71.637207,123.840385 
z"/>
<path fill="#EF9870" opacity="1.000000" stroke="none" 
	d="
M123.945145,125.734787 
	C123.738396,125.782333 123.467041,125.574638 123.127350,125.112953 
	C123.332855,125.065819 123.606697,125.272682 123.945145,125.734787 
z"/>
<path fill="#F29974" opacity="1.000000" stroke="none" 
	d="
M75.769684,119.102974 
	C75.932571,119.337837 75.773453,119.597382 75.324570,119.917496 
	C75.101318,119.671486 75.238945,119.388016 75.769684,119.102974 
z"/>
<path fill="#EB9B79" opacity="1.000000" stroke="none" 
	d="
M80.981918,127.160629 
	C80.996964,126.900009 81.483597,126.923836 81.725883,126.949142 
	C81.793091,127.249588 81.618011,127.524734 81.201981,127.871613 
	C80.962967,127.769310 80.964912,127.595284 80.981918,127.160629 
z"/>
<path fill="#E2946F" opacity="1.000000" stroke="none" 
	d="
M116.093414,116.673508 
	C115.885330,116.741409 115.576469,116.557388 115.189453,116.105591 
	C115.405075,116.032410 115.698853,116.226997 116.093414,116.673508 
z"/>
<path fill="#F29065" opacity="1.000000" stroke="none" 
	d="
M113.782158,81.318222 
	C113.898575,81.535042 113.744041,81.733521 113.349724,81.961975 
	C113.182938,81.739159 113.316696,81.508469 113.782158,81.318222 
z"/>
<path fill="#EB9B79" opacity="1.000000" stroke="none" 
	d="
M68.260246,138.950592 
	C68.203041,138.748917 68.396744,138.478088 68.832413,138.124939 
	C68.886635,138.322235 68.698898,138.601822 68.260246,138.950592 
z"/>
<path fill="#F0966E" opacity="1.000000" stroke="none" 
	d="
M117.736610,130.995270 
	C118.002457,131.165833 118.003357,131.342758 117.988693,131.785950 
	C117.670975,131.889740 117.368805,131.727280 117.005150,131.306519 
	C117.119667,131.032700 117.295662,131.017166 117.736610,130.995270 
z"/>
<path fill="#E2946F" opacity="1.000000" stroke="none" 
	d="
M114.134125,114.573395 
	C113.894928,114.622391 113.586937,114.409698 113.275070,113.899330 
	C113.535904,113.838333 113.800613,114.075020 114.134125,114.573395 
z"/>
<path fill="#EF8555" opacity="1.000000" stroke="none" 
	d="
M125.440170,82.166809 
	C125.329735,81.912964 125.495186,81.591675 125.933372,81.193993 
	C126.042755,81.444855 125.879410,81.772118 125.440170,82.166809 
z"/>
<path fill="#F48453" opacity="1.000000" stroke="none" 
	d="
M113.132446,112.752098 
	C112.893394,112.826630 112.694168,112.662224 112.534668,112.465607 
	C112.510773,112.436142 112.672997,112.255707 112.939270,112.070526 
	C113.148003,112.164864 113.166588,112.333778 113.132446,112.752098 
z"/>
<path fill="#E48A67" opacity="1.000000" stroke="none" 
	d="
M62.748268,134.036591 
	C62.814655,134.216415 62.646008,134.497910 62.254860,134.894318 
	C62.192650,134.718887 62.352940,134.428574 62.748268,134.036591 
z"/>
<path fill="#EB9B79" opacity="1.000000" stroke="none" 
	d="
M71.405731,136.081818 
	C71.329086,135.852737 71.524666,135.530640 72.002769,135.122406 
	C72.082855,135.353775 71.880402,135.671295 71.405731,136.081818 
z"/>
<path fill="#F0966E" opacity="1.000000" stroke="none" 
	d="
M121.763489,135.419510 
	C121.985191,135.359009 122.345360,135.559982 122.769470,136.078842 
	C122.522926,136.158157 122.212440,135.919556 121.763489,135.419510 
z"/>
<path fill="#E48A67" opacity="1.000000" stroke="none" 
	d="
M59.556625,137.864929 
	C59.655689,138.090271 59.501255,138.407425 59.084549,138.809814 
	C58.982563,138.582275 59.142845,138.269531 59.556625,137.864929 
z"/>
<path fill="#EB7946" opacity="1.000000" stroke="none" 
	d="
M156.610611,61.045509 
	C156.211777,61.289185 155.814285,61.287373 155.419098,61.256317 
	C155.407379,61.255394 155.419815,60.947117 155.420975,60.782150 
	C155.818085,60.786690 156.215179,60.791229 156.610611,61.045509 
z"/>
<path fill="#F27E47" opacity="1.000000" stroke="none" 
	d="
M93.392860,119.911713 
	C91.430504,118.212090 89.857338,116.425026 88.268967,114.047882 
	C88.837776,112.639641 89.421799,111.821487 90.302750,110.981415 
	C91.066757,110.640320 91.533844,110.321129 92.000938,110.001938 
	C95.523506,111.273705 96.166290,114.818466 93.392860,119.911713 
z"/>
<path fill="#F48452" opacity="1.000000" stroke="none" 
	d="
M91.985474,109.593597 
	C91.533844,110.321129 91.066757,110.640320 90.103607,110.727661 
	C88.071129,110.330917 86.534721,110.166031 84.998306,110.001144 
	C84.552788,109.999413 84.107262,109.997681 83.327499,109.990646 
	C83.783562,108.997917 84.690193,107.103691 85.343071,107.187447 
	C87.601212,107.477150 90.852463,105.151535 91.985474,109.593597 
z"/>
<path fill="#F18C5F" opacity="1.000000" stroke="none" 
	d="
M90.985840,95.003723 
	C91.651642,95.764572 92.317451,96.525406 92.989639,97.639542 
	C92.734955,98.480270 92.473892,98.967697 92.106369,99.709930 
	C91.090668,99.136200 90.181419,98.307663 89.272156,96.937790 
	C89.843369,95.932213 90.414604,95.467972 90.985840,95.003723 
z"/>
<path fill="#F59165" opacity="1.000000" stroke="none" 
	d="
M90.991501,94.603607 
	C90.414604,95.467972 89.843369,95.932213 89.154739,96.648232 
	C87.571457,95.675812 86.105576,94.451630 84.360519,93.069473 
	C81.822762,90.469460 79.564171,88.027435 77.158066,85.278915 
	C78.448517,84.630455 79.886475,84.288498 81.655334,83.982895 
	C82.440590,84.341316 82.894943,84.663383 83.636475,85.032341 
	C84.396950,85.700684 84.870247,86.322121 85.655701,87.003571 
	C86.095062,87.363319 86.289497,87.610107 86.760017,87.918030 
	C88.183884,88.851288 89.398880,89.670448 90.810814,90.746719 
	C91.004227,92.070389 91.000694,93.136932 90.991501,94.603607 
z"/>
<path fill="#E97F51" opacity="1.000000" stroke="none" 
	d="
M60.538071,67.550606 
	C60.477089,67.588013 60.599052,67.513199 60.538071,67.550606 
z"/>
<path fill="#F88B5B" opacity="1.000000" stroke="none" 
	d="
M84.998672,110.377747 
	C86.534721,110.166031 88.071129,110.330917 89.806686,110.749573 
	C89.421799,111.821487 88.837776,112.639641 88.126747,113.733337 
	C87.999741,114.008873 87.506294,114.014328 87.089622,113.769676 
	C86.115738,113.354698 85.558525,113.184380 85.001320,113.014053 
	C85.000557,112.260818 84.999794,111.507576 84.998672,110.377747 
z"/>
<path fill="#F29974" opacity="1.000000" stroke="none" 
	d="
M84.868996,113.293945 
	C85.558525,113.184380 86.115738,113.354698 86.842880,113.770638 
	C86.202950,114.917358 85.393082,115.818466 84.288712,116.854881 
	C84.241692,115.851402 84.489182,114.712624 84.868996,113.293945 
z"/>
<path fill="#F59266" opacity="1.000000" stroke="none" 
	d="
M118.627045,85.028954 
	C118.510994,86.228737 118.023262,87.424515 117.270287,88.809151 
	C116.384796,88.436546 115.764549,87.875084 115.144295,87.313622 
	C116.181320,86.550735 117.218346,85.787842 118.627045,85.028954 
z"/>
<path fill="#F2824E" opacity="1.000000" stroke="none" 
	d="
M104.068817,89.302246 
	C104.136742,89.156502 104.318390,89.141655 104.771988,89.155106 
	C104.756821,89.266655 104.469681,89.349907 104.068817,89.302246 
z"/>
<path fill="#EF8556" opacity="1.000000" stroke="none" 
	d="
M49.305153,153.011414 
	C48.978561,152.293716 49.005527,151.564484 49.073910,150.475037 
	C49.852688,150.074707 50.590054,150.034576 51.700199,150.001572 
	C52.015308,150.697403 51.957638,151.386093 51.819733,152.406876 
	C51.045895,152.825928 50.352303,152.912903 49.305153,153.011414 
z"/>
<path fill="#EF8556" opacity="1.000000" stroke="none" 
	d="
M47.145691,154.928467 
	C46.976505,154.826584 46.989380,154.631729 47.032188,154.143829 
	C47.220894,154.062927 47.403385,154.262848 47.522820,154.495193 
	C47.555355,154.558472 47.397980,154.719391 47.145691,154.928467 
z"/>
<path fill="#F48D5F" opacity="1.000000" stroke="none" 
	d="
M60.731636,141.151794 
	C60.997650,142.048401 60.972218,143.067093 60.891171,144.460358 
	C59.802334,144.893463 58.769108,144.951996 57.343033,145.010956 
	C56.950184,145.011383 56.980492,144.521454 56.989578,144.276566 
	C58.145840,143.112411 59.293015,142.193146 60.731636,141.151794 
z"/>
<path fill="#EF8556" opacity="1.000000" stroke="none" 
	d="
M55.001255,146.033112 
	C55.216885,145.754135 55.432514,145.475174 55.911011,145.121887 
	C56.173878,145.047577 56.080006,145.527954 55.794552,145.771545 
	C55.339817,146.021149 55.170536,146.027130 55.001255,146.033112 
z"/>
<path fill="#F48D5F" opacity="1.000000" stroke="none" 
	d="
M55.003223,146.297913 
	C55.170536,146.027130 55.339817,146.021149 55.763279,146.014282 
	C55.918003,146.342972 55.732697,146.613800 55.249924,146.958603 
	C55.027271,146.915131 55.016232,146.738922 55.003223,146.297913 
z"/>
</svg>