<svg version="1.1" id="Layer_1" xmlns="http://www.w3.org/2000/svg" xmlns:xlink="http://www.w3.org/1999/xlink" x="0px" y="0px"
	 width="100%" viewBox="0 0 512 512" enable-background="new 0 0 512 512" xml:space="preserve">
<path fill="#0052CC" opacity="1.000000" stroke="none" 
	d="
M1.000003,293.000000 
	C1.000000,269.312439 1.000000,245.624878 1.391356,221.630493 
	C2.185334,220.488190 2.750766,219.692535 2.966355,218.811310 
	C6.680778,203.628326 9.528828,188.170792 14.289948,173.326080 
	C18.189196,161.168625 24.113594,149.623459 29.612272,138.030762 
	C32.704258,131.512024 36.519974,125.297134 40.432564,119.217537 
	C44.867199,112.326744 49.622681,105.626694 54.528011,99.059860 
	C58.066307,94.323082 61.905842,89.780998 65.918388,85.435928 
	C71.958771,78.894974 77.937363,72.232971 84.556053,66.308136 
	C91.097824,60.452164 98.238525,55.217602 105.412132,50.127075 
	C114.545670,43.645744 123.706383,37.120262 133.364746,31.487154 
	C141.043167,27.008812 149.286133,23.298670 157.636551,20.218203 
	C170.763763,15.375576 184.106094,11.057568 197.528854,7.099006 
	C204.381378,5.078096 211.617691,4.374249 218.650299,2.928146 
	C219.528549,2.747551 220.221298,1.664755 221.000000,0.999998 
	C244.687561,1.000000 268.375122,1.000000 292.370117,1.391471 
	C293.513916,2.185452 294.310577,2.749588 295.192596,2.966406 
	C310.222656,6.661111 325.334381,10.049759 340.270844,14.087659 
	C347.470856,16.034100 354.470001,18.898106 361.328552,21.879370 
	C367.151154,24.410322 372.704498,27.592863 378.262421,30.692520 
	C385.373810,34.658577 392.539764,38.569077 399.366364,42.991112 
	C405.587860,47.021191 411.730164,51.310715 417.298798,56.181648 
	C427.568542,65.164719 437.779602,74.282394 447.264435,84.071335 
	C453.471069,90.476883 458.580200,98.003510 463.777374,105.314857 
	C470.271088,114.450249 476.864960,123.583427 482.452972,133.272705 
	C487.309540,141.693741 491.164673,150.750031 494.832794,159.781281 
	C498.015747,167.617889 500.769226,175.694901 502.900177,183.877228 
	C506.023315,195.869293 508.406097,208.053726 511.196106,220.135025 
	C511.289734,220.540588 512.376282,220.716858 513.000000,221.000000 
	C513.000000,244.687561 513.000000,268.375122 512.608521,292.369904 
	C509.148224,305.121490 506.462097,317.676819 502.896179,329.977081 
	C499.724823,340.916077 496.101471,351.792145 491.694275,362.282867 
	C488.262573,370.451477 483.572235,378.137360 478.982788,385.761810 
	C473.447510,394.957611 468.023163,404.325012 461.456238,412.766663 
	C454.383301,421.858673 445.903381,429.842316 438.286530,438.528076 
	C424.451477,454.304657 407.417053,466.170776 389.919678,477.206360 
	C379.446899,483.811462 367.965729,489.073364 356.433472,493.675079 
	C343.429871,498.863953 329.946655,502.927063 316.500305,506.898346 
	C309.640930,508.924164 302.394958,509.625031 295.353882,511.071747 
	C294.474335,511.252472 293.780121,512.335205 293.000000,513.000000 
	C269.312439,513.000000 245.624878,513.000000 221.629990,512.608521 
	C220.486160,511.814514 219.689407,511.250305 218.807251,511.033447 
	C203.775543,507.338623 188.662048,503.950226 173.724121,499.911621 
	C166.523651,497.964874 159.524750,495.098114 152.665741,492.116211 
	C146.842697,489.584717 141.287903,486.403839 135.729691,483.303619 
	C128.617783,479.336792 121.452408,475.423676 114.625267,471.000885 
	C108.403214,466.970062 102.246193,462.694092 96.692146,457.808167 
	C86.286102,448.653870 75.972672,439.333679 66.329956,429.394409 
	C60.269470,423.147522 55.433193,415.698334 50.171276,408.695679 
	C45.540432,402.532867 40.415241,396.611176 36.697674,389.922028 
	C30.657787,379.054352 24.892746,367.924561 20.295412,356.393585 
	C15.115377,343.401154 11.063797,329.928467 7.100943,316.493683 
	C5.077903,309.635254 4.374878,302.392090 2.928278,295.353027 
	C2.747569,294.473724 1.664803,293.779816 1.000003,293.000000 
M227.237350,229.122955 
	C229.416656,244.706070 233.181870,259.895630 240.106003,274.056580 
	C253.701614,301.861786 267.669464,329.484772 281.424927,357.212128 
	C283.328003,361.048187 286.326965,362.102722 290.380890,362.087280 
	C316.194366,361.988953 342.008362,362.041412 367.822205,362.035278 
	C377.210785,362.033051 380.006104,357.719025 375.865997,349.432831 
	C338.823639,275.294586 301.754913,201.169556 264.695465,127.039879 
	C263.182861,124.014275 261.688385,121.005318 257.635376,120.850548 
	C253.585617,120.695908 251.895157,123.593117 250.113052,126.472404 
	C230.753372,157.751129 223.146301,191.676910 227.237350,229.122955 
M168.499893,362.197174 
	C185.659149,362.197174 202.818420,362.197357 219.977676,362.197113 
	C230.492279,362.196960 231.685074,361.859436 234.714111,351.889465 
	C248.334015,307.060059 237.533325,267.533630 207.833542,232.421448 
	C203.868134,227.733398 198.634827,228.755447 195.785202,234.434219 
	C176.369843,273.125366 157.006836,311.842926 137.714142,350.595367 
	C134.370728,357.311157 137.427582,362.042694 145.010071,362.165710 
	C152.504868,362.287354 160.003128,362.195435 168.499893,362.197174 
z"/>
<path fill="#000000" opacity="1.000000" stroke="none" 
	d="
M513.000000,220.531342 
	C512.376282,220.716858 511.289734,220.540588 511.196106,220.135025 
	C508.406097,208.053726 506.023315,195.869293 502.900177,183.877228 
	C500.769226,175.694901 498.015747,167.617889 494.832794,159.781281 
	C491.164673,150.750031 487.309540,141.693741 482.452972,133.272705 
	C476.864960,123.583427 470.271088,114.450249 463.777374,105.314857 
	C458.580200,98.003510 453.471069,90.476883 447.264435,84.071335 
	C437.779602,74.282394 427.568542,65.164719 417.298798,56.181648 
	C411.730164,51.310715 405.587860,47.021191 399.366364,42.991112 
	C392.539764,38.569077 385.373810,34.658577 378.262421,30.692520 
	C372.704498,27.592863 367.151154,24.410322 361.328552,21.879370 
	C354.470001,18.898106 347.470856,16.034100 340.270844,14.087659 
	C325.334381,10.049759 310.222656,6.661111 295.192596,2.966406 
	C294.310577,2.749588 293.513916,2.185452 292.838776,1.391471 
	C366.260345,1.000000 439.520721,1.000000 513.000000,1.000000 
	C513.000000,74.020752 513.000000,147.041718 513.000000,220.531342 
z"/>
<path fill="#000000" opacity="1.000000" stroke="none" 
	d="
M293.468658,513.000000 
	C293.780121,512.335205 294.474335,511.252472 295.353882,511.071747 
	C302.394958,509.625031 309.640930,508.924164 316.500305,506.898346 
	C329.946655,502.927063 343.429871,498.863953 356.433472,493.675079 
	C367.965729,489.073364 379.446899,483.811462 389.919678,477.206360 
	C407.417053,466.170776 424.451477,454.304657 438.286530,438.528076 
	C445.903381,429.842316 454.383301,421.858673 461.456238,412.766663 
	C468.023163,404.325012 473.447510,394.957611 478.982788,385.761810 
	C483.572235,378.137360 488.262573,370.451477 491.694275,362.282867 
	C496.101471,351.792145 499.724823,340.916077 502.896179,329.977081 
	C506.462097,317.676819 509.148224,305.121490 512.608521,292.838562 
	C513.000000,366.260345 513.000000,439.520721 513.000000,513.000000 
	C439.979248,513.000000 366.958282,513.000000 293.468658,513.000000 
z"/>
<path fill="#000000" opacity="1.000000" stroke="none" 
	d="
M220.531342,0.999998 
	C220.221298,1.664755 219.528549,2.747551 218.650299,2.928146 
	C211.617691,4.374249 204.381378,5.078096 197.528854,7.099006 
	C184.106094,11.057568 170.763763,15.375576 157.636551,20.218203 
	C149.286133,23.298670 141.043167,27.008812 133.364746,31.487154 
	C123.706383,37.120262 114.545670,43.645744 105.412132,50.127075 
	C98.238525,55.217602 91.097824,60.452164 84.556053,66.308136 
	C77.937363,72.232971 71.958771,78.894974 65.918388,85.435928 
	C61.905842,89.780998 58.066307,94.323082 54.528011,99.059860 
	C49.622681,105.626694 44.867199,112.326744 40.432564,119.217537 
	C36.519974,125.297134 32.704258,131.512024 29.612272,138.030762 
	C24.113594,149.623459 18.189196,161.168625 14.289948,173.326080 
	C9.528828,188.170792 6.680778,203.628326 2.966355,218.811310 
	C2.750766,219.692535 2.185334,220.488190 1.391356,221.161835 
	C1.000000,147.739624 1.000000,74.479256 1.000000,1.000000 
	C74.020752,1.000000 147.041718,1.000000 220.531342,0.999998 
z"/>
<path fill="#000000" opacity="1.000000" stroke="none" 
	d="
M1.000003,293.468658 
	C1.664803,293.779816 2.747569,294.473724 2.928278,295.353027 
	C4.374878,302.392090 5.077903,309.635254 7.100943,316.493683 
	C11.063797,329.928467 15.115377,343.401154 20.295412,356.393585 
	C24.892746,367.924561 30.657787,379.054352 36.697674,389.922028 
	C40.415241,396.611176 45.540432,402.532867 50.171276,408.695679 
	C55.433193,415.698334 60.269470,423.147522 66.329956,429.394409 
	C75.972672,439.333679 86.286102,448.653870 96.692146,457.808167 
	C102.246193,462.694092 108.403214,466.970062 114.625267,471.000885 
	C121.452408,475.423676 128.617783,479.336792 135.729691,483.303619 
	C141.287903,486.403839 146.842697,489.584717 152.665741,492.116211 
	C159.524750,495.098114 166.523651,497.964874 173.724121,499.911621 
	C188.662048,503.950226 203.775543,507.338623 218.807251,511.033447 
	C219.689407,511.250305 220.486160,511.814514 221.161331,512.608521 
	C147.739639,513.000000 74.479271,513.000000 1.000000,513.000000 
	C1.000000,439.979248 1.000000,366.958282 1.000003,293.468658 
z"/>
<path fill="#FEFEFF" opacity="1.000000" stroke="none" 
	d="
M227.192764,228.674194 
	C223.146301,191.676910 230.753372,157.751129 250.113052,126.472404 
	C251.895157,123.593117 253.585617,120.695908 257.635376,120.850548 
	C261.688385,121.005318 263.182861,124.014275 264.695465,127.039879 
	C301.754913,201.169556 338.823639,275.294586 375.865997,349.432831 
	C380.006104,357.719025 377.210785,362.033051 367.822205,362.035278 
	C342.008362,362.041412 316.194366,361.988953 290.380890,362.087280 
	C286.326965,362.102722 283.328003,361.048187 281.424927,357.212128 
	C267.669464,329.484772 253.701614,301.861786 240.106003,274.056580 
	C233.181870,259.895630 229.416656,244.706070 227.192764,228.674194 
z"/>
<path fill="#FEFEFF" opacity="1.000000" stroke="none" 
	d="
M167.999878,362.197174 
	C160.003128,362.195435 152.504868,362.287354 145.010071,362.165710 
	C137.427582,362.042694 134.370728,357.311157 137.714142,350.595367 
	C157.006836,311.842926 176.369843,273.125366 195.785202,234.434219 
	C198.634827,228.755447 203.868134,227.733398 207.833542,232.421448 
	C237.533325,267.533630 248.334015,307.060059 234.714111,351.889465 
	C231.685074,361.859436 230.492279,362.196960 219.977676,362.197113 
	C202.818420,362.197357 185.659149,362.197174 167.999878,362.197174 
z"/>
</svg>