<svg version="1.1" id="Layer_1" xmlns="http://www.w3.org/2000/svg" xmlns:xlink="http://www.w3.org/1999/xlink" x="0px" y="0px"
	 width="100%" viewBox="0 0 200 200" enable-background="new 0 0 200 200" xml:space="preserve">
<path fill="#FDFEFE" opacity="1.000000" stroke="none" 
	d="
M1.000000,54.000000 
	C1.000000,36.358215 1.000000,18.716433 1.000000,1.037324 
	C67.547867,1.037324 134.095764,1.037324 201.000000,1.037324 
	C201.000000,20.019411 201.000000,39.041046 200.650940,58.432716 
	C197.513382,50.849350 193.457809,43.992970 184.721558,40.779541 
	C183.790253,40.182575 183.047852,39.831585 182.258072,39.566395 
	C182.210678,39.652195 182.406143,39.637245 182.259186,39.397488 
	C181.754745,39.059345 181.397293,38.960960 181.043091,38.905434 
	C181.046356,38.948288 181.127884,38.921070 180.922974,38.630470 
	C177.634247,37.175842 174.641022,35.516941 171.451004,34.932911 
	C157.155930,32.315758 143.481583,35.502117 129.571655,39.952957 
	C128.395065,41.678356 126.997612,43.399681 126.987480,45.129135 
	C126.792381,78.421646 126.754417,111.715111 126.697762,145.008392 
	C126.683167,153.585846 126.704620,153.585876 135.247498,157.297363 
	C139.913483,156.980530 144.325714,156.414230 149.251190,155.782059 
	C149.251190,140.622360 149.251190,125.727867 149.251190,110.617073 
	C152.582794,110.391068 155.397125,110.363953 158.163513,109.985931 
	C176.324310,107.504272 191.275024,100.381096 198.380661,81.972847 
	C199.050766,80.236870 200.117447,78.653976 201.000000,77.000000 
	C201.000000,118.294586 201.000000,159.589172 201.000000,200.941879 
	C134.434616,200.941879 67.869179,200.941879 1.000000,200.941879 
	C1.000000,153.646210 1.000000,106.291763 1.362084,58.583622 
	C2.551660,60.511055 3.461577,62.766056 4.194202,65.077255 
	C14.173223,96.557831 24.123280,128.047607 34.092762,159.531204 
	C35.670929,164.515060 41.807301,168.159485 47.594471,167.429993 
	C49.011654,167.267532 50.037640,167.051270 51.374237,166.886078 
	C52.090454,166.843948 52.496063,166.750763 53.283958,166.714752 
	C54.127090,166.570404 54.587936,166.368896 55.400154,166.231964 
	C62.758221,166.483139 63.194466,161.068222 64.269638,156.156372 
	C64.216827,156.069702 64.263916,156.267136 64.520340,156.009476 
	C66.566399,149.181641 68.356033,142.611465 70.104446,136.037933 
	C70.063217,136.034561 70.078003,136.115967 70.417648,135.963470 
	C71.898224,131.563187 73.039162,127.315376 74.134209,123.062416 
	C74.088326,123.057259 74.109962,123.147041 74.344131,123.084953 
	C74.710510,122.353928 74.842712,121.684990 75.025955,120.813477 
	C75.076996,120.610893 75.080353,120.193077 75.426498,120.036240 
	C76.240463,118.709488 76.811455,117.569328 77.159012,116.364708 
	C79.113510,109.590599 81.014214,102.800972 82.935318,95.685059 
	C83.020836,94.130562 82.779381,92.763123 83.247261,91.711174 
	C84.797958,88.224701 86.604202,84.851891 88.554962,81.843285 
	C88.912773,83.566994 89.128899,84.882950 89.128296,86.198799 
	C89.118034,108.643120 89.170227,131.088287 88.957314,153.530869 
	C88.923843,157.058960 89.924416,159.185349 93.149216,160.412552 
	C94.826149,161.050690 96.427673,161.887024 98.457993,162.708725 
	C102.585983,162.202454 106.319237,161.621292 110.475693,161.018631 
	C111.290977,159.168655 112.019287,157.341293 112.025322,155.511536 
	C112.136444,121.788353 112.158188,88.064873 112.206497,54.341473 
	C112.217903,46.378838 109.265823,43.356064 100.963448,42.559570 
	C100.063049,40.777473 99.224770,39.380535 98.386490,37.983593 
	C97.145416,38.856812 95.718727,39.556435 94.704033,40.641380 
	C92.898605,42.571823 91.418106,44.804462 89.634712,46.758274 
	C89.121773,47.320225 88.036125,47.359417 87.213058,47.638287 
	C87.129181,46.820545 86.867950,45.974358 86.993736,45.190247 
	C87.420288,42.531227 87.983742,39.894161 88.494263,37.251942 
	C84.377159,36.106228 82.864021,37.773533 81.843452,40.987900 
	C78.349495,51.992378 74.512787,62.888084 71.023109,73.893860 
	C64.924667,93.127151 59.014687,112.420158 52.942135,131.661758 
	C52.271858,133.785629 51.056404,135.737427 50.112732,137.541840 
	C50.131668,137.314651 49.852795,136.953903 49.862320,136.628113 
	C49.617794,135.974396 49.363750,135.646500 49.211494,135.088257 
	C49.168594,134.562241 49.023899,134.266571 48.901329,133.654968 
	C48.591187,132.575317 48.258923,131.811600 47.950447,130.659332 
	C47.639008,129.165726 47.322430,128.054596 46.965748,126.956482 
	C41.663612,110.633003 36.356174,94.311249 31.069252,77.672836 
	C30.838995,76.800529 30.589470,76.244469 30.352428,75.758698 
	C30.364912,75.828979 30.466875,75.729057 30.402489,75.339493 
	C28.999849,70.688850 27.667595,66.425880 26.321732,62.167210 
	C24.838829,57.474911 19.396078,52.304825 15.249763,52.430634 
	C11.482019,52.544960 7.740873,53.535854 3.654552,54.093681 
	C2.885348,54.141808 2.449594,54.236580 1.764001,54.237434 
	C1.342775,54.095673 1.171388,54.047836 1.000000,54.000000 
z"/>
<path fill="#154871" opacity="1.000000" stroke="none" 
	d="
M201.000000,76.600006 
	C200.117447,78.653976 199.050766,80.236870 198.380661,81.972847 
	C191.275024,100.381096 176.324310,107.504272 158.163513,109.985931 
	C155.397125,110.363953 152.582794,110.391068 149.251190,110.617073 
	C149.251190,125.727867 149.251190,140.622360 149.251190,155.782059 
	C144.325714,156.414230 139.913483,156.980530 135.249298,156.839966 
	C135.332230,119.089676 135.667099,82.046257 136.382431,44.958488 
	C151.177383,40.148964 165.989151,38.324814 181.127884,38.921070 
	C181.127884,38.921070 181.046356,38.948288 181.182648,39.161263 
	C181.681351,39.461906 182.043747,39.549576 182.406143,39.637245 
	C182.406143,39.637245 182.210678,39.652195 182.298706,39.917091 
	C183.227982,40.463165 184.069244,40.744339 184.910492,41.025513 
	C193.457809,43.992970 197.513382,50.849350 200.650940,58.901375 
	C201.000000,60.388889 201.000000,61.777779 200.695648,63.842545 
	C200.594208,67.345612 200.797104,70.172806 201.000000,73.000000 
	C201.000000,74.066673 201.000000,75.133339 201.000000,76.600006 
M149.052521,93.612038 
	C148.691696,96.864578 150.215134,98.279495 153.395050,97.995529 
	C156.678558,97.702293 159.966858,97.431335 163.236420,97.018753 
	C178.210007,95.129280 188.467468,82.263176 186.981003,67.295143 
	C186.122879,58.654015 180.505432,51.881500 172.681793,51.100132 
	C166.099747,51.736210 159.515381,52.349709 152.936707,53.018814 
	C150.067001,53.310688 149.273163,54.969006 149.290390,57.807934 
	C149.361115,69.456589 149.179199,81.106773 149.052521,93.612038 
z"/>
<path fill="#093158" opacity="1.000000" stroke="none" 
	d="
M47.203270,167.376205 
	C41.807301,168.159485 35.670929,164.515060 34.092762,159.531204 
	C24.123280,128.047607 14.173223,96.557831 4.194202,65.077255 
	C3.461577,62.766056 2.551660,60.511055 1.362084,58.114964 
	C1.000000,58.000000 1.000000,57.500000 1.258743,57.087219 
	C1.682937,55.893406 1.848388,55.112381 2.013839,54.331352 
	C2.449594,54.236580 2.885348,54.141808 3.699612,54.428757 
	C5.483261,55.673664 6.915132,56.497166 8.281727,57.417583 
	C8.919718,57.847282 9.431372,58.464561 9.805580,59.217636 
	C10.061642,60.479477 10.610415,61.489704 10.948658,62.566082 
	C17.253674,82.630295 23.501301,102.712593 29.831459,122.768845 
	C33.424751,134.153717 37.465881,145.409805 40.644112,156.906693 
	C41.859249,161.302292 42.380859,165.507874 47.203270,167.376205 
z"/>
<path fill="#436F91" opacity="1.000000" stroke="none" 
	d="
M201.000000,72.550018 
	C200.797104,70.172806 200.594208,67.345612 200.695648,64.259209 
	C201.000000,66.700012 201.000000,69.400032 201.000000,72.550018 
z"/>
<path fill="#113D62" opacity="1.000000" stroke="none" 
	d="
M1.764001,54.237434 
	C1.848388,55.112381 1.682937,55.893406 1.258743,56.837219 
	C1.000000,56.250000 1.000000,55.500000 1.000000,54.375000 
	C1.171388,54.047836 1.342775,54.095673 1.764001,54.237434 
z"/>
<path fill="#154871" opacity="1.000000" stroke="none" 
	d="
M47.594471,167.429993 
	C42.380859,165.507874 41.859249,161.302292 40.644112,156.906693 
	C37.465881,145.409805 33.424751,134.153717 29.831459,122.768845 
	C23.501301,102.712593 17.253674,82.630295 10.948658,62.566082 
	C10.610415,61.489704 10.061642,60.479477 10.224884,59.211258 
	C13.614816,58.656067 16.417795,57.949226 19.156319,58.144817 
	C20.751451,58.258751 23.036718,59.465511 23.628042,60.795597 
	C25.196066,64.322624 25.826258,68.255325 27.217272,71.877754 
	C27.786089,73.359047 29.353666,74.456810 30.466875,75.729057 
	C30.466875,75.729057 30.364912,75.828979 30.270262,76.088181 
	C30.467070,76.894608 30.758528,77.441849 31.049984,77.989082 
	C36.356174,94.311249 41.663612,110.633003 46.965748,126.956482 
	C47.322430,128.054596 47.639008,129.165726 47.726192,130.822540 
	C47.945164,132.239792 48.412182,133.105347 48.879204,133.970886 
	C49.023899,134.266571 49.168594,134.562241 49.252190,135.397842 
	C49.411663,136.276474 49.632229,136.615189 49.852795,136.953903 
	C49.852795,136.953903 50.131668,137.314651 50.126175,137.906158 
	C51.373184,140.328033 52.625690,142.158432 54.002197,144.343018 
	C54.230919,146.165955 54.335644,147.634705 54.354233,149.507416 
	C55.835514,154.283386 57.402927,158.655350 58.928165,163.344406 
	C57.606922,164.496796 56.327854,165.332092 55.048782,166.167389 
	C54.587936,166.368896 54.127090,166.570404 53.113861,166.565979 
	C52.062187,166.518356 51.562908,166.676682 51.063625,166.835022 
	C50.037640,167.051270 49.011654,167.267532 47.594471,167.429993 
z"/>
<path fill="#103B5E" opacity="1.000000" stroke="none" 
	d="
M58.970341,163.027328 
	C57.402927,158.655350 55.835514,154.283386 54.753216,149.569946 
	C56.628201,149.553436 58.018074,149.878387 59.718723,150.276001 
	C61.410931,144.841049 62.984356,139.787598 64.565002,134.710953 
	C59.541969,133.385803 57.410587,134.804718 56.056725,139.366928 
	C55.577763,140.980911 54.618298,142.452316 53.878197,143.988815 
	C52.625690,142.158432 51.373184,140.328033 50.107239,138.133347 
	C51.056404,135.737427 52.271858,133.785629 52.942135,131.661758 
	C59.014687,112.420158 64.924667,93.127151 71.023109,73.893860 
	C74.512787,62.888084 78.349495,51.992378 81.843452,40.987900 
	C82.864021,37.773533 84.377159,36.106228 88.494263,37.251942 
	C87.983742,39.894161 87.420288,42.531227 86.993736,45.190247 
	C86.867950,45.974358 87.129181,46.820545 87.213058,47.638287 
	C88.036125,47.359417 89.121773,47.320225 89.634712,46.758274 
	C91.418106,44.804462 92.898605,42.571823 94.704033,40.641380 
	C95.718727,39.556435 97.145416,38.856812 98.386490,37.983593 
	C99.224770,39.380535 100.063049,40.777473 100.750702,42.864101 
	C99.645699,46.988964 98.691322,50.424145 97.553848,54.087120 
	C97.294479,54.887733 97.218208,55.460556 96.833321,56.231915 
	C93.787262,64.765465 91.049835,73.100471 88.312408,81.435478 
	C86.604202,84.851891 84.797958,88.224701 83.247261,91.711174 
	C82.779381,92.763123 83.020836,94.130562 82.625526,95.861778 
	C81.210655,98.910767 80.107613,101.451469 78.678238,104.169434 
	C77.902344,106.232079 77.452774,108.117447 77.001602,110.001404 
	C77.000000,110.000000 77.004173,110.002197 76.681190,110.171814 
	C74.254524,116.175980 72.110260,121.996727 70.114159,127.867851 
	C69.928360,128.414337 70.681404,129.280029 70.955215,130.383209 
	C70.633942,132.551270 70.355972,134.333618 70.078003,136.115967 
	C70.078003,136.115967 70.063217,136.034561 69.802139,136.226898 
	C66.698776,142.747177 63.382874,148.949219 64.263916,156.267136 
	C64.263916,156.267136 64.216827,156.069702 63.899567,156.126221 
	C62.044983,158.464264 60.507664,160.745789 58.970341,163.027328 
M75.533051,88.526375 
	C76.928009,88.178612 79.265366,88.194351 79.562798,87.423241 
	C81.306770,82.901848 82.574173,78.196640 84.157799,73.047844 
	C81.635803,73.047844 79.864403,73.047844 77.412529,73.339966 
	C76.371704,77.129730 75.330879,80.919487 74.360817,84.869270 
	C74.360817,84.869270 74.279114,85.023987 73.579742,85.087433 
	C71.404526,87.161255 72.595215,88.076073 75.533051,88.526375 
M71.353165,109.200882 
	C73.577568,104.316498 75.801971,99.432114 78.702324,93.063461 
	C75.008728,93.332680 71.791267,92.849457 71.367775,93.722107 
	C69.518272,97.533295 68.263054,101.689613 67.334587,105.841949 
	C67.154381,106.647888 69.395828,107.995323 71.353165,109.200882 
M82.034096,59.529793 
	C81.300873,62.208427 80.567650,64.887062 79.759651,67.838852 
	C82.250702,68.173317 83.835548,68.386108 85.839256,68.655136 
	C87.307701,63.437222 88.708458,58.459835 90.082047,53.578964 
	C83.077248,49.938931 83.137512,55.107468 82.034096,59.529793 
M63.076927,129.205811 
	C64.386795,128.579590 66.470093,128.265808 66.871346,127.272537 
	C68.522240,123.185829 69.661987,118.892624 71.104012,114.312302 
	C69.227882,113.817947 67.575478,113.382538 65.727974,112.895729 
	C64.157669,117.681862 62.649582,122.017052 61.375633,126.420006 
	C61.164791,127.148705 61.977699,128.173615 63.076927,129.205811 
z"/>
<path fill="#EFB315" opacity="1.000000" stroke="none" 
	d="
M97.141945,56.033375 
	C97.218208,55.460556 97.294479,54.887733 97.897064,53.947998 
	C100.181068,46.378147 106.352760,50.097210 110.646751,47.766136 
	C110.815323,49.822182 110.988747,50.951435 110.988762,52.080685 
	C110.989204,86.790771 110.984749,121.500885 110.920364,156.210876 
	C110.917374,157.821167 110.354568,159.430405 110.052490,161.040131 
	C106.319237,161.621292 102.585983,162.202454 98.440369,162.266495 
	C98.020363,128.253448 98.025627,94.757500 97.968369,61.261658 
	C97.965393,59.518433 97.429649,57.776115 97.141945,56.033375 
z"/>
<path fill="#032D55" opacity="1.000000" stroke="none" 
	d="
M136.001968,45.002834 
	C135.667099,82.046257 135.332230,119.089676 134.995560,156.590515 
	C126.704620,153.585876 126.683167,153.585846 126.697762,145.008392 
	C126.754417,111.715111 126.792381,78.421646 126.987480,45.129135 
	C126.997612,43.399681 128.395065,41.678356 129.580658,40.323353 
	C132.010422,42.129917 134.006195,43.566376 136.001968,45.002834 
z"/>
<path fill="#BA9031" opacity="1.000000" stroke="none" 
	d="
M96.833321,56.231915 
	C97.429649,57.776115 97.965393,59.518433 97.968369,61.261658 
	C98.025627,94.757500 98.020363,128.253448 98.045631,162.191605 
	C96.427673,161.887024 94.826149,161.050690 93.149216,160.412552 
	C89.924416,159.185349 88.923843,157.058960 88.957314,153.530869 
	C89.170227,131.088287 89.118034,108.643120 89.128296,86.198799 
	C89.128899,84.882950 88.912773,83.566994 88.554962,81.843285 
	C91.049835,73.100471 93.787262,64.765465 96.833321,56.231915 
z"/>
<path fill="#083860" opacity="1.000000" stroke="none" 
	d="
M136.382431,44.958488 
	C134.006195,43.566376 132.010422,42.129917 130.005646,40.323059 
	C143.481583,35.502117 157.155930,32.315758 171.451004,34.932911 
	C174.641022,35.516941 177.634247,37.175842 180.922974,38.630470 
	C165.989151,38.324814 151.177383,40.148964 136.382431,44.958488 
z"/>
<path fill="#D6B55C" opacity="1.000000" stroke="none" 
	d="
M110.475685,161.018631 
	C110.354568,159.430405 110.917374,157.821167 110.920364,156.210876 
	C110.984749,121.500885 110.989204,86.790771 110.988762,52.080685 
	C110.988747,50.951435 110.815323,49.822182 110.646751,47.766136 
	C106.352760,50.097210 100.181068,46.378147 98.080170,53.720200 
	C98.691322,50.424145 99.645699,46.988964 100.812820,43.249256 
	C109.265823,43.356064 112.217903,46.378838 112.206497,54.341473 
	C112.158188,88.064873 112.136444,121.788353 112.025322,155.511536 
	C112.019287,157.341293 111.290977,159.168655 110.475685,161.018631 
z"/>
<path fill="#113D62" opacity="1.000000" stroke="none" 
	d="
M30.402489,75.339493 
	C29.353666,74.456810 27.786089,73.359047 27.217272,71.877754 
	C25.826258,68.255325 25.196066,64.322624 23.628042,60.795597 
	C23.036718,59.465511 20.751451,58.258751 19.156319,58.144817 
	C16.417795,57.949226 13.614816,58.656067 10.419592,58.990437 
	C9.431372,58.464561 8.919718,57.847282 8.281727,57.417583 
	C6.915132,56.497166 5.483261,55.673664 4.033061,54.475403 
	C7.740873,53.535854 11.482019,52.544960 15.249763,52.430634 
	C19.396078,52.304825 24.838829,57.474911 26.321732,62.167210 
	C27.667595,66.425880 28.999849,70.688850 30.402489,75.339493 
z"/>
<path fill="#193B5B" opacity="1.000000" stroke="none" 
	d="
M79.004570,103.992165 
	C80.107613,101.451469 81.210655,98.910767 82.623489,96.193359 
	C81.014214,102.800972 79.113510,109.590599 77.159012,116.364708 
	C76.811455,117.569328 76.240463,118.709488 75.401711,119.624756 
	C75.688576,116.247475 76.346375,113.124832 77.004173,110.002197 
	C77.004173,110.002197 77.000000,110.000000 77.272873,109.775482 
	C78.032021,107.698029 78.518295,105.845093 79.004570,103.992165 
z"/>
<path fill="#163755" opacity="1.000000" stroke="none" 
	d="
M64.520340,156.009476 
	C63.382874,148.949219 66.698776,142.747177 69.843369,136.230255 
	C68.356033,142.611465 66.566399,149.181641 64.520340,156.009476 
z"/>
<path fill="#0D3E69" opacity="1.000000" stroke="none" 
	d="
M76.681190,110.171814 
	C76.346375,113.124832 75.688576,116.247475 75.055565,119.781593 
	C75.080353,120.193077 75.076996,120.610893 74.778336,120.997162 
	C74.356445,121.971298 74.233200,122.559174 74.109955,123.147041 
	C74.109962,123.147041 74.088326,123.057259 73.829727,123.234505 
	C72.713600,125.607002 71.856064,127.802261 70.998520,129.997513 
	C70.681404,129.280029 69.928360,128.414337 70.114159,127.867851 
	C72.110260,121.996727 74.254524,116.175980 76.681190,110.171814 
z"/>
<path fill="#163755" opacity="1.000000" stroke="none" 
	d="
M58.928165,163.344406 
	C60.507664,160.745789 62.044983,158.464264 63.952377,156.212875 
	C63.194466,161.068222 62.758221,166.483139 55.400154,166.231964 
	C56.327854,165.332092 57.606922,164.496796 58.928165,163.344406 
z"/>
<path fill="#163755" opacity="1.000000" stroke="none" 
	d="
M70.955215,130.383209 
	C71.856064,127.802261 72.713600,125.607002 73.875610,123.239662 
	C73.039162,127.315376 71.898224,131.563187 70.417641,135.963470 
	C70.355972,134.333618 70.633942,132.551270 70.955215,130.383209 
z"/>
<path fill="#103B5E" opacity="1.000000" stroke="none" 
	d="
M48.901329,133.654968 
	C48.412182,133.105347 47.945164,132.239792 47.702400,131.211060 
	C48.258923,131.811600 48.591187,132.575317 48.901329,133.654968 
z"/>
<path fill="#193B5B" opacity="1.000000" stroke="none" 
	d="
M74.344131,123.084953 
	C74.233200,122.559174 74.356445,121.971298 74.727303,121.199738 
	C74.842712,121.684990 74.710510,122.353928 74.344131,123.084953 
z"/>
<path fill="#083860" opacity="1.000000" stroke="none" 
	d="
M184.721558,40.779541 
	C184.069244,40.744339 183.227982,40.463165 182.346100,39.831291 
	C183.047852,39.831585 183.790253,40.182575 184.721558,40.779541 
z"/>
<path fill="#113D62" opacity="1.000000" stroke="none" 
	d="
M31.069252,77.672836 
	C30.758528,77.441849 30.467070,76.894608 30.257778,76.017899 
	C30.589470,76.244469 30.838995,76.800529 31.069252,77.672836 
z"/>
<path fill="#163755" opacity="1.000000" stroke="none" 
	d="
M51.374237,166.886078 
	C51.562908,166.676682 52.062187,166.518356 52.731571,166.508789 
	C52.496063,166.750763 52.090454,166.843948 51.374237,166.886078 
z"/>
<path fill="#103B5E" opacity="1.000000" stroke="none" 
	d="
M49.862320,136.628113 
	C49.632229,136.615189 49.411663,136.276474 49.150398,135.628174 
	C49.363750,135.646500 49.617794,135.974396 49.862320,136.628113 
z"/>
<path fill="#083860" opacity="1.000000" stroke="none" 
	d="
M182.259186,39.397491 
	C182.043747,39.549576 181.681351,39.461906 181.179382,39.118408 
	C181.397293,38.960960 181.754745,39.059345 182.259186,39.397491 
z"/>
<path fill="#F7FAFB" opacity="1.000000" stroke="none" 
	d="
M149.090240,92.756401 
	C149.179199,81.106773 149.361115,69.456589 149.290390,57.807934 
	C149.273163,54.969006 150.067001,53.310688 152.936707,53.018814 
	C159.515381,52.349709 166.099747,51.736210 173.289612,51.433434 
	C179.975464,60.729946 179.492401,70.140938 174.484802,79.042603 
	C169.077667,88.654518 159.991669,92.687973 149.090240,92.756401 
z"/>
<path fill="#073860" opacity="1.000000" stroke="none" 
	d="
M149.071381,93.184219 
	C159.991669,92.687973 169.077667,88.654518 174.484802,79.042603 
	C179.492401,70.140938 179.975464,60.729946 173.728790,51.440716 
	C180.505432,51.881500 186.122879,58.654015 186.981003,67.295143 
	C188.467468,82.263176 178.210007,95.129280 163.236420,97.018753 
	C159.966858,97.431335 156.678558,97.702293 153.395050,97.995529 
	C150.215134,98.279495 148.691696,96.864578 149.071381,93.184219 
z"/>
<path fill="#E2EDF3" opacity="1.000000" stroke="none" 
	d="
M54.002197,144.343018 
	C54.618298,142.452316 55.577763,140.980911 56.056725,139.366928 
	C57.410587,134.804718 59.541969,133.385803 64.565002,134.710953 
	C62.984356,139.787598 61.410931,144.841049 59.718723,150.276001 
	C58.018074,149.878387 56.628201,149.553436 54.839348,149.165955 
	C54.335644,147.634705 54.230919,146.165955 54.002197,144.343018 
z"/>
<path fill="#E3EDF3" opacity="1.000000" stroke="none" 
	d="
M70.936707,109.146927 
	C69.395828,107.995323 67.154381,106.647888 67.334587,105.841949 
	C68.263054,101.689613 69.518272,97.533295 71.367775,93.722107 
	C71.791267,92.849457 75.008728,93.332680 78.702324,93.063461 
	C75.801971,99.432114 73.577568,104.316498 70.936707,109.146927 
z"/>
<path fill="#DFE9F0" opacity="1.000000" stroke="none" 
	d="
M82.043045,59.135391 
	C83.137512,55.107468 83.077248,49.938931 90.082047,53.578964 
	C88.708458,58.459835 87.307701,63.437222 85.839256,68.655136 
	C83.835548,68.386108 82.250702,68.173317 79.759651,67.838852 
	C80.567650,64.887062 81.300873,62.208427 82.043045,59.135391 
z"/>
<path fill="#E8F2F6" opacity="1.000000" stroke="none" 
	d="
M62.697212,129.133728 
	C61.977699,128.173615 61.164791,127.148705 61.375633,126.420006 
	C62.649582,122.017052 64.157669,117.681862 65.727974,112.895729 
	C67.575478,113.382538 69.227882,113.817947 71.104012,114.312302 
	C69.661987,118.892624 68.522240,123.185829 66.871346,127.272537 
	C66.470093,128.265808 64.386795,128.579590 62.697212,129.133728 
z"/>
<path fill="#E8F1F6" opacity="1.000000" stroke="none" 
	d="
M78.093002,73.047844 
	C79.864403,73.047844 81.635803,73.047844 84.157799,73.047844 
	C82.574173,78.196640 81.306770,82.901848 79.562798,87.423241 
	C79.265366,88.194351 76.928009,88.178612 74.924812,88.279572 
	C74.304085,87.029846 74.291603,86.026917 74.279114,85.023987 
	C74.279114,85.023987 74.360817,84.869270 74.588699,84.497925 
	C75.908714,80.433670 77.000854,76.740761 78.093002,73.047844 
z"/>
<path fill="#204260" opacity="1.000000" stroke="none" 
	d="
M77.752762,73.193909 
	C77.000854,76.740761 75.908714,80.433670 74.553314,84.417923 
	C75.330879,80.919487 76.371704,77.129730 77.752762,73.193909 
z"/>
<path fill="#0D3E69" opacity="1.000000" stroke="none" 
	d="
M78.678238,104.169434 
	C78.518295,105.845093 78.032021,107.698029 77.274475,109.776886 
	C77.452774,108.117447 77.902344,106.232079 78.678238,104.169434 
z"/>
<path fill="#204260" opacity="1.000000" stroke="none" 
	d="
M73.929428,85.055710 
	C74.291603,86.026917 74.304085,87.029846 74.559906,88.336678 
	C72.595215,88.076073 71.404526,87.161255 73.929428,85.055710 
z"/>
</svg>