<svg version="1.1" id="Layer_1" xmlns="http://www.w3.org/2000/svg" xmlns:xlink="http://www.w3.org/1999/xlink" x="0px" y="0px"
	 width="100%" viewBox="0 0 2251 2250" enable-background="new 0 0 2251 2250" xml:space="preserve">
<path fill="#143156" opacity="1.000000" stroke="none" 
	d="
M4.000000,2.000000 
	C753.909668,2.000000 1503.819336,2.000000 2253.864502,2.000000 
	C2253.864502,751.819397 2253.864502,1501.638794 2253.864502,2252.000000 
	C1504.604980,2252.000000 755.209717,2252.000000 5.011416,2251.067383 
	C4.239881,2246.469727 4.299109,2242.804688 4.299129,2239.139893 
	C4.303162,1497.753906 4.303573,756.368042 4.290525,14.982077 
	C4.290449,10.654716 4.101012,6.327359 4.000000,2.000000 
M805.205566,418.110077 
	C764.766785,428.035431 726.700073,443.763947 691.284790,465.619293 
	C634.907715,500.410583 588.934326,545.454590 557.650513,604.369629 
	C525.636841,664.659058 515.379578,728.145874 532.278381,794.932312 
	C547.372253,854.585571 580.903137,902.740906 627.801758,941.538025 
	C697.138733,998.897522 778.093506,1025.874390 867.259583,1029.614868 
	C905.710571,1031.227905 943.748169,1026.120728 981.564331,1019.847595 
	C1032.712280,1011.362854 1082.440186,997.949646 1129.264282,975.068054 
	C1131.235107,974.104919 1133.420288,973.580566 1136.117676,972.637939 
	C1136.605713,980.567871 1137.046265,987.726562 1137.472656,994.654297 
	C1150.979370,996.617188 1251.852905,996.046814 1259.855469,993.860718 
	C1259.855469,969.868042 1259.855591,945.600403 1259.855591,921.332764 
	C1259.855591,896.669556 1259.783691,872.006104 1259.875854,847.343201 
	C1259.965942,823.174255 1259.461548,798.987976 1260.199219,774.809265 
	C1274.683350,774.809265 1287.801147,774.809265 1301.192993,774.809265 
	C1301.192993,860.103027 1301.192993,944.580566 1301.192993,1030.341797 
	C1280.110840,1030.341797 1259.636475,1030.341797 1238.612793,1030.341797 
	C1238.612793,1069.414062 1238.612793,1107.200684 1238.612793,1145.625977 
	C1333.655518,1145.625977 1428.076660,1145.625977 1522.367310,1145.625977 
	C1524.806641,1133.205200 1524.178955,1037.621704 1521.521729,1030.293213 
	C1511.446289,1030.293213 1501.132690,1030.403809 1490.822388,1030.261841 
	C1480.658569,1030.121948 1470.426636,1030.911743 1460.424927,1029.699707 
	C1460.424927,943.954041 1460.424927,859.459351 1460.424927,773.906006 
	C1508.542847,773.905640 1555.950806,773.612061 1603.491089,774.091919 
	C1607.145996,793.305054 1610.542725,811.160400 1613.895508,828.785461 
	C1647.756470,828.785461 1680.258667,828.785461 1712.619263,828.785461 
	C1714.790527,816.720825 1714.248169,651.837952 1712.148071,644.841797 
	C1698.287231,642.986511 1005.945984,643.676025 998.382812,645.670166 
	C998.382812,706.395264 998.382812,767.237793 998.382812,828.797913 
	C1031.373779,828.797913 1063.828125,828.797913 1097.038086,828.797913 
	C1100.709351,810.361572 1104.307983,792.290466 1107.853271,774.487427 
	C1123.147949,774.487427 1137.000244,774.487427 1151.596069,774.487427 
	C1148.131104,793.495361 1141.312012,810.349670 1131.411011,825.913757 
	C1105.075073,867.312866 1066.611694,892.175110 1020.414734,905.965454 
	C972.652222,920.223389 924.411560,919.341431 876.122437,908.890930 
	C837.243347,900.476868 800.876526,885.971008 769.206116,861.433289 
	C714.640076,819.156311 693.944031,763.800110 707.998108,696.242981 
	C719.346924,641.689331 750.750549,600.609314 797.477722,571.446106 
	C857.691956,533.865356 923.027832,525.621155 991.655029,541.057617 
	C1039.898193,551.909058 1083.415527,572.910278 1121.524536,604.582214 
	C1127.802002,609.799316 1134.137573,612.000671 1142.345337,611.880493 
	C1172.334717,611.441467 1202.334351,611.706848 1232.330200,611.706787 
	C1235.895752,611.706787 1239.461304,611.706787 1243.603271,611.706787 
	C1243.603271,544.686157 1243.603271,478.931671 1243.603271,412.733490 
	C1205.152466,412.733490 1167.395020,412.733490 1128.320312,412.733490 
	C1128.320312,431.159943 1128.320312,448.896881 1128.320312,466.263855 
	C1126.681885,466.654144 1126.274414,466.896698 1126.059814,466.781158 
	C1120.200317,463.625610 1114.399536,460.358948 1108.510986,457.259247 
	C1058.977661,431.185852 1006.224609,415.959595 950.679382,409.561920 
	C902.186829,403.976532 854.277039,406.271362 805.205566,418.110077 
M683.427368,1520.370117 
	C690.552673,1516.784790 697.708008,1513.257446 704.794800,1509.597534 
	C711.667358,1506.048218 714.464722,1500.701294 714.359192,1492.602417 
	C713.942505,1460.608154 714.203857,1428.605347 714.161804,1396.605713 
	C714.158020,1393.718750 713.782166,1390.832275 713.596741,1388.196411 
	C703.791931,1385.806152 633.960327,1386.041870 625.836121,1388.512817 
	C625.676086,1400.076294 625.269409,1411.844238 626.087280,1424.180176 
	C634.780029,1424.180176 642.081299,1424.142822 649.382019,1424.190552 
	C656.561340,1424.237549 663.740051,1424.370728 671.646606,1424.475708 
	C671.646606,1439.690186 671.651917,1453.637695 671.645020,1467.585205 
	C671.638794,1480.288086 670.505676,1481.811401 658.223938,1486.151611 
	C645.367126,1490.695068 632.042297,1490.807739 618.702881,1490.085327 
	C594.212952,1488.758911 578.188171,1475.072021 573.797363,1450.964722 
	C569.294922,1426.244507 569.235474,1401.218506 571.202759,1376.251221 
	C572.061951,1365.346436 573.403625,1354.309082 576.172119,1343.764160 
	C580.538757,1327.131836 591.445129,1315.916382 608.353699,1311.362549 
	C625.972168,1306.617676 643.291443,1307.907959 660.252075,1314.624146 
	C666.481079,1317.090942 669.847900,1320.855103 669.118103,1328.201294 
	C668.513977,1334.281860 669.288086,1340.499268 669.444519,1346.390137 
	C683.404053,1348.278809 702.613586,1347.790527 710.188416,1345.327393 
	C710.188416,1334.340454 710.188843,1323.047852 710.188293,1311.755127 
	C710.187317,1293.389648 709.866943,1292.817017 693.428833,1284.046509 
	C690.496277,1282.482056 687.465515,1281.077637 684.399841,1279.790527 
	C657.482605,1268.491211 629.612915,1266.578247 601.082947,1271.505737 
	C583.282166,1274.580200 567.278625,1281.422729 554.166992,1294.209839 
	C538.405640,1309.581299 530.750183,1328.888062 528.238953,1350.219482 
	C524.172546,1384.760132 524.383301,1419.408691 528.157715,1453.966919 
	C532.253357,1491.466187 555.537964,1517.875977 592.475647,1526.442383 
	C622.728455,1533.458618 652.672241,1531.218384 683.427368,1520.370117 
M1398.411621,1571.373901 
	C1411.813843,1555.071777 1415.957886,1535.826416 1415.997314,1515.363281 
	C1416.074219,1475.369507 1416.021484,1435.375610 1416.022461,1395.381714 
	C1416.022461,1391.794800 1416.022339,1388.207886 1416.022339,1384.091797 
	C1423.704468,1383.579346 1430.479248,1383.127441 1437.425415,1382.664185 
	C1437.425415,1370.461182 1437.425415,1359.273438 1437.425415,1348.254150 
	C1427.678345,1345.677124 1381.852783,1346.001343 1374.324707,1348.713135 
	C1374.106323,1352.301758 1373.875244,1356.097900 1373.620850,1360.277466 
	C1367.001099,1355.770508 1361.528687,1350.808350 1355.125000,1347.888672 
	C1317.624634,1330.790894 1277.511475,1349.006226 1265.792969,1388.278809 
	C1259.805298,1408.345337 1259.151978,1428.937256 1261.010620,1449.668457 
	C1262.145386,1462.326294 1264.223633,1474.748291 1269.711670,1486.395386 
	C1285.093750,1519.040039 1329.405029,1532.438721 1360.340454,1513.575317 
	C1364.733643,1510.896484 1368.508911,1507.204102 1372.701782,1503.876465 
	C1374.441162,1513.092041 1374.425537,1522.933472 1372.733887,1530.590210 
	C1368.978760,1547.587891 1360.506958,1555.913818 1343.440796,1558.947998 
	C1327.367676,1561.805420 1313.136475,1557.355835 1300.396851,1547.496460 
	C1297.610596,1545.339966 1294.838257,1543.165771 1291.642700,1540.674927 
	C1282.494629,1550.282715 1273.291504,1558.299194 1265.382568,1567.605713 
	C1272.181641,1577.671387 1280.992798,1583.450928 1290.740601,1587.998535 
	C1309.083130,1596.555420 1328.350220,1598.620239 1348.297119,1596.196777 
	C1367.429932,1593.872437 1384.411621,1587.242065 1398.411621,1571.373901 
M1579.189087,1661.809082 
	C1557.922363,1659.288940 1538.404297,1662.736816 1521.613281,1681.152344 
	C1521.613281,1649.929688 1521.613281,1621.424316 1521.613281,1592.371948 
	C1500.333374,1592.371948 1479.916260,1592.371948 1458.705933,1592.371948 
	C1457.876831,1604.502197 1457.846313,1615.896484 1458.661377,1628.398926 
	C1466.357910,1628.398926 1472.852539,1628.398926 1479.485107,1628.398926 
	C1479.485107,1688.638550 1479.485107,1747.744263 1479.485107,1807.394531 
	C1472.382324,1807.713013 1465.888184,1808.004150 1458.683350,1808.327148 
	C1457.907715,1820.554077 1457.818237,1831.948608 1458.593140,1843.124268 
	C1473.313110,1845.211914 1536.484741,1844.548218 1543.353516,1842.385864 
	C1543.353516,1831.273193 1543.353516,1820.119507 1543.353516,1808.408081 
	C1535.988403,1807.964600 1529.240234,1807.558228 1522.244019,1807.136963 
	C1522.244019,1781.393311 1522.029053,1756.758667 1522.418457,1732.133667 
	C1522.500000,1726.972290 1524.169678,1721.576050 1526.212158,1716.756348 
	C1531.523071,1704.224487 1542.371704,1697.950073 1556.592041,1698.355103 
	C1570.677002,1698.755981 1581.235229,1705.769897 1585.471191,1718.869629 
	C1587.481445,1725.086914 1588.314941,1731.905396 1588.431152,1738.473633 
	C1588.796387,1759.125488 1588.595459,1779.787842 1588.532227,1800.445801 
	C1588.525391,1802.651978 1587.980713,1804.856567 1587.541382,1808.139160 
	C1580.596924,1808.139160 1574.135498,1808.139160 1567.032349,1808.139160 
	C1566.461182,1820.722046 1566.098633,1832.113770 1567.134888,1843.265747 
	C1584.427856,1845.313110 1644.121948,1844.566650 1651.119995,1842.319702 
	C1651.119995,1831.256592 1651.119995,1820.115601 1651.119995,1808.314453 
	C1644.003906,1807.954102 1637.558228,1807.627686 1630.352295,1807.262817 
	C1630.352295,1802.672729 1630.359985,1799.063843 1630.350952,1795.454956 
	C1630.288940,1770.466431 1630.812012,1745.458984 1630.005981,1720.494385 
	C1629.059448,1691.183716 1609.302979,1666.289185 1579.189087,1661.809082 
M932.549805,1658.615845 
	C937.092346,1658.615845 941.634888,1658.615845 947.627563,1658.615845 
	C947.627563,1648.431763 947.627563,1639.689209 947.627563,1630.358765 
	C962.229248,1630.403076 975.340332,1630.199341 988.172363,1630.464111 
	C990.600403,1645.894043 989.790039,1800.539185 987.102966,1808.093994 
	C980.023499,1808.093994 972.520447,1808.093994 964.272034,1808.093994 
	C963.864075,1820.596313 963.803284,1831.995605 964.242004,1843.551025 
	C996.179626,1843.551025 1026.667480,1843.551025 1057.608398,1843.551025 
	C1057.608398,1831.513428 1057.608398,1820.108398 1057.608398,1807.636353 
	C1049.399048,1807.636353 1041.898682,1807.636353 1034.105225,1807.636353 
	C1034.105225,1748.137207 1034.105225,1689.715210 1034.105225,1630.954834 
	C1047.935913,1630.954834 1061.075317,1630.954834 1075.618164,1630.954834 
	C1075.618164,1640.291016 1075.618164,1649.062866 1075.618164,1658.605103 
	C1087.297729,1658.605103 1097.580688,1658.635986 1107.863281,1658.577515 
	C1109.783936,1658.566528 1111.702515,1658.197632 1113.416504,1658.015747 
	C1115.945068,1647.723267 1115.584961,1599.720459 1113.057251,1592.405273 
	C1044.948975,1592.405273 976.828613,1592.405273 908.261475,1592.405273 
	C908.261475,1614.628662 908.261475,1636.102417 908.261475,1658.615845 
	C916.123779,1658.615845 923.408203,1658.615845 932.549805,1658.615845 
M1575.642944,1369.371338 
	C1575.642944,1379.898560 1575.642944,1390.425903 1575.642944,1401.295898 
	C1589.509277,1401.295898 1601.941895,1401.295898 1615.656494,1401.295898 
	C1615.656494,1393.819580 1615.656494,1387.005859 1615.656494,1380.519043 
	C1626.973633,1376.760498 1637.343994,1377.171631 1647.593384,1378.162231 
	C1667.965332,1380.131348 1678.204590,1397.017822 1671.309326,1417.815796 
	C1668.330322,1417.815796 1665.050659,1417.804321 1661.770996,1417.817627 
	C1649.779785,1417.866089 1637.777588,1417.619019 1625.800537,1418.058350 
	C1612.687622,1418.539551 1600.096191,1421.499878 1588.566040,1428.101562 
	C1577.344116,1434.526733 1569.702637,1443.890869 1566.306763,1456.372070 
	C1563.199829,1467.791138 1563.045654,1479.340576 1565.701172,1490.960205 
	C1568.434814,1502.921875 1575.057495,1512.018677 1584.849243,1519.206299 
	C1607.508179,1535.839111 1654.501709,1533.492310 1670.331665,1513.940796 
	C1670.989258,1513.128662 1672.360352,1512.894287 1673.655640,1512.266479 
	C1673.952271,1516.910522 1674.202515,1520.827271 1674.497437,1525.443359 
	C1694.496216,1525.443359 1713.970215,1525.443359 1734.040771,1525.443359 
	C1734.040771,1513.661499 1734.040771,1502.153198 1734.040771,1489.500977 
	C1727.092529,1489.500977 1720.592896,1489.500977 1713.044189,1489.500977 
	C1713.044189,1485.112061 1713.044312,1481.859985 1713.044189,1478.607788 
	C1713.044067,1456.288696 1713.123901,1433.969116 1712.996704,1411.650757 
	C1712.956909,1404.666016 1712.682861,1397.650879 1711.959473,1390.707642 
	C1709.475464,1366.862427 1696.869141,1351.728149 1673.855347,1346.420410 
	C1644.309326,1339.606079 1615.021851,1340.975220 1586.459351,1351.796387 
	C1575.690918,1355.876099 1575.728271,1355.974609 1575.642944,1369.371338 
M817.797791,1342.772705 
	C814.829224,1343.177979 811.832031,1343.437012 808.896484,1344.011230 
	C780.796509,1349.507324 760.634094,1364.811279 752.405396,1392.760620 
	C743.750977,1422.155762 743.937012,1451.909424 753.301514,1481.265137 
	C760.621094,1504.210693 776.420776,1518.791870 799.148132,1526.184326 
	C812.718994,1530.598755 826.680725,1530.961914 840.653320,1529.661865 
	C862.870911,1527.594727 882.659546,1519.790283 898.292419,1503.219116 
	C900.021240,1501.386841 901.278809,1499.109985 903.327576,1496.235840 
	C894.230164,1488.223267 885.667664,1480.681885 877.145996,1473.176392 
	C874.901917,1474.805054 873.707886,1475.435181 872.813354,1476.356201 
	C859.421936,1490.145508 842.759949,1493.960571 824.328796,1492.206665 
	C803.117249,1490.188354 788.599976,1472.904053 789.779785,1450.017334 
	C808.912415,1450.017334 828.124146,1450.109375 847.334595,1449.991455 
	C866.470825,1449.873901 885.636658,1450.513062 905.086304,1449.563599 
	C905.346619,1445.613647 905.787537,1442.994141 905.642395,1440.407471 
	C905.064758,1430.109619 904.903809,1419.739502 903.503052,1409.545410 
	C898.688721,1374.507812 879.300171,1352.031128 847.342957,1344.975830 
	C838.360840,1342.992920 828.866821,1343.328613 817.797791,1342.772705 
M1224.990723,1768.182251 
	C1235.138916,1767.795410 1245.386719,1769.023315 1255.769531,1767.315063 
	C1256.695923,1749.971680 1255.799561,1733.750244 1252.148315,1717.783081 
	C1245.598877,1689.142822 1228.057739,1670.565796 1199.434326,1663.993774 
	C1188.615967,1661.509888 1176.949463,1661.171997 1165.810059,1661.927612 
	C1133.537842,1664.117065 1109.719360,1684.449097 1101.916626,1715.907837 
	C1095.387085,1742.233643 1095.511475,1768.781738 1102.683716,1794.946655 
	C1110.444214,1823.257324 1129.230469,1840.729126 1158.065674,1846.070435 
	C1169.051025,1848.105469 1180.629517,1848.341309 1191.815186,1847.585205 
	C1211.534058,1846.252441 1229.468506,1839.400513 1244.339722,1825.875977 
	C1247.708008,1822.812622 1250.560791,1819.182129 1254.510498,1814.875610 
	C1245.103882,1806.654419 1236.455933,1799.096436 1227.696655,1791.441040 
	C1225.350342,1793.267700 1223.671631,1794.341187 1222.270874,1795.701172 
	C1207.869995,1809.680054 1190.337158,1812.842651 1171.371582,1809.872437 
	C1151.926636,1806.827271 1137.563721,1786.929443 1141.345459,1768.182251 
	C1168.459473,1768.182251 1195.727051,1768.182251 1224.990723,1768.182251 
M1086.090210,1474.996582 
	C1091.773315,1451.305542 1091.857544,1427.398315 1087.457275,1403.621582 
	C1082.185913,1375.137207 1066.128662,1355.189575 1037.957031,1346.412354 
	C1024.141724,1342.107666 1009.899841,1341.304321 995.481140,1343.701660 
	C965.084229,1348.755737 944.209351,1364.905640 935.747986,1395.130371 
	C928.895386,1419.608765 928.773499,1444.471313 933.719360,1469.299805 
	C940.572327,1503.701172 961.313660,1524.232666 995.840576,1529.162231 
	C1037.976807,1535.178101 1074.861450,1517.339111 1086.090210,1474.996582 
M1347.907959,1847.582520 
	C1370.373413,1849.350708 1392.479492,1848.036987 1413.798218,1839.926270 
	C1428.348877,1834.390503 1428.351685,1834.396729 1428.352295,1818.550415 
	C1428.352661,1807.649170 1428.352173,1796.747925 1428.352173,1785.231689 
	C1415.050537,1785.231689 1402.911255,1785.231689 1389.373779,1785.231689 
	C1389.373779,1790.249634 1389.435059,1794.805786 1389.360229,1799.359619 
	C1389.229492,1807.307373 1388.414795,1808.949829 1380.517944,1809.643921 
	C1371.629272,1810.425171 1362.491577,1810.851562 1353.699585,1809.667969 
	C1340.735596,1807.922974 1331.874146,1799.927368 1328.303711,1787.247314 
	C1326.427734,1780.584961 1325.605835,1773.536011 1325.076294,1766.602905 
	C1323.957031,1751.950806 1324.192505,1737.284180 1328.089600,1722.985229 
	C1331.203857,1711.558716 1338.546387,1703.775757 1350.000244,1700.413574 
	C1360.798950,1697.243530 1371.731689,1697.787964 1382.605591,1700.283325 
	C1387.486694,1701.403564 1389.852417,1704.154785 1389.481079,1709.541016 
	C1389.149902,1714.343506 1389.752808,1719.210571 1389.936035,1723.861938 
	C1403.301880,1723.861938 1415.440430,1723.861938 1428.351562,1723.861938 
	C1428.351562,1710.836426 1427.791870,1698.520142 1428.548462,1686.285278 
	C1429.052246,1678.139893 1425.624390,1674.398682 1418.651367,1671.424438 
	C1394.320679,1661.046997 1369.003662,1658.358643 1343.322510,1663.014038 
	C1310.804932,1668.908813 1290.678833,1689.393677 1284.739014,1721.816650 
	C1280.323120,1745.921021 1280.386841,1770.266602 1286.051147,1794.235352 
	C1292.435669,1821.251587 1309.171631,1838.583618 1336.324951,1845.407715 
	C1339.547729,1846.217773 1342.856812,1846.684204 1347.907959,1847.582520 
M1136.559692,1479.052002 
	C1136.559692,1482.303101 1136.559692,1485.554199 1136.559692,1489.843750 
	C1128.918213,1489.843750 1122.404175,1489.843750 1114.995239,1489.843750 
	C1114.541138,1502.328979 1113.826538,1513.764404 1115.391846,1525.009888 
	C1129.229370,1527.360718 1194.865967,1526.605103 1201.472656,1524.163330 
	C1201.472656,1512.968262 1201.472656,1501.760010 1201.472656,1489.312134 
	C1193.807617,1489.312134 1186.683228,1489.312134 1179.486206,1489.312134 
	C1179.091309,1486.835938 1178.712646,1485.557129 1178.709473,1484.277222 
	C1178.661621,1464.962891 1178.560913,1445.647705 1178.727173,1426.334717 
	C1178.767090,1421.703125 1179.407227,1417.013428 1180.331299,1412.464111 
	C1183.873291,1395.025269 1194.693115,1385.047363 1212.547485,1383.666138 
	C1219.749634,1383.109009 1227.099487,1384.322876 1234.371582,1384.871582 
	C1237.559814,1385.112183 1240.721558,1385.704956 1245.317383,1386.331665 
	C1245.317383,1373.535889 1245.488525,1361.964111 1245.115845,1350.409668 
	C1245.065186,1348.844116 1242.500244,1346.378906 1240.739624,1345.999268 
	C1220.488647,1341.631714 1201.643311,1343.609741 1186.178345,1359.222900 
	C1184.223633,1361.196167 1182.271851,1363.172363 1179.303955,1366.173340 
	C1178.760376,1358.735229 1178.340454,1352.989502 1177.872192,1346.581299 
	C1158.143555,1346.581299 1139.532837,1346.613281 1120.922485,1346.556519 
	C1116.831909,1346.544067 1114.636475,1348.318481 1114.615845,1352.446167 
	C1114.574219,1360.771118 1114.590454,1369.096191 1114.604492,1377.421265 
	C1114.611450,1381.508057 1116.625122,1383.503296 1120.779663,1383.435547 
	C1125.688721,1383.355591 1130.600098,1383.416748 1136.560059,1383.416748 
	C1136.560059,1415.290039 1136.560059,1446.161011 1136.559692,1479.052002 
M1544.281250,1493.501709 
	C1543.728760,1489.154297 1540.395508,1489.748657 1537.447144,1489.653320 
	C1532.613037,1489.496948 1527.778931,1489.336182 1522.239258,1489.154175 
	C1522.239258,1441.331787 1522.239258,1394.758301 1522.239258,1348.415283 
	C1512.814331,1345.719116 1466.691040,1345.944092 1459.471436,1348.495239 
	C1457.607300,1361.155151 1458.125977,1376.205933 1460.983887,1383.518799 
	C1466.855103,1383.518799 1473.075317,1383.518799 1479.670898,1383.518799 
	C1479.670898,1419.139771 1479.670898,1453.900635 1479.670898,1489.848389 
	C1472.604126,1489.848389 1466.134644,1489.848389 1459.005859,1489.848389 
	C1458.433105,1502.486694 1458.183105,1513.916016 1459.046265,1525.113525 
	C1474.381470,1527.319702 1536.986938,1526.568848 1543.628418,1524.303467 
	C1543.826294,1523.668823 1544.191284,1523.035645 1544.196655,1522.399292 
	C1544.273560,1513.402832 1544.301758,1504.406006 1544.281250,1493.501709 
M1521.992554,1275.179932 
	C1519.244263,1274.422363 1516.516479,1273.114746 1513.743896,1273.011719 
	C1505.764404,1272.715210 1497.765503,1272.825684 1489.776855,1272.946655 
	C1486.909058,1272.990112 1484.048340,1273.519165 1481.458374,1273.797241 
	C1479.437378,1285.743286 1479.857910,1305.187378 1482.208618,1312.336060 
	C1495.201660,1312.336060 1508.299072,1312.336060 1522.328857,1312.336060 
	C1522.328857,1300.014526 1522.328857,1288.438110 1521.992554,1275.179932 
M1583.475830,1107.379517 
	C1581.092773,1106.242798 1578.815674,1104.716064 1576.308838,1104.035767 
	C1564.330811,1100.785522 1552.011841,1108.541260 1549.969482,1120.418457 
	C1547.689453,1133.676636 1555.866699,1145.047119 1568.487183,1146.167847 
	C1581.770386,1147.347412 1591.838989,1138.260132 1592.016479,1125.050293 
	C1592.107056,1118.304688 1589.647217,1112.768677 1583.475830,1107.379517 
M1714.239014,1826.724243 
	C1714.058716,1824.744995 1714.206177,1822.666504 1713.642334,1820.803345 
	C1710.920044,1811.806274 1703.242432,1806.785767 1693.870361,1807.651733 
	C1685.395996,1808.434692 1678.550781,1815.389404 1677.793701,1823.985596 
	C1676.982544,1833.195435 1682.544678,1841.628174 1690.931763,1843.904053 
	C1699.792725,1846.308472 1708.223022,1842.431641 1712.449219,1833.837646 
	C1713.308350,1832.090576 1713.603027,1830.065796 1714.239014,1826.724243 
z"/>
<path fill="#62768E" opacity="1.000000" stroke="none" 
	d="
M3.000000,2.000000 
	C4.101012,6.327359 4.290449,10.654716 4.290525,14.982077 
	C4.303573,756.368042 4.303162,1497.753906 4.299129,2239.139893 
	C4.299109,2242.804688 4.239881,2246.469727 4.104146,2251.067383 
	C3.333322,2251.666748 2.112374,2251.368164 2.088909,2250.994385 
	C1.922029,2248.338135 2.000000,2245.666748 2.000000,2243.000000 
	C2.000000,1496.000000 2.000000,749.000000 3.000000,2.000000 
z"/>
<path fill="#A8975C" opacity="1.000000" stroke="none" 
	d="
M806.016602,417.947449 
	C854.277039,406.271362 902.186829,403.976532 950.679382,409.561920 
	C1006.224609,415.959595 1058.977661,431.185852 1108.510986,457.259247 
	C1114.399536,460.358948 1120.200317,463.625610 1126.059814,466.781158 
	C1126.274414,466.896698 1126.681885,466.654144 1128.320312,466.263855 
	C1128.320312,448.896881 1128.320312,431.159943 1128.320312,412.733490 
	C1167.395020,412.733490 1205.152466,412.733490 1243.603271,412.733490 
	C1243.603271,478.931671 1243.603271,544.686157 1243.603271,611.706787 
	C1239.461304,611.706787 1235.895752,611.706787 1232.330200,611.706787 
	C1202.334351,611.706848 1172.334717,611.441467 1142.345337,611.880493 
	C1134.137573,612.000671 1127.802002,609.799316 1121.524536,604.582214 
	C1083.415527,572.910278 1039.898193,551.909058 991.655029,541.057617 
	C923.027832,525.621155 857.691956,533.865356 797.477722,571.446106 
	C750.750549,600.609314 719.346924,641.689331 707.998108,696.242981 
	C693.944031,763.800110 714.640076,819.156311 769.206116,861.433289 
	C800.876526,885.971008 837.243347,900.476868 876.122437,908.890930 
	C924.411560,919.341431 972.652222,920.223389 1020.414734,905.965454 
	C1066.611694,892.175110 1105.075073,867.312866 1131.411011,825.913757 
	C1141.312012,810.349670 1148.131104,793.495361 1151.596069,774.487427 
	C1137.000244,774.487427 1123.147949,774.487427 1107.853271,774.487427 
	C1104.307983,792.290466 1100.709351,810.361572 1097.038086,828.797913 
	C1063.828125,828.797913 1031.373779,828.797913 998.382812,828.797913 
	C998.382812,767.237793 998.382812,706.395264 998.382812,645.670166 
	C1005.945984,643.676025 1698.287231,642.986511 1712.148071,644.841797 
	C1714.248169,651.837952 1714.790527,816.720825 1712.619263,828.785461 
	C1680.258667,828.785461 1647.756470,828.785461 1613.895508,828.785461 
	C1610.542725,811.160400 1607.145996,793.305054 1603.491089,774.091919 
	C1555.950806,773.612061 1508.542847,773.905640 1460.424927,773.906006 
	C1460.424927,859.459351 1460.424927,943.954041 1460.424927,1029.699707 
	C1470.426636,1030.911743 1480.658569,1030.121948 1490.822388,1030.261841 
	C1501.132690,1030.403809 1511.446289,1030.293213 1521.521729,1030.293213 
	C1524.178955,1037.621704 1524.806641,1133.205200 1522.367310,1145.625977 
	C1428.076660,1145.625977 1333.655518,1145.625977 1238.612793,1145.625977 
	C1238.612793,1107.200684 1238.612793,1069.414062 1238.612793,1030.341797 
	C1259.636475,1030.341797 1280.110840,1030.341797 1301.192993,1030.341797 
	C1301.192993,944.580566 1301.192993,860.103027 1301.192993,774.809265 
	C1287.801147,774.809265 1274.683350,774.809265 1260.199219,774.809265 
	C1259.461548,798.987976 1259.965942,823.174255 1259.875854,847.343201 
	C1259.783691,872.006104 1259.855591,896.669556 1259.855591,921.332764 
	C1259.855591,945.600403 1259.855469,969.868042 1259.855469,993.860718 
	C1251.852905,996.046814 1150.979370,996.617188 1137.472656,994.654297 
	C1137.046265,987.726562 1136.605713,980.567871 1136.117676,972.637939 
	C1133.420288,973.580566 1131.235107,974.104919 1129.264282,975.068054 
	C1082.440186,997.949646 1032.712280,1011.362854 981.564331,1019.847595 
	C943.748169,1026.120728 905.710571,1031.227905 867.259583,1029.614868 
	C778.093506,1025.874390 697.138733,998.897522 627.801758,941.538025 
	C580.903137,902.740906 547.372253,854.585571 532.278381,794.932312 
	C515.379578,728.145874 525.636841,664.659058 557.650513,604.369629 
	C588.934326,545.454590 634.907715,500.410583 691.284790,465.619293 
	C726.700073,443.763947 764.766785,428.035431 806.016602,417.947449 
z"/>
<path fill="#FCFCFC" opacity="1.000000" stroke="none" 
	d="
M682.713745,1520.673096 
	C652.672241,1531.218384 622.728455,1533.458618 592.475647,1526.442383 
	C555.537964,1517.875977 532.253357,1491.466187 528.157715,1453.966919 
	C524.383301,1419.408691 524.172546,1384.760132 528.238953,1350.219482 
	C530.750183,1328.888062 538.405640,1309.581299 554.166992,1294.209839 
	C567.278625,1281.422729 583.282166,1274.580200 601.082947,1271.505737 
	C629.612915,1266.578247 657.482605,1268.491211 684.399841,1279.790527 
	C687.465515,1281.077637 690.496277,1282.482056 693.428833,1284.046509 
	C709.866943,1292.817017 710.187317,1293.389648 710.188293,1311.755127 
	C710.188843,1323.047852 710.188416,1334.340454 710.188416,1345.327393 
	C702.613586,1347.790527 683.404053,1348.278809 669.444519,1346.390137 
	C669.288086,1340.499268 668.513977,1334.281860 669.118103,1328.201294 
	C669.847900,1320.855103 666.481079,1317.090942 660.252075,1314.624146 
	C643.291443,1307.907959 625.972168,1306.617676 608.353699,1311.362549 
	C591.445129,1315.916382 580.538757,1327.131836 576.172119,1343.764160 
	C573.403625,1354.309082 572.061951,1365.346436 571.202759,1376.251221 
	C569.235474,1401.218506 569.294922,1426.244507 573.797363,1450.964722 
	C578.188171,1475.072021 594.212952,1488.758911 618.702881,1490.085327 
	C632.042297,1490.807739 645.367126,1490.695068 658.223938,1486.151611 
	C670.505676,1481.811401 671.638794,1480.288086 671.645020,1467.585205 
	C671.651917,1453.637695 671.646606,1439.690186 671.646606,1424.475708 
	C663.740051,1424.370728 656.561340,1424.237549 649.382019,1424.190552 
	C642.081299,1424.142822 634.780029,1424.180176 626.087280,1424.180176 
	C625.269409,1411.844238 625.676086,1400.076294 625.836121,1388.512817 
	C633.960327,1386.041870 703.791931,1385.806152 713.596741,1388.196411 
	C713.782166,1390.832275 714.158020,1393.718750 714.161804,1396.605713 
	C714.203857,1428.605347 713.942505,1460.608154 714.359192,1492.602417 
	C714.464722,1500.701294 711.667358,1506.048218 704.794800,1509.597534 
	C697.708008,1513.257446 690.552673,1516.784790 682.713745,1520.673096 
z"/>
<path fill="#FBFCFC" opacity="1.000000" stroke="none" 
	d="
M1397.964844,1571.929688 
	C1384.411621,1587.242065 1367.429932,1593.872437 1348.297119,1596.196777 
	C1328.350220,1598.620239 1309.083130,1596.555420 1290.740601,1587.998535 
	C1280.992798,1583.450928 1272.181641,1577.671387 1265.382568,1567.605713 
	C1273.291504,1558.299194 1282.494629,1550.282715 1291.642700,1540.674927 
	C1294.838257,1543.165771 1297.610596,1545.339966 1300.396851,1547.496460 
	C1313.136475,1557.355835 1327.367676,1561.805420 1343.440796,1558.947998 
	C1360.506958,1555.913818 1368.978760,1547.587891 1372.733887,1530.590210 
	C1374.425537,1522.933472 1374.441162,1513.092041 1372.701782,1503.876465 
	C1368.508911,1507.204102 1364.733643,1510.896484 1360.340454,1513.575317 
	C1329.405029,1532.438721 1285.093750,1519.040039 1269.711670,1486.395386 
	C1264.223633,1474.748291 1262.145386,1462.326294 1261.010620,1449.668457 
	C1259.151978,1428.937256 1259.805298,1408.345337 1265.792969,1388.278809 
	C1277.511475,1349.006226 1317.624634,1330.790894 1355.125000,1347.888672 
	C1361.528687,1350.808350 1367.001099,1355.770508 1373.620850,1360.277466 
	C1373.875244,1356.097900 1374.106323,1352.301758 1374.324707,1348.713135 
	C1381.852783,1346.001343 1427.678345,1345.677124 1437.425415,1348.254150 
	C1437.425415,1359.273438 1437.425415,1370.461182 1437.425415,1382.664185 
	C1430.479248,1383.127441 1423.704468,1383.579346 1416.022339,1384.091797 
	C1416.022339,1388.207886 1416.022461,1391.794800 1416.022461,1395.381714 
	C1416.021484,1435.375610 1416.074219,1475.369507 1415.997314,1515.363281 
	C1415.957886,1535.826416 1411.813843,1555.071777 1397.964844,1571.929688 
M1303.633667,1416.925415 
	C1301.206665,1433.302734 1301.975464,1449.447388 1308.165039,1464.939087 
	C1313.447998,1478.162476 1323.803467,1484.095825 1337.852173,1484.172363 
	C1351.772095,1484.248291 1362.804199,1479.018066 1368.054443,1465.728638 
	C1376.822388,1443.535400 1376.424316,1420.971191 1368.271851,1398.621460 
	C1365.537109,1391.123901 1360.149292,1385.756104 1352.722534,1382.649414 
	C1332.436279,1374.163452 1312.419922,1383.532104 1306.118774,1404.522827 
	C1305.074707,1408.001221 1304.569824,1411.641357 1303.633667,1416.925415 
z"/>
<path fill="#FCFCFD" opacity="1.000000" stroke="none" 
	d="
M1580.032104,1661.895630 
	C1609.302979,1666.289185 1629.059448,1691.183716 1630.005981,1720.494385 
	C1630.812012,1745.458984 1630.288940,1770.466431 1630.350952,1795.454956 
	C1630.359985,1799.063843 1630.352295,1802.672729 1630.352295,1807.262817 
	C1637.558228,1807.627686 1644.003906,1807.954102 1651.119995,1808.314453 
	C1651.119995,1820.115601 1651.119995,1831.256592 1651.119995,1842.319702 
	C1644.121948,1844.566650 1584.427856,1845.313110 1567.134888,1843.265747 
	C1566.098633,1832.113770 1566.461182,1820.722046 1567.032349,1808.139160 
	C1574.135498,1808.139160 1580.596924,1808.139160 1587.541382,1808.139160 
	C1587.980713,1804.856567 1588.525391,1802.651978 1588.532227,1800.445801 
	C1588.595459,1779.787842 1588.796387,1759.125488 1588.431152,1738.473633 
	C1588.314941,1731.905396 1587.481445,1725.086914 1585.471191,1718.869629 
	C1581.235229,1705.769897 1570.677002,1698.755981 1556.592041,1698.355103 
	C1542.371704,1697.950073 1531.523071,1704.224487 1526.212158,1716.756348 
	C1524.169678,1721.576050 1522.500000,1726.972290 1522.418457,1732.133667 
	C1522.029053,1756.758667 1522.244019,1781.393311 1522.244019,1807.136963 
	C1529.240234,1807.558228 1535.988403,1807.964600 1543.353516,1808.408081 
	C1543.353516,1820.119507 1543.353516,1831.273193 1543.353516,1842.385864 
	C1536.484741,1844.548218 1473.313110,1845.211914 1458.593140,1843.124268 
	C1457.818237,1831.948608 1457.907715,1820.554077 1458.683350,1808.327148 
	C1465.888184,1808.004150 1472.382324,1807.713013 1479.485107,1807.394531 
	C1479.485107,1747.744263 1479.485107,1688.638550 1479.485107,1628.398926 
	C1472.852539,1628.398926 1466.357910,1628.398926 1458.661377,1628.398926 
	C1457.846313,1615.896484 1457.876831,1604.502197 1458.705933,1592.371948 
	C1479.916260,1592.371948 1500.333374,1592.371948 1521.613281,1592.371948 
	C1521.613281,1621.424316 1521.613281,1649.929688 1521.613281,1681.152344 
	C1538.404297,1662.736816 1557.922363,1659.288940 1580.032104,1661.895630 
z"/>
<path fill="#FCFDFD" opacity="1.000000" stroke="none" 
	d="
M931.621216,1658.615845 
	C923.408203,1658.615845 916.123779,1658.615845 908.261475,1658.615845 
	C908.261475,1636.102417 908.261475,1614.628662 908.261475,1592.405273 
	C976.828613,1592.405273 1044.948975,1592.405273 1113.057251,1592.405273 
	C1115.584961,1599.720459 1115.945068,1647.723267 1113.416504,1658.015747 
	C1111.702515,1658.197632 1109.783936,1658.566528 1107.863281,1658.577515 
	C1097.580688,1658.635986 1087.297729,1658.605103 1075.618164,1658.605103 
	C1075.618164,1649.062866 1075.618164,1640.291016 1075.618164,1630.954834 
	C1061.075317,1630.954834 1047.935913,1630.954834 1034.105225,1630.954834 
	C1034.105225,1689.715210 1034.105225,1748.137207 1034.105225,1807.636353 
	C1041.898682,1807.636353 1049.399048,1807.636353 1057.608398,1807.636353 
	C1057.608398,1820.108398 1057.608398,1831.513428 1057.608398,1843.551025 
	C1026.667480,1843.551025 996.179626,1843.551025 964.242004,1843.551025 
	C963.803284,1831.995605 963.864075,1820.596313 964.272034,1808.093994 
	C972.520447,1808.093994 980.023499,1808.093994 987.102966,1808.093994 
	C989.790039,1800.539185 990.600403,1645.894043 988.172363,1630.464111 
	C975.340332,1630.199341 962.229248,1630.403076 947.627563,1630.358765 
	C947.627563,1639.689209 947.627563,1648.431763 947.627563,1658.615845 
	C941.634888,1658.615845 937.092346,1658.615845 931.621216,1658.615845 
z"/>
<path fill="#FBFBFC" opacity="1.000000" stroke="none" 
	d="
M1575.643066,1368.434204 
	C1575.728271,1355.974609 1575.690918,1355.876099 1586.459351,1351.796387 
	C1615.021851,1340.975220 1644.309326,1339.606079 1673.855347,1346.420410 
	C1696.869141,1351.728149 1709.475464,1366.862427 1711.959473,1390.707642 
	C1712.682861,1397.650879 1712.956909,1404.666016 1712.996704,1411.650757 
	C1713.123901,1433.969116 1713.044067,1456.288696 1713.044189,1478.607788 
	C1713.044312,1481.859985 1713.044189,1485.112061 1713.044189,1489.500977 
	C1720.592896,1489.500977 1727.092529,1489.500977 1734.040771,1489.500977 
	C1734.040771,1502.153198 1734.040771,1513.661499 1734.040771,1525.443359 
	C1713.970215,1525.443359 1694.496216,1525.443359 1674.497437,1525.443359 
	C1674.202515,1520.827271 1673.952271,1516.910522 1673.655640,1512.266479 
	C1672.360352,1512.894287 1670.989258,1513.128662 1670.331665,1513.940796 
	C1654.501709,1533.492310 1607.508179,1535.839111 1584.849243,1519.206299 
	C1575.057495,1512.018677 1568.434814,1502.921875 1565.701172,1490.960205 
	C1563.045654,1479.340576 1563.199829,1467.791138 1566.306763,1456.372070 
	C1569.702637,1443.890869 1577.344116,1434.526733 1588.566040,1428.101562 
	C1600.096191,1421.499878 1612.687622,1418.539551 1625.800537,1418.058350 
	C1637.777588,1417.619019 1649.779785,1417.866089 1661.770996,1417.817627 
	C1665.050659,1417.804321 1668.330322,1417.815796 1671.309326,1417.815796 
	C1678.204590,1397.017822 1667.965332,1380.131348 1647.593384,1378.162231 
	C1637.343994,1377.171631 1626.973633,1376.760498 1615.656494,1380.519043 
	C1615.656494,1387.005859 1615.656494,1393.819580 1615.656494,1401.295898 
	C1601.941895,1401.295898 1589.509277,1401.295898 1575.642944,1401.295898 
	C1575.642944,1390.425903 1575.642944,1379.898560 1575.643066,1368.434204 
M1604.016357,1474.803101 
	C1604.550537,1486.152222 1610.981445,1492.399414 1621.615234,1494.715332 
	C1633.245972,1497.248779 1644.793335,1496.747437 1656.015381,1492.608154 
	C1663.985107,1489.668701 1669.686401,1484.202393 1671.815552,1475.854614 
	C1673.960449,1467.445312 1674.139282,1458.874023 1672.437134,1449.563354 
	C1659.880737,1449.563354 1647.611572,1449.365723 1635.354492,1449.664917 
	C1630.754761,1449.777222 1626.071533,1450.638550 1621.621094,1451.865234 
	C1610.919922,1454.814575 1604.314453,1461.457397 1604.016357,1474.803101 
z"/>
<path fill="#FBFBFC" opacity="1.000000" stroke="none" 
	d="
M818.702759,1342.686768 
	C828.866821,1343.328613 838.360840,1342.992920 847.342957,1344.975830 
	C879.300171,1352.031128 898.688721,1374.507812 903.503052,1409.545410 
	C904.903809,1419.739502 905.064758,1430.109619 905.642395,1440.407471 
	C905.787537,1442.994141 905.346619,1445.613647 905.086304,1449.563599 
	C885.636658,1450.513062 866.470825,1449.873901 847.334595,1449.991455 
	C828.124146,1450.109375 808.912415,1450.017334 789.779785,1450.017334 
	C788.599976,1472.904053 803.117249,1490.188354 824.328796,1492.206665 
	C842.759949,1493.960571 859.421936,1490.145508 872.813354,1476.356201 
	C873.707886,1475.435181 874.901917,1474.805054 877.145996,1473.176392 
	C885.667664,1480.681885 894.230164,1488.223267 903.327576,1496.235840 
	C901.278809,1499.109985 900.021240,1501.386841 898.292419,1503.219116 
	C882.659546,1519.790283 862.870911,1527.594727 840.653320,1529.661865 
	C826.680725,1530.961914 812.718994,1530.598755 799.148132,1526.184326 
	C776.420776,1518.791870 760.621094,1504.210693 753.301514,1481.265137 
	C743.937012,1451.909424 743.750977,1422.155762 752.405396,1392.760620 
	C760.634094,1364.811279 780.796509,1349.507324 808.896484,1344.011230 
	C811.832031,1343.437012 814.829224,1343.177979 818.702759,1342.686768 
M811.886230,1380.139404 
	C795.030945,1387.446655 786.763245,1401.745361 790.220093,1417.668945 
	C814.345276,1417.668945 838.473633,1417.668945 862.536438,1417.668945 
	C864.296021,1395.759033 851.168152,1379.794922 830.278992,1378.382202 
	C824.734436,1378.007324 819.078796,1379.276733 811.886230,1380.139404 
z"/>
<path fill="#FBFCFC" opacity="1.000000" stroke="none" 
	d="
M1223.992676,1768.182251 
	C1195.727051,1768.182251 1168.459473,1768.182251 1141.345459,1768.182251 
	C1137.563721,1786.929443 1151.926636,1806.827271 1171.371582,1809.872437 
	C1190.337158,1812.842651 1207.869995,1809.680054 1222.270874,1795.701172 
	C1223.671631,1794.341187 1225.350342,1793.267700 1227.696655,1791.441040 
	C1236.455933,1799.096436 1245.103882,1806.654419 1254.510498,1814.875610 
	C1250.560791,1819.182129 1247.708008,1822.812622 1244.339722,1825.875977 
	C1229.468506,1839.400513 1211.534058,1846.252441 1191.815186,1847.585205 
	C1180.629517,1848.341309 1169.051025,1848.105469 1158.065674,1846.070435 
	C1129.230469,1840.729126 1110.444214,1823.257324 1102.683716,1794.946655 
	C1095.511475,1768.781738 1095.387085,1742.233643 1101.916626,1715.907837 
	C1109.719360,1684.449097 1133.537842,1664.117065 1165.810059,1661.927612 
	C1176.949463,1661.171997 1188.615967,1661.509888 1199.434326,1663.993774 
	C1228.057739,1670.565796 1245.598877,1689.142822 1252.148315,1717.783081 
	C1255.799561,1733.750244 1256.695923,1749.971680 1255.769531,1767.315063 
	C1245.386719,1769.023315 1235.138916,1767.795410 1223.992676,1768.182251 
M1139.890503,1733.184204 
	C1140.484253,1737.774292 1144.130127,1736.527222 1146.791504,1736.539673 
	C1167.354370,1736.636108 1187.918091,1736.604614 1208.481323,1736.557007 
	C1210.066406,1736.553345 1211.650269,1736.122681 1213.112305,1735.908447 
	C1214.727417,1719.645996 1207.926025,1706.750610 1194.671753,1700.344482 
	C1168.580078,1687.733521 1142.392212,1702.555542 1139.890503,1733.184204 
z"/>
<path fill="#FBFCFC" opacity="1.000000" stroke="none" 
	d="
M1085.922974,1475.792236 
	C1074.861450,1517.339111 1037.976807,1535.178101 995.840576,1529.162231 
	C961.313660,1524.232666 940.572327,1503.701172 933.719360,1469.299805 
	C928.773499,1444.471313 928.895386,1419.608765 935.747986,1395.130371 
	C944.209351,1364.905640 965.084229,1348.755737 995.481140,1343.701660 
	C1009.899841,1341.304321 1024.141724,1342.107666 1037.957031,1346.412354 
	C1066.128662,1355.189575 1082.185913,1375.137207 1087.457275,1403.621582 
	C1091.857544,1427.398315 1091.773315,1451.305542 1085.922974,1475.792236 
M1022.573608,1381.652710 
	C1017.313538,1381.143066 1012.022217,1379.990723 1006.799377,1380.245117 
	C991.538513,1380.988403 980.889343,1388.981812 977.020630,1403.814941 
	C971.479919,1425.058228 971.726562,1446.699829 976.694580,1468.000488 
	C979.317993,1479.248413 986.479736,1487.990723 998.162292,1490.915161 
	C1019.231812,1496.189087 1039.982422,1490.687744 1045.522583,1463.301636 
	C1049.181274,1445.216797 1048.922729,1426.864258 1045.373657,1408.749756 
	C1042.955933,1396.409058 1036.985718,1386.352173 1022.573608,1381.652710 
z"/>
<path fill="#FCFCFD" opacity="1.000000" stroke="none" 
	d="
M1347.016968,1847.446167 
	C1342.856812,1846.684204 1339.547729,1846.217773 1336.324951,1845.407715 
	C1309.171631,1838.583618 1292.435669,1821.251587 1286.051147,1794.235352 
	C1280.386841,1770.266602 1280.323120,1745.921021 1284.739014,1721.816650 
	C1290.678833,1689.393677 1310.804932,1668.908813 1343.322510,1663.014038 
	C1369.003662,1658.358643 1394.320679,1661.046997 1418.651367,1671.424438 
	C1425.624390,1674.398682 1429.052246,1678.139893 1428.548462,1686.285278 
	C1427.791870,1698.520142 1428.351562,1710.836426 1428.351562,1723.861938 
	C1415.440430,1723.861938 1403.301880,1723.861938 1389.936035,1723.861938 
	C1389.752808,1719.210571 1389.149902,1714.343506 1389.481079,1709.541016 
	C1389.852417,1704.154785 1387.486694,1701.403564 1382.605591,1700.283325 
	C1371.731689,1697.787964 1360.798950,1697.243530 1350.000244,1700.413574 
	C1338.546387,1703.775757 1331.203857,1711.558716 1328.089600,1722.985229 
	C1324.192505,1737.284180 1323.957031,1751.950806 1325.076294,1766.602905 
	C1325.605835,1773.536011 1326.427734,1780.584961 1328.303711,1787.247314 
	C1331.874146,1799.927368 1340.735596,1807.922974 1353.699585,1809.667969 
	C1362.491577,1810.851562 1371.629272,1810.425171 1380.517944,1809.643921 
	C1388.414795,1808.949829 1389.229492,1807.307373 1389.360229,1799.359619 
	C1389.435059,1794.805786 1389.373779,1790.249634 1389.373779,1785.231689 
	C1402.911255,1785.231689 1415.050537,1785.231689 1428.352173,1785.231689 
	C1428.352173,1796.747925 1428.352661,1807.649170 1428.352295,1818.550415 
	C1428.351685,1834.396729 1428.348877,1834.390503 1413.798218,1839.926270 
	C1392.479492,1848.036987 1370.373413,1849.350708 1347.016968,1847.446167 
z"/>
<path fill="#F9FAFB" opacity="1.000000" stroke="none" 
	d="
M1136.559814,1478.041992 
	C1136.560059,1446.161011 1136.560059,1415.290039 1136.560059,1383.416748 
	C1130.600098,1383.416748 1125.688721,1383.355591 1120.779663,1383.435547 
	C1116.625122,1383.503296 1114.611450,1381.508057 1114.604492,1377.421265 
	C1114.590454,1369.096191 1114.574219,1360.771118 1114.615845,1352.446167 
	C1114.636475,1348.318481 1116.831909,1346.544067 1120.922485,1346.556519 
	C1139.532837,1346.613281 1158.143555,1346.581299 1177.872192,1346.581299 
	C1178.340454,1352.989502 1178.760376,1358.735229 1179.303955,1366.173340 
	C1182.271851,1363.172363 1184.223633,1361.196167 1186.178345,1359.222900 
	C1201.643311,1343.609741 1220.488647,1341.631714 1240.739624,1345.999268 
	C1242.500244,1346.378906 1245.065186,1348.844116 1245.115845,1350.409668 
	C1245.488525,1361.964111 1245.317383,1373.535889 1245.317383,1386.331665 
	C1240.721558,1385.704956 1237.559814,1385.112183 1234.371582,1384.871582 
	C1227.099487,1384.322876 1219.749634,1383.109009 1212.547485,1383.666138 
	C1194.693115,1385.047363 1183.873291,1395.025269 1180.331299,1412.464111 
	C1179.407227,1417.013428 1178.767090,1421.703125 1178.727173,1426.334717 
	C1178.560913,1445.647705 1178.661621,1464.962891 1178.709473,1484.277222 
	C1178.712646,1485.557129 1179.091309,1486.835938 1179.486206,1489.312134 
	C1186.683228,1489.312134 1193.807617,1489.312134 1201.472656,1489.312134 
	C1201.472656,1501.760010 1201.472656,1512.968262 1201.472656,1524.163330 
	C1194.865967,1526.605103 1129.229370,1527.360718 1115.391846,1525.009888 
	C1113.826538,1513.764404 1114.541138,1502.328979 1114.995239,1489.843750 
	C1122.404175,1489.843750 1128.918213,1489.843750 1136.559692,1489.843750 
	C1136.559692,1485.554199 1136.559692,1482.303101 1136.559814,1478.041992 
z"/>
<path fill="#FBFBFC" opacity="1.000000" stroke="none" 
	d="
M1544.311523,1494.455444 
	C1544.301758,1504.406006 1544.273560,1513.402832 1544.196655,1522.399292 
	C1544.191284,1523.035645 1543.826294,1523.668823 1543.626221,1524.302734 
	C1536.986938,1526.568848 1474.381470,1527.319702 1459.046265,1525.113525 
	C1458.183105,1513.916016 1458.433105,1502.486694 1459.005859,1489.848389 
	C1466.134644,1489.848389 1472.604126,1489.848389 1479.670898,1489.848389 
	C1479.670898,1453.900635 1479.670898,1419.139771 1479.670898,1383.518799 
	C1473.075317,1383.518799 1466.855103,1383.518799 1460.983887,1383.518799 
	C1458.125977,1376.205933 1457.607300,1361.155151 1459.471436,1348.495239 
	C1466.691040,1345.944092 1512.814331,1345.719116 1522.239258,1348.415283 
	C1522.239258,1394.758301 1522.239258,1441.331787 1522.239258,1489.154175 
	C1527.778931,1489.336182 1532.613037,1489.496948 1537.447144,1489.653320 
	C1540.395508,1489.748657 1543.728760,1489.154297 1544.311523,1494.455444 
z"/>
<path fill="#F3F5F7" opacity="1.000000" stroke="none" 
	d="
M1522.160645,1276.020874 
	C1522.328857,1288.438110 1522.328857,1300.014526 1522.328857,1312.336060 
	C1508.299072,1312.336060 1495.201660,1312.336060 1482.208618,1312.336060 
	C1479.857910,1305.187378 1479.437378,1285.743286 1481.458374,1273.797241 
	C1484.048340,1273.519165 1486.909058,1272.990112 1489.776855,1272.946655 
	C1497.765503,1272.825684 1505.764404,1272.715210 1513.743896,1273.011719 
	C1516.516479,1273.114746 1519.244263,1274.422363 1522.160645,1276.020874 
z"/>
<path fill="#90865B" opacity="1.000000" stroke="none" 
	d="
M1584.067871,1107.838623 
	C1589.647217,1112.768677 1592.107056,1118.304688 1592.016479,1125.050293 
	C1591.838989,1138.260132 1581.770386,1147.347412 1568.487183,1146.167847 
	C1555.866699,1145.047119 1547.689453,1133.676636 1549.969482,1120.418457 
	C1552.011841,1108.541260 1564.330811,1100.785522 1576.308838,1104.035767 
	C1578.815674,1104.716064 1581.092773,1106.242798 1584.067871,1107.838623 
M1558.424316,1136.503418 
	C1564.411743,1142.974365 1571.194458,1143.911621 1579.772705,1138.742188 
	C1572.404907,1138.482422 1576.827759,1128.427368 1569.414185,1128.115967 
	C1567.941772,1130.922607 1566.588257,1133.502441 1565.234741,1136.082275 
	C1564.497559,1135.950562 1563.760376,1135.818848 1563.023071,1135.687256 
	C1562.865723,1130.194702 1562.442749,1124.693481 1562.624634,1119.212158 
	C1562.811890,1113.564331 1565.301880,1111.828369 1571.077881,1112.546021 
	C1577.220703,1113.309326 1580.521729,1116.448853 1578.823120,1121.460205 
	C1576.857422,1127.259033 1578.933105,1131.426270 1581.704102,1137.169312 
	C1587.214478,1131.775391 1588.785645,1126.488647 1586.876709,1120.296997 
	C1584.895264,1113.870850 1581.129883,1108.969849 1573.988403,1107.874023 
	C1567.197266,1106.831909 1561.412842,1108.644531 1557.480469,1114.640625 
	C1552.992432,1121.484009 1553.056519,1128.377197 1558.424316,1136.503418 
M1572.239746,1123.032593 
	C1574.827515,1120.845093 1574.932617,1118.628174 1571.891602,1116.952637 
	C1571.109375,1116.521606 1568.955811,1116.998779 1568.586060,1117.682617 
	C1567.229004,1120.192383 1566.989502,1122.710571 1572.239746,1123.032593 
z"/>
<path fill="#D2D8DF" opacity="1.000000" stroke="none" 
	d="
M1714.198486,1827.446533 
	C1713.603027,1830.065796 1713.308350,1832.090576 1712.449219,1833.837646 
	C1708.223022,1842.431641 1699.792725,1846.308472 1690.931763,1843.904053 
	C1682.544678,1841.628174 1676.982544,1833.195435 1677.793701,1823.985596 
	C1678.550781,1815.389404 1685.395996,1808.434692 1693.870361,1807.651733 
	C1703.242432,1806.785767 1710.920044,1811.806274 1713.642334,1820.803345 
	C1714.206177,1822.666504 1714.058716,1824.744995 1714.198486,1827.446533 
M1705.457275,1836.733521 
	C1707.025024,1833.580933 1709.513062,1830.558105 1709.979248,1827.250244 
	C1711.143921,1818.984863 1705.274902,1811.864502 1697.445557,1810.937134 
	C1690.217651,1810.081177 1683.156616,1815.815308 1682.025146,1823.459473 
	C1680.797974,1831.749878 1685.607422,1839.253174 1693.515381,1840.592896 
	C1697.812256,1841.320801 1702.690063,1842.063110 1704.061890,1835.959229 
	C1704.061890,1835.959229 1703.971680,1836.072510 1705.457275,1836.733521 
z"/>
<path fill="#173458" opacity="1.000000" stroke="none" 
	d="
M1303.724609,1416.066162 
	C1304.569824,1411.641357 1305.074707,1408.001221 1306.118774,1404.522827 
	C1312.419922,1383.532104 1332.436279,1374.163452 1352.722534,1382.649414 
	C1360.149292,1385.756104 1365.537109,1391.123901 1368.271851,1398.621460 
	C1376.424316,1420.971191 1376.822388,1443.535400 1368.054443,1465.728638 
	C1362.804199,1479.018066 1351.772095,1484.248291 1337.852173,1484.172363 
	C1323.803467,1484.095825 1313.447998,1478.162476 1308.165039,1464.939087 
	C1301.975464,1449.447388 1301.206665,1433.302734 1303.724609,1416.066162 
z"/>
<path fill="#19355A" opacity="1.000000" stroke="none" 
	d="
M1604.014404,1473.979858 
	C1604.314453,1461.457397 1610.919922,1454.814575 1621.621094,1451.865234 
	C1626.071533,1450.638550 1630.754761,1449.777222 1635.354492,1449.664917 
	C1647.611572,1449.365723 1659.880737,1449.563354 1672.437134,1449.563354 
	C1674.139282,1458.874023 1673.960449,1467.445312 1671.815552,1475.854614 
	C1669.686401,1484.202393 1663.985107,1489.668701 1656.015381,1492.608154 
	C1644.793335,1496.747437 1633.245972,1497.248779 1621.615234,1494.715332 
	C1610.981445,1492.399414 1604.550537,1486.152222 1604.014404,1473.979858 
z"/>
<path fill="#19355A" opacity="1.000000" stroke="none" 
	d="
M812.680176,1379.965210 
	C819.078796,1379.276733 824.734436,1378.007324 830.278992,1378.382202 
	C851.168152,1379.794922 864.296021,1395.759033 862.536438,1417.668945 
	C838.473633,1417.668945 814.345276,1417.668945 790.220093,1417.668945 
	C786.763245,1401.745361 795.030945,1387.446655 812.680176,1379.965210 
z"/>
<path fill="#173458" opacity="1.000000" stroke="none" 
	d="
M1139.876465,1732.275146 
	C1142.392212,1702.555542 1168.580078,1687.733521 1194.671753,1700.344482 
	C1207.926025,1706.750610 1214.727417,1719.645996 1213.112305,1735.908447 
	C1211.650269,1736.122681 1210.066406,1736.553345 1208.481323,1736.557007 
	C1187.918091,1736.604614 1167.354370,1736.636108 1146.791504,1736.539673 
	C1144.130127,1736.527222 1140.484253,1737.774292 1139.876465,1732.275146 
z"/>
<path fill="#173458" opacity="1.000000" stroke="none" 
	d="
M1023.357849,1381.843750 
	C1036.985718,1386.352173 1042.955933,1396.409058 1045.373657,1408.749756 
	C1048.922729,1426.864258 1049.181274,1445.216797 1045.522583,1463.301636 
	C1039.982422,1490.687744 1019.231812,1496.189087 998.162292,1490.915161 
	C986.479736,1487.990723 979.317993,1479.248413 976.694580,1468.000488 
	C971.726562,1446.699829 971.479919,1425.058228 977.020630,1403.814941 
	C980.889343,1388.981812 991.538513,1380.988403 1006.799377,1380.245117 
	C1012.022217,1379.990723 1017.313538,1381.143066 1023.357849,1381.843750 
z"/>
<path fill="#1F3856" opacity="1.000000" stroke="none" 
	d="
M1557.971191,1135.868408 
	C1553.056519,1128.377197 1552.992432,1121.484009 1557.480469,1114.640625 
	C1561.412842,1108.644531 1567.197266,1106.831909 1573.988403,1107.874023 
	C1581.129883,1108.969849 1584.895264,1113.870850 1586.876709,1120.296997 
	C1588.785645,1126.488647 1587.214478,1131.775391 1581.704102,1137.169312 
	C1578.933105,1131.426270 1576.857422,1127.259033 1578.823120,1121.460205 
	C1580.521729,1116.448853 1577.220703,1113.309326 1571.077881,1112.546021 
	C1565.301880,1111.828369 1562.811890,1113.564331 1562.624634,1119.212158 
	C1562.442749,1124.693481 1562.865723,1130.194702 1563.023071,1135.687256 
	C1563.760376,1135.818848 1564.497559,1135.950562 1565.234741,1136.082275 
	C1566.588257,1133.502441 1567.941772,1130.922607 1569.414185,1128.115967 
	C1576.827759,1128.427368 1572.404907,1138.482422 1579.772705,1138.742188 
	C1571.194458,1143.911621 1564.411743,1142.974365 1557.971191,1135.868408 
z"/>
<path fill="#1F3856" opacity="1.000000" stroke="none" 
	d="
M1571.521484,1123.229004 
	C1566.989502,1122.710571 1567.229004,1120.192383 1568.586060,1117.682617 
	C1568.955811,1116.998779 1571.109375,1116.521606 1571.891602,1116.952637 
	C1574.932617,1118.628174 1574.827515,1120.845093 1571.521484,1123.229004 
z"/>
<path fill="#334C6C" opacity="1.000000" stroke="none" 
	d="
M1704.164795,1835.857422 
	C1702.690063,1842.063110 1697.812256,1841.320801 1693.515381,1840.592896 
	C1685.607422,1839.253174 1680.797974,1831.749878 1682.025146,1823.459473 
	C1683.156616,1815.815308 1690.217651,1810.081177 1697.445557,1810.937134 
	C1705.274902,1811.864502 1711.143921,1818.984863 1709.979248,1827.250244 
	C1709.513062,1830.558105 1707.025024,1833.580933 1704.572144,1835.645874 
	C1703.112427,1830.795532 1700.625732,1827.466797 1702.809204,1823.120483 
	C1704.637451,1819.481201 1702.209595,1816.665527 1698.285156,1816.078247 
	C1695.547241,1815.668579 1692.698608,1815.999268 1690.072266,1815.999268 
	C1690.072266,1823.390259 1690.072266,1829.406006 1690.072266,1835.421753 
	C1690.574585,1835.525269 1691.076782,1835.628784 1691.579102,1835.732422 
	C1692.392944,1833.215820 1693.206787,1830.699097 1694.761230,1825.892334 
	C1697.108032,1829.631470 1698.110352,1831.843506 1699.682373,1833.521973 
	C1700.769043,1834.682129 1702.642700,1835.105103 1704.164795,1835.857422 
z"/>
<path fill="#D2D8DF" opacity="1.000000" stroke="none" 
	d="
M1704.113281,1835.908447 
	C1702.642700,1835.105103 1700.769043,1834.682129 1699.682373,1833.521973 
	C1698.110352,1831.843506 1697.108032,1829.631470 1694.761230,1825.892334 
	C1693.206787,1830.699097 1692.392944,1833.215820 1691.579102,1835.732422 
	C1691.076782,1835.628784 1690.574585,1835.525269 1690.072266,1835.421753 
	C1690.072266,1829.406006 1690.072266,1823.390259 1690.072266,1815.999268 
	C1692.698608,1815.999268 1695.547241,1815.668579 1698.285156,1816.078247 
	C1702.209595,1816.665527 1704.637451,1819.481201 1702.809204,1823.120483 
	C1700.625732,1827.466797 1703.112427,1830.795532 1703.829346,1835.315430 
	C1703.971680,1836.072510 1704.061890,1835.959229 1704.113281,1835.908447 
M1696.554077,1818.684937 
	C1693.236938,1818.219238 1692.386597,1820.253784 1693.112061,1822.773315 
	C1693.355835,1823.619751 1695.745605,1824.607910 1696.817627,1824.311768 
	C1699.833374,1823.478638 1700.104858,1821.547241 1696.554077,1818.684937 
z"/>
<path fill="#334C6C" opacity="1.000000" stroke="none" 
	d="
M1697.161865,1819.033691 
	C1700.104858,1821.547241 1699.833374,1823.478638 1696.817627,1824.311768 
	C1695.745605,1824.607910 1693.355835,1823.619751 1693.112061,1822.773315 
	C1692.386597,1820.253784 1693.236938,1818.219238 1697.161865,1819.033691 
z"/>
</svg>