<svg version="1.1" id="Layer_1" xmlns="http://www.w3.org/2000/svg" xmlns:xlink="http://www.w3.org/1999/xlink" x="0px" y="0px"
	 width="100%" viewBox="0 0 1200 1200" enable-background="new 0 0 1200 1200" xml:space="preserve">
<path fill="#01A4EF" opacity="1.000000" stroke="none" 
	d="
M575.000000,1201.000000 
	C385.640839,1201.000000 196.281677,1201.000000 6.556863,1200.539307 
	C6.217447,1197.747925 6.266597,1195.417114 6.266643,1193.086304 
	C6.270212,1011.234802 6.267300,829.383301 6.291637,647.531799 
	C6.292058,644.389221 6.617518,641.246582 7.057053,638.072327 
	C8.219825,637.197083 9.116851,636.353516 10.301535,635.317993 
	C10.753787,634.964661 10.918380,634.803284 11.077333,634.806519 
	C11.071693,634.971130 10.892288,635.247437 10.978003,635.562622 
	C12.816839,638.361450 14.252118,638.837463 15.398216,635.109497 
	C16.497177,635.055237 17.241615,635.139343 18.109257,635.529785 
	C19.829155,635.633484 21.425850,635.430725 23.473511,635.096069 
	C26.254955,634.927917 28.585432,634.859741 30.915911,634.859680 
	C205.456253,634.854675 379.996582,634.853088 554.536926,634.868958 
	C558.352844,634.869324 562.168823,635.075195 566.069275,635.465576 
	C567.114441,635.575500 568.075012,635.405090 569.403198,635.104004 
	C570.535339,635.056030 571.299866,635.138611 572.050293,635.566895 
	C572.866760,637.630249 573.697327,639.347839 574.668457,641.510315 
	C574.853088,644.451477 574.935364,646.947876 574.935486,649.444214 
	C574.941772,784.668823 574.936157,919.893433 574.943970,1055.118042 
	C574.946777,1103.745361 574.980408,1152.372681 575.000000,1201.000000 
M562.468079,636.486450 
	C562.468079,636.486450 562.513367,636.466248 562.468079,636.486450 
z"/>
<path fill="#7FBA00" opacity="1.000000" stroke="none" 
	d="
M1201.000000,7.000001 
	C1201.000000,196.359177 1201.000000,385.718353 1200.534424,575.479858 
	C1198.570190,575.868958 1197.071533,575.844299 1195.572876,575.844299 
	C1012.881287,575.848083 830.189636,575.855774 647.498047,575.842163 
	C644.349243,575.841919 641.200439,575.585571 638.015686,575.131226 
	C636.744995,574.180176 635.510193,573.546509 634.084961,572.537842 
	C633.617432,571.688232 633.340332,571.213501 633.048340,570.743652 
	C633.033386,570.748535 633.143555,570.625793 633.381531,570.369812 
	C633.838623,568.797302 634.057800,567.480713 634.389954,566.441772 
	C634.759949,567.622925 635.016907,568.526611 635.273865,569.430237 
	C635.511658,569.420044 635.749390,569.409790 635.987183,569.399597 
	C635.987183,567.838196 635.987061,566.276855 635.987122,564.715454 
	C635.991394,384.174805 635.988220,203.634171 636.037781,23.093540 
	C636.039185,17.962011 636.601746,12.830636 637.350586,7.535302 
	C638.796326,7.337168 639.794250,7.272883 640.792114,7.272919 
	C824.705566,7.279419 1008.619019,7.291841 1192.532471,7.288858 
	C1195.354980,7.288812 1198.177490,7.100470 1201.000000,7.000001 
z"/>
<path fill="#FFB901" opacity="1.000000" stroke="none" 
	d="
M1201.000000,635.000000 
	C1201.000000,823.596191 1201.000000,1012.192383 1201.000000,1201.000000 
	C1012.974243,1201.000000 824.948364,1201.000000 636.462646,1200.577148 
	C635.453369,1197.757935 634.903931,1195.361572 634.200806,1192.521118 
	C633.998230,1190.580322 633.906555,1189.083618 633.906494,1187.586792 
	C633.900085,1010.215027 633.899109,832.843323 633.919434,655.471558 
	C633.919678,653.659058 634.205566,651.846558 634.673523,649.859741 
	C634.802124,646.775635 634.615295,643.865906 634.292847,640.608032 
	C634.260437,639.535583 634.363647,638.811340 634.776611,638.052124 
	C635.737610,637.094788 636.388794,636.172302 637.483887,635.096497 
	C640.924377,634.903076 643.921082,634.827881 646.917725,634.827759 
	C819.456970,634.822266 991.996277,634.819397 1164.535522,634.830688 
	C1176.690308,634.831482 1188.845215,634.941040 1201.000000,635.000000 
z"/>
<path fill="#FFFFFF" opacity="1.000000" stroke="none" 
	d="
M634.466797,638.087036 
	C634.363647,638.811340 634.260437,639.535583 634.079468,641.022522 
	C634.120544,644.534790 634.239319,647.284424 634.358093,650.034058 
	C634.205566,651.846558 633.919678,653.659058 633.919434,655.471558 
	C633.899109,832.843323 633.900085,1010.215027 633.906494,1187.586792 
	C633.906555,1189.083618 633.998230,1190.580322 634.008118,1192.914062 
	C634.312744,1196.167358 634.656372,1198.583740 635.000000,1201.000000 
	C616.979126,1201.000000 598.958191,1201.000000 580.468628,1200.532715 
	C580.333374,1192.429565 580.955322,1184.793945 580.957642,1177.157959 
	C581.012512,1000.994263 581.009094,824.830505 580.932129,648.666809 
	C580.930603,645.257324 579.944946,641.843140 579.361694,638.440857 
	C579.025452,636.479675 577.971497,634.425720 578.308777,632.612244 
	C578.909546,629.382324 578.701782,626.379761 575.270569,625.889282 
	C571.407349,625.337097 567.318420,625.824219 563.403625,626.387451 
	C561.240295,626.698730 559.286194,628.667053 557.142700,628.866211 
	C553.699646,629.186279 550.177917,628.511230 546.689392,628.510803 
	C377.116272,628.490356 207.543137,628.501831 37.970020,628.480042 
	C32.482819,628.479309 26.965675,628.467957 21.516872,627.920410 
	C16.013742,627.367371 10.709666,626.433899 5.850135,630.338684 
	C4.760082,631.214539 2.643824,630.813293 1.000000,631.000000 
	C1.000000,612.645752 1.000000,594.291565 1.426612,575.468994 
	C3.275506,574.999329 4.697789,574.997864 6.232857,575.027100 
	C6.345643,575.057861 6.307163,575.288513 6.260498,575.666748 
	C6.704194,577.108398 7.194555,578.171753 7.684923,579.235168 
	C8.128510,578.334473 8.572087,577.433777 9.438631,576.386230 
	C11.930411,575.998718 13.999227,575.758118 16.516014,575.644897 
	C18.128534,575.805115 19.293077,575.866821 20.457623,575.866882 
	C199.295074,575.870850 378.132507,575.871399 556.969971,575.855408 
	C558.622070,575.855225 560.274109,575.632385 562.248047,575.628174 
	C562.784241,575.666199 562.998718,575.589417 563.639404,575.640320 
	C567.360352,575.816162 570.655029,575.864441 574.112305,576.072144 
	C574.656799,576.197510 575.038757,576.163452 575.420654,576.129395 
	C575.264709,575.744324 575.108765,575.359253 574.949890,574.507141 
	C574.957092,571.540588 574.976257,569.041016 574.976135,566.541504 
	C574.967896,383.386932 574.958679,200.232330 574.944031,17.077745 
	C574.943787,14.079230 574.875427,11.080721 574.990967,7.817479 
	C575.428711,5.368497 575.714355,3.184246 576.000000,0.999997 
	C592.687561,1.000000 609.375122,1.000000 626.467407,1.343898 
	C623.020020,7.499141 629.018066,9.608646 631.627686,13.254278 
	C627.003174,15.973952 626.950378,20.170237 626.951782,24.647333 
	C627.008484,200.328796 627.000427,376.010284 626.995117,551.691772 
	C626.995056,553.855042 627.069763,556.033386 626.853088,558.178772 
	C626.247864,564.170227 627.355530,565.014343 633.580200,563.400513 
	C633.884827,564.586121 634.080872,565.375183 634.276917,566.164185 
	C634.057800,567.480713 633.838623,568.797302 632.903809,570.216431 
	C631.373352,570.246826 630.155334,569.799255 629.812988,570.166931 
	C628.263855,571.830627 626.889160,573.677368 625.649475,575.586609 
	C625.461304,575.876465 626.314148,576.842285 626.685547,577.495483 
	C627.954956,576.434937 629.327576,575.472839 630.463074,574.284363 
	C631.466980,573.233582 632.206848,571.930481 633.063232,570.738831 
	C633.340332,571.213501 633.617432,571.688232 633.930176,572.896973 
	C633.981018,574.412415 633.996155,575.193787 633.938599,576.309692 
	C632.011963,581.066467 633.110657,582.670898 637.795959,582.487793 
	C642.779480,582.293030 647.765320,582.020813 652.750183,582.020142 
	C835.500122,581.996216 1018.250061,582.000000 1201.000000,582.000000 
	C1201.000000,599.354248 1201.000000,616.708435 1201.000000,634.531372 
	C1188.845215,634.941040 1176.690308,634.831482 1164.535522,634.830688 
	C991.996277,634.819397 819.456970,634.822266 646.917725,634.827759 
	C643.921082,634.827881 640.924377,634.903076 637.166687,634.943237 
	C635.950256,635.032349 635.494934,635.121460 634.787415,635.191406 
	C634.457458,635.461426 634.379639,635.750488 634.215454,636.387146 
	C634.241577,637.185486 634.354187,637.636230 634.466797,638.087036 
z"/>
<path fill="#FCFEFD" opacity="1.000000" stroke="none" 
	d="
M1.000000,631.468628 
	C2.643824,630.813293 4.760082,631.214539 5.850135,630.338684 
	C10.709666,626.433899 16.013742,627.367371 21.516872,627.920410 
	C26.965675,628.467957 32.482819,628.479309 37.970020,628.480042 
	C207.543137,628.501831 377.116272,628.490356 546.689392,628.510803 
	C550.177917,628.511230 553.699646,629.186279 557.142700,628.866211 
	C559.286194,628.667053 561.240295,626.698730 563.403625,626.387451 
	C567.318420,625.824219 571.407349,625.337097 575.270569,625.889282 
	C578.701782,626.379761 578.909546,629.382324 578.308777,632.612244 
	C577.971497,634.425720 579.025452,636.479675 579.361694,638.440857 
	C579.944946,641.843140 580.930603,645.257324 580.932129,648.666809 
	C581.009094,824.830505 581.012512,1000.994263 580.957642,1177.157959 
	C580.955322,1184.793945 580.333374,1192.429565 580.000000,1200.532715 
	C578.611084,1201.000000 577.222229,1201.000000 575.416626,1201.000000 
	C574.980408,1152.372681 574.946777,1103.745361 574.943970,1055.118042 
	C574.936157,919.893433 574.941772,784.668823 574.935486,649.444214 
	C574.935364,646.947876 574.853088,644.451477 574.836548,641.138550 
	C574.268127,638.424316 573.672241,636.526611 572.967590,634.476685 
	C572.536377,634.405884 572.213867,634.487488 571.863525,634.750977 
	C571.835571,634.932922 572.064392,635.221191 572.064392,635.221191 
	C571.299866,635.138611 570.535339,635.056030 569.039673,634.939270 
	C567.533936,634.998535 566.759338,635.091858 565.984741,635.185181 
	C562.168823,635.075195 558.352844,634.869324 554.536926,634.868958 
	C379.996582,634.853088 205.456253,634.854675 30.915911,634.859680 
	C28.585432,634.859741 26.254955,634.927917 23.074373,634.930847 
	C20.811531,635.006104 19.398794,635.114746 17.986057,635.223389 
	C17.241615,635.139343 16.497177,635.055237 15.000322,634.948242 
	C13.129366,635.032654 12.010828,635.140076 10.892289,635.247437 
	C10.892288,635.247437 11.071693,634.971130 10.842096,634.630981 
	C10.236894,634.349854 9.861288,634.408875 9.201269,634.534851 
	C8.004122,635.118774 7.091388,635.635803 6.017066,636.188904 
	C5.855478,636.225037 5.727852,636.658447 5.727852,636.658447 
	C5.727852,636.658447 6.082226,636.943481 6.218154,637.258911 
	C6.499823,637.750793 6.645564,637.927368 6.791306,638.104004 
	C6.617518,641.246582 6.292058,644.389221 6.291637,647.531799 
	C6.267300,829.383301 6.270212,1011.234802 6.266643,1193.086304 
	C6.266597,1195.417114 6.217447,1197.747925 6.095609,1200.539307 
	C4.334602,1201.000000 2.669204,1201.000000 1.001903,1201.000000 
	C1.000000,1011.312439 1.000000,821.624878 1.000000,631.468628 
z"/>
<path fill="#FEFFFB" opacity="1.000000" stroke="none" 
	d="
M633.471741,563.003845 
	C627.355530,565.014343 626.247864,564.170227 626.853088,558.178772 
	C627.069763,556.033386 626.995056,553.855042 626.995117,551.691772 
	C627.000427,376.010284 627.008484,200.328796 626.951782,24.647333 
	C626.950378,20.170237 627.003174,15.973952 631.627686,13.254278 
	C629.018066,9.608646 623.020020,7.499141 626.936096,1.343898 
	C818.333313,1.000000 1009.666687,1.000000 1201.000000,1.002664 
	C1201.000000,2.670571 1201.000000,4.335814 1201.000000,6.500529 
	C1198.177490,7.100470 1195.354980,7.288812 1192.532471,7.288858 
	C1008.619019,7.291841 824.705566,7.279419 640.792114,7.272919 
	C639.794250,7.272883 638.796326,7.337168 637.458496,7.361332 
	C637.118591,7.351248 637.026489,6.952256 636.934814,6.792932 
	C636.560120,6.752653 636.277039,6.871698 635.607178,7.132472 
	C634.752014,11.252214 633.875366,15.230077 633.873901,19.208265 
	C633.806824,198.152130 633.817871,377.096039 633.802917,556.039917 
	C633.802734,558.361206 633.586914,560.682556 633.471741,563.003845 
z"/>
<path fill="#FEFFFB" opacity="1.000000" stroke="none" 
	d="
M575.531311,0.999997 
	C575.714355,3.184246 575.428711,5.368497 574.787109,7.910566 
	C574.431152,8.268384 573.991394,8.354155 573.743774,8.014290 
	C572.694702,7.662642 571.893372,7.650858 570.803467,7.510969 
	C569.694336,7.470433 568.873718,7.558003 567.728149,7.459940 
	C562.575317,7.410372 557.747437,7.546436 552.475769,7.545727 
	C550.699951,7.370203 549.367981,7.297559 548.036011,7.297506 
	C372.036682,7.290508 196.037323,7.287736 20.037985,7.303365 
	C18.387285,7.303512 16.736605,7.552331 14.692087,7.500854 
	C13.170963,7.436272 12.043670,7.555888 10.680002,7.542359 
	C9.925467,7.494644 9.407307,7.580072 8.481482,7.591489 
	C7.646142,8.347644 7.218468,9.177809 6.656092,10.417737 
	C6.445837,14.156510 6.304404,17.485518 6.304164,20.814533 
	C6.291081,202.015030 6.287849,383.215515 6.305619,564.416016 
	C6.305895,567.230408 6.579624,570.044861 6.615246,573.286804 
	C6.591627,573.995667 6.678501,574.276917 6.629727,574.705017 
	C6.494078,574.851807 6.120072,574.996399 6.120072,574.996399 
	C4.697789,574.997864 3.275506,574.999329 1.426612,575.000366 
	C1.000000,383.739502 1.000000,192.479019 1.000000,1.000000 
	C192.354172,1.000000 383.708435,1.000000 575.531311,0.999997 
z"/>
<path fill="#FEFFFB" opacity="1.000000" stroke="none" 
	d="
M1201.000000,581.571533 
	C1018.250061,582.000000 835.500122,581.996216 652.750183,582.020142 
	C647.765320,582.020813 642.779480,582.293030 637.795959,582.487793 
	C633.110657,582.670898 632.011963,581.066467 634.262329,576.308472 
	C635.084167,576.041870 635.509399,576.111084 636.041626,576.335449 
	C636.457153,576.382935 636.765869,576.275330 637.344604,576.022949 
	C637.760315,575.734985 637.906006,575.591797 638.051636,575.448669 
	C641.200439,575.585571 644.349243,575.841919 647.498047,575.842163 
	C830.189636,575.855774 1012.881287,575.848083 1195.572876,575.844299 
	C1197.071533,575.844299 1198.570190,575.868958 1200.534424,575.941040 
	C1201.000000,577.714355 1201.000000,579.428711 1201.000000,581.571533 
z"/>
<path fill="#EFB919" opacity="1.000000" stroke="none" 
	d="
M635.250000,1201.000000 
	C634.656372,1198.583740 634.312744,1196.167358 634.161743,1193.358154 
	C634.903931,1195.361572 635.453369,1197.757935 636.001465,1200.577148 
	C636.000000,1201.000000 635.500000,1201.000000 635.250000,1201.000000 
z"/>
<path fill="#1CA3DD" opacity="1.000000" stroke="none" 
	d="
M6.178654,636.152771 
	C7.091388,635.635803 8.004122,635.118774 9.317157,634.803101 
	C9.816261,635.172913 9.915064,635.341370 10.013872,635.509888 
	C9.116851,636.353516 8.219825,637.197083 7.057052,638.072327 
	C6.645564,637.927368 6.499823,637.750793 6.330338,637.072144 
	C6.306594,636.570007 6.178653,636.152771 6.178654,636.152771 
z"/>
<path fill="#1CA3DD" opacity="1.000000" stroke="none" 
	d="
M573.076355,634.628967 
	C573.672241,636.526611 574.268127,638.424316 574.695923,640.693726 
	C573.697327,639.347839 572.866760,637.630249 572.050293,635.566895 
	C572.064392,635.221191 571.835571,634.932922 572.155029,634.860046 
	C572.675049,634.734436 572.875732,634.681702 573.076355,634.628967 
z"/>
<path fill="#1CA3DD" opacity="1.000000" stroke="none" 
	d="
M10.978004,635.562622 
	C12.010828,635.140076 13.129366,635.032654 14.645800,635.086487 
	C14.252118,638.837463 12.816839,638.361450 10.978004,635.562622 
z"/>
<path fill="#1CA3DD" opacity="1.000000" stroke="none" 
	d="
M18.109259,635.529785 
	C19.398794,635.114746 20.811531,635.006104 22.623407,635.062744 
	C21.425850,635.430725 19.829155,635.633484 18.109259,635.529785 
z"/>
<path fill="#1CA3DD" opacity="1.000000" stroke="none" 
	d="
M566.069275,635.465576 
	C566.759338,635.091858 567.533936,634.998535 568.672119,635.069885 
	C568.075012,635.405090 567.114441,635.575500 566.069275,635.465576 
z"/>
<path fill="#1CA3DD" opacity="1.000000" stroke="none" 
	d="
M562.490723,636.476318 
	C562.513367,636.466248 562.468079,636.486450 562.490723,636.476318 
z"/>
<path fill="#B0E6FE" opacity="1.000000" stroke="none" 
	d="
M10.301530,635.317993 
	C9.915064,635.341370 9.816261,635.172913 9.601570,634.736206 
	C9.861288,634.408875 10.236894,634.349854 10.847736,634.466370 
	C10.918380,634.803284 10.753787,634.964661 10.301530,635.317993 
z"/>
<path fill="#86B21D" opacity="1.000000" stroke="none" 
	d="
M633.580200,563.400513 
	C633.586914,560.682556 633.802734,558.361206 633.802917,556.039917 
	C633.817871,377.096039 633.806824,198.152130 633.873901,19.208265 
	C633.875366,15.230077 634.752014,11.252214 635.869080,7.224030 
	C636.687378,7.099992 636.856934,7.026124 637.026489,6.952256 
	C637.026489,6.952256 637.118591,7.351248 637.010620,7.525218 
	C636.601746,12.830636 636.039185,17.962011 636.037781,23.093540 
	C635.988220,203.634171 635.991394,384.174805 635.987122,564.715454 
	C635.987061,566.276855 635.987183,567.838196 635.987183,569.399597 
	C635.749390,569.409790 635.511658,569.420044 635.273865,569.430237 
	C635.016907,568.526611 634.759949,567.622925 634.389954,566.441772 
	C634.080872,565.375183 633.884827,564.586121 633.580200,563.400513 
z"/>
<path fill="#FEFFFB" opacity="1.000000" stroke="none" 
	d="
M633.048340,570.743652 
	C632.206848,571.930481 631.466980,573.233582 630.463074,574.284363 
	C629.327576,575.472839 627.954956,576.434937 626.685547,577.495483 
	C626.314148,576.842285 625.461304,575.876465 625.649475,575.586609 
	C626.889160,573.677368 628.263855,571.830627 629.812988,570.166931 
	C630.155334,569.799255 631.373352,570.246826 632.665833,570.472412 
	C633.143555,570.625793 633.033386,570.748535 633.048340,570.743652 
z"/>
<path fill="#86B21D" opacity="1.000000" stroke="none" 
	d="
M635.934692,576.180298 
	C635.509399,576.111084 635.084167,576.041870 634.335083,575.973877 
	C633.996155,575.193787 633.981018,574.412415 634.120605,573.271973 
	C635.510193,573.546509 636.744995,574.180176 638.015686,575.131226 
	C637.906006,575.591797 637.760315,575.734985 637.058228,575.922974 
	C636.312866,576.038513 636.123779,576.109375 635.934692,576.180298 
z"/>
<path fill="#EFB919" opacity="1.000000" stroke="none" 
	d="
M634.673523,649.859741 
	C634.239319,647.284424 634.120544,644.534790 634.215088,641.370667 
	C634.615295,643.865906 634.802124,646.775635 634.673523,649.859741 
z"/>
<path fill="#EFB919" opacity="1.000000" stroke="none" 
	d="
M635.039551,635.210571 
	C635.494934,635.121460 635.950256,635.032349 636.722778,635.096497 
	C636.388794,636.172302 635.737610,637.094788 634.776611,638.052124 
	C634.354187,637.636230 634.241577,637.185486 634.393799,636.306641 
	C634.877258,635.708191 635.004272,635.485535 635.039551,635.210571 
z"/>
<path fill="#F25022" opacity="1.000000" stroke="none" 
	d="
M6.725739,572.859253 
	C6.579624,570.044861 6.305895,567.230408 6.305619,564.416016 
	C6.287849,383.215515 6.291081,202.015030 6.304164,20.814533 
	C6.304404,17.485518 6.445837,14.156510 6.998348,10.341380 
	C7.946586,9.125341 8.417867,8.395421 8.889147,7.665501 
	C9.407307,7.580072 9.925467,7.494644 10.822058,7.790730 
	C12.495631,8.009849 13.790774,7.847451 15.085917,7.685053 
	C16.736605,7.552331 18.387285,7.303512 20.037985,7.303365 
	C196.037323,7.287736 372.036682,7.290508 548.036011,7.297506 
	C549.367981,7.297559 550.699951,7.370203 552.702637,7.833381 
	C558.266602,8.053730 563.159912,7.849652 568.053162,7.645573 
	C568.873718,7.558003 569.694336,7.470433 570.937256,7.773842 
	C572.236816,8.227931 573.114136,8.291041 573.991394,8.354154 
	C573.991394,8.354155 574.431152,8.268384 574.635010,8.175297 
	C574.875427,11.080721 574.943787,14.079230 574.944031,17.077745 
	C574.958679,200.232330 574.967896,383.386932 574.976135,566.541504 
	C574.976257,569.041016 574.957092,571.540588 574.710022,574.440796 
	C574.473083,574.841492 573.975647,574.860229 573.938232,574.761780 
	C573.900879,574.663330 573.574341,574.718445 573.574341,574.718445 
	C573.574341,574.718445 573.856445,574.976929 573.846924,575.214111 
	C573.837402,575.451355 573.949707,575.912659 573.949707,575.912720 
	C570.655029,575.864441 567.360352,575.816162 563.727966,575.480225 
	C562.902222,575.299561 562.414246,575.406494 561.926208,575.513489 
	C560.274109,575.632385 558.622070,575.855225 556.969971,575.855408 
	C378.132507,575.871399 199.295074,575.870850 20.457623,575.866882 
	C19.293077,575.866821 18.128534,575.805115 16.333197,575.348511 
	C12.710183,574.236267 9.717961,573.547791 6.725739,572.859253 
M570.493408,574.565796 
	C570.493408,574.565796 570.473511,574.515137 570.493408,574.565796 
z"/>
<path fill="#E46242" opacity="1.000000" stroke="none" 
	d="
M6.615246,573.286804 
	C9.717961,573.547791 12.710183,574.236267 15.885223,575.221191 
	C13.999227,575.758118 11.930411,575.998718 9.004723,576.117859 
	C7.686675,575.513855 7.225502,575.031433 6.769801,574.578308 
	C6.775273,574.607666 6.765376,574.558228 6.765376,574.558228 
	C6.678501,574.276917 6.591627,573.995667 6.615246,573.286804 
z"/>
<path fill="#FEFFFB" opacity="1.000000" stroke="none" 
	d="
M6.764325,574.548950 
	C7.225502,575.031433 7.686675,575.513855 8.581757,576.264709 
	C8.572087,577.433777 8.128510,578.334473 7.684923,579.235168 
	C7.194555,578.171753 6.704194,577.108398 6.333095,575.456177 
	C6.452356,574.867310 6.764322,574.548950 6.764325,574.548950 
z"/>
<path fill="#FEFFFB" opacity="1.000000" stroke="none" 
	d="
M573.975647,574.860229 
	C573.975647,574.860229 574.473083,574.841492 574.712952,574.907837 
	C575.108765,575.359253 575.264709,575.744324 575.420654,576.129395 
	C575.038757,576.163452 574.656799,576.197510 574.112305,576.072083 
	C573.949707,575.912659 573.837402,575.451355 573.903442,575.212280 
	C573.969421,574.973145 573.975647,574.860229 573.975647,574.860229 
z"/>
<path fill="#E46242" opacity="1.000000" stroke="none" 
	d="
M562.248047,575.628174 
	C562.414246,575.406494 562.902222,575.299561 563.301697,575.352661 
	C562.998718,575.589417 562.784241,575.666199 562.248047,575.628174 
z"/>
<path fill="#F25022" opacity="1.000000" stroke="none" 
	d="
M6.769797,574.578308 
	C6.764322,574.548950 6.452356,574.867310 6.379760,575.077881 
	C6.307163,575.288513 6.345643,575.057861 6.232857,575.027100 
	C6.120072,574.996399 6.494078,574.851807 6.629727,574.705017 
	C6.765376,574.558228 6.775273,574.607666 6.769797,574.578308 
z"/>
<path fill="#F4CD54" opacity="1.000000" stroke="none" 
	d="
M634.787415,635.191406 
	C635.004272,635.485535 634.877258,635.708191 634.480225,635.959106 
	C634.379639,635.750488 634.457458,635.461426 634.787415,635.191406 
z"/>
<path fill="#B0E6FE" opacity="1.000000" stroke="none" 
	d="
M6.017066,636.188904 
	C6.178653,636.152771 6.306594,636.570007 6.194410,636.756714 
	C6.082226,636.943481 5.727852,636.658447 5.727852,636.658447 
	C5.727852,636.658447 5.855478,636.225037 6.017066,636.188904 
z"/>
<path fill="#B0E6FE" opacity="1.000000" stroke="none" 
	d="
M572.967590,634.476685 
	C572.875732,634.681702 572.675049,634.734436 572.182922,634.678101 
	C572.213867,634.487488 572.536377,634.405884 572.967590,634.476685 
z"/>
<path fill="#E0F7B2" opacity="1.000000" stroke="none" 
	d="
M636.934814,6.792932 
	C636.856934,7.026124 636.687378,7.099992 636.255920,7.082302 
	C636.277039,6.871698 636.560120,6.752653 636.934814,6.792932 
z"/>
<path fill="#E46242" opacity="1.000000" stroke="none" 
	d="
M567.728149,7.459940 
	C563.159912,7.849652 558.266602,8.053730 553.146484,7.970155 
	C557.747437,7.546436 562.575317,7.410372 567.728149,7.459940 
z"/>
<path fill="#E46242" opacity="1.000000" stroke="none" 
	d="
M14.692087,7.500854 
	C13.790774,7.847451 12.495631,8.009849 11.058433,7.923875 
	C12.043670,7.555888 13.170963,7.436272 14.692087,7.500854 
z"/>
<path fill="#E46242" opacity="1.000000" stroke="none" 
	d="
M8.481482,7.591490 
	C8.417867,8.395421 7.946586,9.125341 7.133049,9.931618 
	C7.218468,9.177809 7.646142,8.347644 8.481482,7.591490 
z"/>
<path fill="#E46242" opacity="1.000000" stroke="none" 
	d="
M573.743774,8.014290 
	C573.114136,8.291041 572.236816,8.227931 571.225769,7.901947 
	C571.893372,7.650858 572.694702,7.662642 573.743774,8.014290 
z"/>
<path fill="#E0F7B2" opacity="1.000000" stroke="none" 
	d="
M636.041626,576.335449 
	C636.123779,576.109375 636.312866,576.038513 636.788208,576.067688 
	C636.765869,576.275330 636.457153,576.382935 636.041626,576.335449 
z"/>
<path fill="#E46242" opacity="1.000000" stroke="none" 
	d="
M570.483459,574.540466 
	C570.473511,574.515137 570.493408,574.565796 570.483459,574.540466 
z"/>
<path fill="#E46242" opacity="1.000000" stroke="none" 
	d="
M573.912964,574.975037 
	C573.856445,574.976929 573.574341,574.718445 573.574341,574.718445 
	C573.574341,574.718445 573.900879,574.663330 573.938232,574.761780 
	C573.975647,574.860229 573.969421,574.973145 573.912964,574.975037 
z"/>
</svg>